<svg width="19" height="17" viewBox="0 0 19 17" fill="none" xmlns="http://www.w3.org/2000/svg">
<g clip-path="url(#clip0_870_6655)">
<path d="M16.0342 8.20573L10.2671 2.43864C10.0508 2.22249 9.75755 2.10107 9.45177 2.10107C9.146 2.10107 8.85274 2.22249 8.63645 2.43864L2.86935 8.20573C2.76173 8.31256 2.67641 8.43972 2.61837 8.57981C2.56033 8.7199 2.53072 8.87014 2.53126 9.02178V15.9423C2.53126 16.0952 2.59202 16.2419 2.70017 16.3501C2.80833 16.4582 2.95501 16.519 3.10797 16.519H7.72164C7.8746 16.519 8.02129 16.4582 8.12944 16.3501C8.23759 16.2419 8.29835 16.0952 8.29835 15.9423V11.9053H10.6052V15.9423C10.6052 16.0952 10.666 16.2419 10.7741 16.3501C10.8823 16.4582 11.029 16.519 11.1819 16.519H15.7956C15.9485 16.519 16.0952 16.4582 16.2034 16.3501C16.3115 16.2419 16.3723 16.0952 16.3723 15.9423V9.02178C16.3728 8.87014 16.3432 8.7199 16.2852 8.57981C16.2271 8.43972 16.1418 8.31256 16.0342 8.20573ZM15.2189 15.3656H11.7586V11.3286C11.7586 11.1757 11.6979 11.029 11.5897 10.9208C11.4815 10.8127 11.3349 10.7519 11.1819 10.7519H7.72164C7.56869 10.7519 7.422 10.8127 7.31385 10.9208C7.2057 11.029 7.14494 11.1757 7.14494 11.3286V15.3656H3.68468V9.02178L9.45177 3.25468L15.2189 9.02178V15.3656Z" fill="#333333"/>
</g>
<defs>
<clipPath id="clip0_870_6655">
<rect width="18.4547" height="16.1479" fill="white"/>
</clipPath>
</defs>
</svg>
