<svg width="249" height="247" viewBox="0 0 249 247" fill="none" xmlns="http://www.w3.org/2000/svg">
<g clip-path="url(#clip0_672_6824)">
<path d="M248.054 113.338C248.054 51.2653 192.964 0.945312 125.005 0.945312C57.0447 0.945312 1.95483 51.2653 1.95483 113.338C1.95483 114.412 1.95483 115.487 1.99781 116.561H1.95483V247.947H248.076V116.561H248.033C248.076 115.487 248.076 114.412 248.076 113.338H248.054Z" fill="white" stroke="#333333" stroke-width="1.94391" stroke-miterlimit="10"/>
<path d="M160.092 243.478H135.361V247.646H160.092V243.478Z" fill="#333333"/>
<mask id="mask0_672_6824" style="mask-type:luminance" maskUnits="userSpaceOnUse" x="1" y="0" width="247" height="248">
<path d="M247.281 113.338C247.281 51.2653 192.191 0.945312 124.232 0.945312C56.2717 0.945312 1.18188 51.2653 1.18188 113.338C1.18188 114.412 1.18188 115.487 1.22486 116.561H1.18188V247.947H247.303V116.561H247.26C247.303 115.487 247.303 114.412 247.303 113.338H247.281Z" fill="white"/>
</mask>
<g mask="url(#mask0_672_6824)">
<path d="M84.9769 24.4727V128.207H67.3799V104.594C63.6629 120.644 53.7149 130.312 40.0499 130.312C21.3357 130.312 8.07886 113.424 8.07886 89.5534C8.07886 65.6826 21.3357 48.8377 40.0499 48.8377C53.7149 48.8377 63.6629 58.5063 67.3799 74.5563V24.4727H84.9769ZM46.3667 64.1141C32.938 64.1141 25.7617 72.9448 25.7617 89.5534C25.7617 106.162 32.938 115.036 46.3667 115.036C59.7954 115.036 67.4014 105.603 67.4014 89.5534C67.4014 73.5035 59.6235 64.1141 46.3667 64.1141Z" fill="#333333"/>
<path d="M112.522 42.4134H94.366V24.4727H112.522V42.4134ZM112.242 128.207H94.6453V50.9433H112.242V128.228V128.207Z" fill="#333333"/>
<path d="M139.508 128.207H121.911V50.9435H139.508V73.0525C142.903 57.6686 152.185 48.8379 165.506 48.8379C178.827 48.8379 188.001 58.4851 190.15 75.6523C193.029 58.7214 202.633 48.8379 216.685 48.8379C232.735 48.8379 241.845 61.7724 241.845 84.1607V128.207H224.248V85.9011C224.248 71.57 219.07 64.3722 208.521 64.3722C197.262 64.3722 190.687 72.5798 190.687 87.0183V128.207H173.09V85.9011C173.09 71.57 167.912 64.3722 157.363 64.3722C146.104 64.3722 139.529 72.5798 139.529 87.0183V128.207H139.508Z" fill="#333333"/>
<path d="M42.7356 247.926H14.9543V217.824H42.7356V247.926Z" fill="#333333"/>
<path d="M107.924 132.74C140.582 132.74 160.091 150.509 160.091 180.503V245.778H135.361V216.943C130.291 236.71 114.219 248.786 92.1531 248.786C70.0871 248.786 53.8652 235.658 53.8652 215.955C53.8652 196.253 70.3664 183.06 97.6105 183.06H135.361V180.525C135.361 163.916 124.769 153.667 107.43 153.667C90.0905 153.667 81.7539 162.047 81.7539 175.067H57.0666C57.0666 149.07 76.5758 132.74 107.924 132.74ZM99.0501 200.593C85.5999 200.593 78.5096 205.277 78.5096 214.215C78.5096 223.604 86.3949 228.825 100.64 228.825C120.837 228.825 135.383 218.297 135.383 203.73V200.593H99.0716H99.0501Z" fill="#333333"/>
<path d="M197.906 247.926H173.176V135.77H197.906V173.155C202.397 149.972 215.009 135.77 237.118 135.77H242.833V159.92H234.647C206.651 159.92 197.885 171.006 197.885 194.512V247.926H197.906Z" fill="#333333"/>
</g>
<path d="M28.2539 161.681L33.0667 171.994L43.0147 166.494L40.8661 177.667L52.1462 179.063L43.8312 186.82L52.1462 194.598L40.8661 195.994L43.0147 207.167L33.0667 201.645L28.2539 211.958L23.441 201.645L13.4716 207.167L15.6417 195.994L4.34009 194.598L12.6551 186.82L4.34009 179.063L15.6417 177.667L13.4716 166.494L23.441 171.994L28.2539 161.681Z" fill="#333333"/>
</g>
<defs>
<clipPath id="clip0_672_6824">
<rect width="249" height="249" fill="white"/>
</clipPath>
</defs>
</svg>
