<svg width="467" height="950" viewBox="0 0 467 950" fill="none" xmlns="http://www.w3.org/2000/svg">
<path d="M574.815 150.539C557.701 139.925 528.192 142.549 528.192 142.549C516.63 143.069 499.773 145.163 481.361 152.912C470.833 157.344 468.537 159.998 438.294 178.859C407.257 198.203 398.969 202.557 386.652 205.873C374.921 209.031 364.358 211.714 351.995 207.709C339.154 203.553 323.606 191.908 321.056 174.111C318.822 158.53 327.723 146.366 329.94 143.517C344.187 125.294 372.251 121.633 389.46 123.991C393.693 124.575 397.92 125.611 398.273 124.655C399.052 122.585 382.328 111.325 363 107.489C356.188 106.137 332.819 101.877 309.965 115.921C290.425 127.921 283.082 146.034 280.759 152.001C278.727 157.215 274.322 168.937 275.863 184.26C277.889 204.478 288.94 217.779 294.518 224.309C299.66 230.324 313.996 245.382 337.496 251.128C350.539 254.317 361.074 253.337 368.435 252.584C387.172 250.673 400.567 244.28 411.261 239.06C426.021 231.849 436.351 224.227 457.012 208.983C461.421 205.725 472.315 197.732 487.865 187.325C489.693 186.097 491.59 184.873 493.913 183.391C517.808 168.177 530.246 162.988 536.603 160.55C548.635 155.95 564.04 151.662 571.541 152.653C572.276 152.744 576.537 153.379 576.819 152.487C577.013 151.895 575.387 150.889 574.831 150.543L574.815 150.539Z" fill="#74BDFF"/>
<path d="M625.399 187.683C625.465 184.93 608.774 182.529 607.475 182.348C597.543 180.957 581.14 178.822 559.45 183.901C539.742 188.526 526.494 196.581 512.558 205.047C498.373 213.661 485.699 223.606 473.765 232.967C468.729 236.919 464.821 240.129 454.682 248.031C442.386 257.626 436.236 262.419 432.77 264.862C414.134 278.022 397.87 285.11 387.786 289.434C373.611 295.509 366.68 297.032 363.013 297.737C352.872 299.691 344.826 299.469 340.238 299.328C326.823 298.886 315.496 295.797 315.496 295.797C308.21 293.885 303.796 291.895 303.061 293.097C302.056 294.749 308.958 300.628 311.498 302.788C320.05 310.083 328.299 314.31 333.183 316.559C344.723 321.894 354.455 323.841 358.266 324.522C365.783 325.861 373.076 327.15 382.256 325.835C396.643 323.759 402.527 317.158 406.056 320.023C409.814 323.067 403.599 330.836 404.791 343.248C406.482 360.798 421.522 372.284 424.278 374.38C436.37 383.61 448.96 384.696 456.298 385.314C469.315 386.433 479.204 383.626 482.149 382.731C496.416 378.386 505.237 370.315 511.522 364.552C522.182 354.786 527.766 345.024 532.144 337.418C535.637 331.347 538.382 326.524 540.327 319.444C543.843 306.739 543.283 292.349 540.104 291.617C537.51 291.016 535.389 300.037 525.891 312.999C522.154 318.108 514.764 327.239 504.054 335.159C493.203 343.182 481.981 351.471 467.666 350.026C456.924 348.942 443.103 342.244 440.527 331.148C438.856 323.967 442.201 317.501 447.123 309.852C454.228 298.831 461.061 292.983 473.209 281.897C493.887 263.029 489.924 265.504 501.416 255.617C514.609 244.269 525.024 236.535 533.869 229.994C547.833 219.68 554.915 215.293 557.745 213.576C569.264 206.59 577.096 203.103 579.665 201.976C583.273 200.406 586.052 199.35 587.498 198.805C609.414 190.584 625.298 190.322 625.366 187.647L625.399 187.683Z" fill="#74BDFF"/>
<path d="M513.031 709.151C507.635 679.573 475.165 649.536 475.165 649.536C463.005 637.258 443.798 620.695 416.773 608.077C401.32 600.864 396.082 600.981 344.902 586.4C292.393 571.423 279.27 566.611 263.258 556.298C248.01 546.476 234.456 537.471 226.503 519.773C218.239 501.395 215.552 472.516 232.698 451.862C247.708 433.779 270.091 431.445 275.465 431.045C309.912 428.559 342.082 455.956 356.713 477.369C360.308 482.641 363.397 488.358 364.809 487.791C367.881 486.579 363.588 456.784 348.47 431.545C343.142 422.65 324.445 392.513 286.002 381.285C253.14 371.677 225.733 381.697 216.8 385.102C208.992 388.078 191.603 394.946 176.184 412.003C155.834 434.502 152.181 460.062 150.542 472.779C149.035 484.497 146.729 515.453 163.913 547.224C173.45 564.857 185.091 575.537 193.299 582.932C214.186 601.758 234.684 610.182 251.177 616.789C273.947 625.904 292.734 629.703 330.309 637.3C338.333 638.918 358.096 642.969 385.195 649.755C388.386 650.55 391.641 651.422 395.609 652.51C436.391 663.717 454.597 672.288 463.665 676.882C480.811 685.592 500.993 698.349 507.41 707.646C508.047 708.55 511.613 713.903 512.882 713.322C513.733 712.943 513.217 710.135 513.042 709.173L513.031 709.151Z" fill="#74BDFF"/>
<path d="M522.594 802.361C525.708 799.676 511.642 778.794 510.542 777.175C502.13 764.787 488.06 744.49 460.706 725.568C435.841 708.387 413.651 701.791 390.318 694.846C366.57 687.773 342.863 683.709 320.544 679.876C311.123 678.261 303.655 677.151 284.75 673.843C261.808 669.847 250.341 667.84 244.164 666.451C210.925 659.006 186.784 648.104 171.894 641.272C150.968 631.669 142.338 625.522 137.883 622.169C125.56 612.901 117.744 603.771 113.304 598.551C100.353 583.258 92.4244 567.625 92.4244 567.625C87.2407 557.643 85.0212 550.763 82.9549 551.155C80.1192 551.697 80.5253 565.228 80.68 570.204C81.1722 586.979 84.7581 600.345 87.1612 608.006C92.8172 626.125 100.413 638.849 103.477 643.75C109.526 653.413 115.405 662.777 126.059 671.622C142.771 685.468 155.973 685.368 156.338 692.145C156.733 699.354 141.907 700.258 129.36 714.014C111.627 733.468 113.981 761.625 114.423 766.776C116.32 789.408 127.731 804.433 134.399 813.176C146.202 828.706 159.217 836.842 163.158 839.205C182.262 850.645 200.035 852.322 212.711 853.506C234.202 855.522 250.603 851.923 263.408 849.149C273.629 846.933 281.717 845.14 291.504 840.199C309.091 831.363 324.459 816.325 322.084 812.072C320.151 808.599 308.039 815.29 284.175 817.763C274.775 818.744 257.264 819.711 237.767 815.791C218.013 811.817 197.594 807.699 184.852 790.405C175.289 777.428 168.857 755.418 178.559 741.449C184.834 732.405 195.344 729.63 208.742 727.414C228.061 724.238 241.379 725.942 265.823 728.283C307.426 732.27 300.716 730.362 323.174 733.178C348.954 736.414 367.95 740.194 384.052 743.431C409.461 748.555 421.413 751.999 426.148 753.413C445.422 759.164 457.13 764.341 460.951 766.056C466.304 768.476 470.257 770.495 472.309 771.549C503.367 787.573 519.57 804.894 522.6 802.29L522.594 802.361Z" fill="#74BDFF"/>
</svg>
