<svg width="152" height="49" viewBox="0 0 152 49" fill="none" xmlns="http://www.w3.org/2000/svg">
<rect x="3.83087" width="149" height="30" rx="15" transform="rotate(7.33644 3.83087 0)" fill="#ED9AB1"/>
<path d="M16.1863 21.9252C15.3531 21.8179 14.653 21.5913 14.0859 21.2454C13.5187 20.8995 13.1083 20.4326 12.8547 19.8447C12.6114 19.2488 12.5429 18.5389 12.6489 17.715L13.4212 11.7165L15.2263 11.9489L14.4612 17.8919C14.367 18.6232 14.4853 19.203 14.8159 19.6314C15.1571 20.0518 15.6794 20.3072 16.3829 20.3978C17.0864 20.4884 17.6564 20.3736 18.0929 20.0533C18.5398 19.7251 18.8103 19.1953 18.9045 18.464L19.6697 12.521L21.4748 12.7534L20.7024 18.7519C20.5964 19.5758 20.3456 20.2446 19.9501 20.7583C19.5558 21.2627 19.0405 21.6104 18.4042 21.8014C17.768 21.9924 17.0286 22.0337 16.1863 21.9252ZM21.3958 22.4265L25.469 17.8694L22.9415 12.9423L25.1493 13.2265L26.8505 16.678L26.9199 16.687L29.4399 13.7789L31.5088 14.0453L27.8174 18.1576L30.6157 23.6136L28.4218 23.3311L26.4517 19.3369L26.3684 19.3261L23.4786 22.6947L21.3958 22.4265ZM30.6745 24.3128L34.992 13.8021L36.2139 13.9594L31.8964 24.4701L30.6745 24.3128ZM39.8891 24.9769C39.0559 24.8697 38.3558 24.6431 37.7887 24.2971C37.2215 23.9512 36.8111 23.4843 36.5574 22.8965C36.3142 22.3005 36.2456 21.5906 36.3517 20.7668L37.124 14.7683L38.9291 15.0007L38.164 20.9436C38.0698 21.6749 38.1881 22.2548 38.5187 22.6832C38.8599 23.1035 39.3822 23.3589 40.0857 23.4495C40.7892 23.5401 41.3592 23.4253 41.7957 23.1051C42.2426 22.7768 42.5131 22.247 42.6073 21.5157L43.3724 15.5727L45.1775 15.8051L44.4052 21.8036C44.2992 22.6275 44.0484 23.2963 43.6529 23.81C43.2586 24.3144 42.7433 24.6621 42.107 24.8531C41.4708 25.0441 40.7314 25.0854 39.8891 24.9769ZM46.0011 25.5945L47.2275 16.0691L49.0326 16.3015L47.8062 25.8269L46.0011 25.5945ZM56.8716 27.1634C55.8997 27.0383 55.0886 26.7598 54.4384 26.3279C53.7975 25.8972 53.3384 25.297 53.0611 24.5272C52.7942 23.7495 52.7347 22.7866 52.8825 21.6388C53.0982 19.9633 53.6652 18.7753 54.5835 18.0748C55.5018 17.3744 56.6876 17.1177 58.1409 17.3048C58.9278 17.4061 59.6186 17.6315 60.2136 17.981C60.8177 18.3317 61.2698 18.8039 61.5697 19.3978C61.8802 19.9835 61.9817 20.693 61.8745 21.5261L60.0277 21.2883C60.0873 20.8255 60.0355 20.4236 59.8724 20.0826C59.7197 19.7336 59.4782 19.4531 59.1479 19.2412C58.8176 19.0293 58.4256 18.8942 57.9721 18.8358C57.3426 18.7547 56.8035 18.8123 56.3547 19.0087C55.9072 19.1957 55.5506 19.5168 55.285 19.9719C55.0286 20.4283 54.8545 21.0128 54.7628 21.7256L54.7234 22.0311C54.6305 22.7531 54.6502 23.3673 54.7826 23.8737C54.9243 24.3813 55.1833 24.7817 55.5596 25.0748C55.9452 25.3691 56.4573 25.5574 57.0961 25.6396C57.5774 25.7016 58.0087 25.6771 58.39 25.5662C58.7725 25.4461 59.0812 25.2412 59.3161 24.9515C59.5615 24.6537 59.714 24.2734 59.7735 23.8105L61.5509 24.0394C61.4436 24.8725 61.1697 25.5383 60.7291 26.0368C60.2897 26.526 59.7333 26.8637 59.0601 27.0499C58.3972 27.2281 57.6677 27.2659 56.8716 27.1634ZM64.4073 28.1336C64.2036 28.1074 63.9712 28.0492 63.7099 27.9591C63.4566 27.8795 63.214 27.7541 62.9819 27.5831C62.7591 27.4133 62.5863 27.184 62.4635 26.8953C62.3419 26.5973 62.3097 26.2262 62.3669 25.7818C62.4313 25.282 62.5954 24.8843 62.8593 24.5889C63.1243 24.2843 63.4678 24.065 63.8897 23.9311C64.322 23.7892 64.8207 23.7169 65.3856 23.7144C65.961 23.7038 66.582 23.7414 67.2485 23.8272L67.3253 23.2301C67.3527 23.0172 67.3448 22.8233 67.3014 22.6483C67.2581 22.4733 67.1544 22.3282 66.9905 22.213C66.837 22.0897 66.5889 22.0061 66.2464 21.962C65.9039 21.9179 65.6301 21.9249 65.425 21.9832C65.2199 22.0415 65.0725 22.1261 64.983 22.2369C64.8934 22.3477 64.8403 22.4679 64.8236 22.5975L64.7986 22.7919L63.1601 22.5809C63.1568 22.5334 63.1582 22.4866 63.1641 22.4403C63.1701 22.394 63.1772 22.3384 63.1856 22.2736C63.2392 21.8571 63.4107 21.5122 63.6999 21.2389C63.9892 20.9656 64.3661 20.7788 64.8307 20.6787C65.2965 20.5692 65.821 20.5521 66.4042 20.6272C67.0707 20.713 67.6049 20.8759 68.0069 21.1158C68.4181 21.357 68.7082 21.6625 68.877 22.0324C69.0458 22.4024 69.0986 22.8326 69.0354 23.3232L68.5921 26.7668C68.5694 26.9427 68.6043 27.0742 68.6966 27.1614C68.7888 27.2486 68.8952 27.2999 69.0155 27.3154L69.4598 27.3726L69.3097 28.539C69.2123 28.5641 69.0727 28.5884 68.8909 28.6121C68.7079 28.645 68.4868 28.6447 68.2276 28.6114C67.9869 28.5804 67.7747 28.5107 67.591 28.4024C67.4154 28.3045 67.2724 28.1731 67.1618 28.0083C67.0513 27.8435 66.9814 27.6557 66.9521 27.4449L66.8688 27.4342C66.6864 27.6084 66.4739 27.7598 66.2315 27.8886C65.9995 28.0093 65.7301 28.0922 65.4231 28.1374C65.1254 28.1837 64.7868 28.1825 64.4073 28.1336ZM65.0998 26.8112C65.3775 26.847 65.6282 26.8369 65.8518 26.781C66.0847 26.7263 66.2801 26.6338 66.4381 26.5036C66.6052 26.3746 66.7396 26.2084 66.841 26.005C66.9518 25.8028 67.0232 25.5767 67.0554 25.3268L67.0983 24.9935C66.5892 24.928 66.1129 24.8996 65.6695 24.9084C65.2353 24.9184 64.8773 24.9946 64.5955 25.1371C64.3229 25.2808 64.1657 25.5147 64.124 25.8387C64.1026 26.0053 64.1205 26.1582 64.1779 26.2973C64.2457 26.4284 64.3535 26.5411 64.5014 26.6354C64.6597 26.7216 64.8591 26.7802 65.0998 26.8112ZM73.0949 29.2521C72.5672 29.1842 72.1115 29.0691 71.7278 28.9068C71.3452 28.7352 71.0328 28.5303 70.7906 28.292C70.5484 28.0538 70.3751 27.7916 70.2708 27.5052C70.177 27.2108 70.1509 26.9016 70.1926 26.5777C70.1986 26.5314 70.204 26.4897 70.2087 26.4527C70.2228 26.4168 70.231 26.3897 70.2333 26.3712L71.8996 26.5857C71.8972 26.6042 71.8948 26.6227 71.8924 26.6412C71.8901 26.6597 71.8877 26.6783 71.8853 26.6968C71.8624 26.9479 71.9148 27.1617 72.0427 27.3381C72.1717 27.5053 72.3524 27.6368 72.5847 27.7326C72.8171 27.8284 73.0675 27.8935 73.3359 27.9281C73.5766 27.9591 73.8064 27.9651 74.0252 27.9463C74.2546 27.9193 74.4458 27.8593 74.599 27.766C74.7626 27.6648 74.8563 27.5216 74.8801 27.3364C74.9111 27.0958 74.8424 26.8987 74.6739 26.7453C74.5055 26.5918 74.2739 26.4538 73.9791 26.3311C73.6936 26.2097 73.3856 26.0806 73.055 25.944C72.7602 25.8213 72.4667 25.6894 72.1743 25.5483C71.8819 25.4071 71.6209 25.2418 71.3912 25.0522C71.1708 24.8639 70.998 24.6346 70.8728 24.3644C70.7569 24.0954 70.7228 23.7757 70.7704 23.4055C70.8169 23.0444 70.9361 22.7398 71.1281 22.4917C71.32 22.2435 71.5661 22.0493 71.8665 21.9092C72.168 21.7598 72.5145 21.6632 72.906 21.6195C73.2974 21.5758 73.7153 21.5826 74.1597 21.6398C74.5947 21.6958 74.9822 21.7928 75.322 21.9306C75.6711 22.0697 75.964 22.2438 76.2005 22.4531C76.4475 22.6543 76.6243 22.8888 76.731 23.1566C76.8481 23.4163 76.8876 23.6943 76.8495 23.9905C76.8412 24.0553 76.8282 24.1195 76.8106 24.1831C76.8022 24.2479 76.7975 24.285 76.7963 24.2942L75.1439 24.0815L75.1564 23.9843C75.1791 23.8084 75.1426 23.6531 75.047 23.5185C74.9619 23.3758 74.8222 23.2543 74.6281 23.154C74.4433 23.0549 74.2027 22.9863 73.9065 22.9482C73.6843 22.9196 73.4876 22.9131 73.3162 22.9286C73.1448 22.9442 72.9994 22.9773 72.8799 23.0277C72.7698 23.0794 72.6816 23.1434 72.6153 23.2195C72.549 23.2957 72.5093 23.3847 72.4962 23.4865C72.4736 23.6624 72.5251 23.8102 72.6509 23.9299C72.7766 24.0496 72.9504 24.1614 73.1723 24.2652C73.4035 24.3703 73.6525 24.4823 73.9195 24.6014C74.2408 24.7369 74.5708 24.8781 74.9095 25.0253C75.2493 25.1631 75.5578 25.3252 75.835 25.5114C76.1214 25.6989 76.3399 25.9387 76.4905 26.231C76.641 26.5233 76.6877 26.8916 76.6305 27.3359C76.5757 27.7618 76.4453 28.1167 76.2393 28.4007C76.0438 28.6767 75.7861 28.8882 75.466 29.0352C75.1564 29.1741 74.7972 29.2596 74.3884 29.2917C73.9889 29.3249 73.5577 29.3117 73.0949 29.2521ZM80.8987 30.2569C80.1211 30.1568 79.4904 29.9391 79.0066 29.6039C78.5239 29.2595 78.1894 28.7882 78.0029 28.1902C77.8164 27.5921 77.7792 26.858 77.8912 25.9879C78.0044 25.1085 78.2264 24.4078 78.5571 23.8857C78.889 23.3544 79.3314 22.9879 79.8843 22.7862C80.4385 22.5752 81.1044 22.5198 81.8819 22.6199C82.5855 22.7105 83.156 22.9204 83.5935 23.2496C84.0415 23.5708 84.3507 24.02 84.5211 24.5971C84.6914 25.1743 84.7206 25.8979 84.6086 26.7681L84.5442 27.2679L79.5732 26.6279C79.5333 27.0839 79.5533 27.477 79.6331 27.8072C79.7141 28.1282 79.8695 28.3835 80.0992 28.573C80.3393 28.7545 80.6676 28.872 81.0842 28.9257C81.2971 28.9531 81.4997 28.9509 81.692 28.9192C81.8843 28.8875 82.057 28.8251 82.2102 28.7319C82.3645 28.6294 82.49 28.495 82.5867 28.3287C82.6927 28.1635 82.7606 27.9652 82.7904 27.7338L84.4566 27.9483C84.397 28.4112 84.2619 28.8031 84.0511 29.1242C83.8497 29.4464 83.5865 29.6995 83.2617 29.8836C82.9461 30.0688 82.5868 30.1919 82.1837 30.2529C81.7806 30.314 81.3523 30.3153 80.8987 30.2569ZM79.7547 25.4374L82.9345 25.8467C82.9738 25.5413 82.9702 25.2773 82.9235 25.0549C82.8861 24.8336 82.8116 24.6452 82.6999 24.4897C82.5974 24.3353 82.4618 24.2191 82.2931 24.1409C82.1255 24.0534 81.9307 23.9954 81.7085 23.9668C81.3475 23.9203 81.0343 23.9412 80.7688 24.0293C80.5127 24.1187 80.3037 24.28 80.1419 24.5132C79.9801 24.7465 79.8511 25.0545 79.7547 25.4374ZM91.573 31.6312C90.7769 31.5287 90.1277 31.3087 89.6253 30.9711C89.1242 30.6242 88.7757 30.1512 88.58 29.552C88.3842 28.9527 88.3424 28.218 88.4544 27.3479C88.5676 26.4685 88.7942 25.7684 89.1342 25.2475C89.4753 24.7174 89.9316 24.3527 90.5031 24.1534C91.0757 23.9448 91.7601 23.8917 92.5562 23.9942C93.3616 24.0979 94.0102 24.3226 94.5021 24.6682C95.0044 25.0058 95.3535 25.4742 95.5492 26.0734C95.7462 26.6634 95.788 27.3981 95.6748 28.2775C95.5628 29.1477 95.3362 29.8478 94.995 30.3779C94.6539 30.908 94.197 31.2774 93.6243 31.4859C93.0621 31.6865 92.3783 31.7349 91.573 31.6312ZM91.7517 30.2427C92.1961 30.2999 92.5632 30.2624 92.8531 30.1304C93.1534 29.9902 93.3858 29.7567 93.5503 29.4297C93.7252 29.0946 93.846 28.6679 93.9127 28.1495L93.9377 27.9551C94.0045 27.4367 93.9951 26.9979 93.9096 26.6387C93.8346 26.2714 93.6689 25.9866 93.4127 25.7842C93.1668 25.5738 92.8218 25.44 92.3774 25.3828C91.9331 25.3256 91.5608 25.367 91.2604 25.5071C90.9705 25.6392 90.7381 25.8728 90.5632 26.2079C90.3988 26.5349 90.2832 26.9576 90.2165 27.476L90.1914 27.6704C90.1247 28.1887 90.1288 28.6316 90.2039 28.9988C90.2894 29.358 90.4551 29.6428 90.7009 29.8533C90.9571 30.0557 91.3074 30.1854 91.7517 30.2427ZM96.9911 32.1594L97.7526 26.2442L96.6973 26.1083L96.8761 24.7198L97.9314 24.8557L98.0512 23.9253C98.0929 23.6014 98.1831 23.3024 98.3219 23.0286C98.4711 22.7467 98.6919 22.5304 98.9842 22.3798C99.2765 22.2293 99.6633 22.185 100.145 22.2469C100.284 22.2648 100.421 22.2919 100.558 22.3283C100.703 22.3659 100.839 22.4116 100.963 22.4653C101.089 22.5097 101.196 22.5564 101.284 22.6054L101.132 23.7856L100.438 23.6963C100.234 23.67 100.07 23.7053 99.9444 23.8021C99.8295 23.8908 99.7589 24.037 99.7327 24.2406L99.6254 25.0738L100.945 25.2436L100.766 26.6321L99.4467 26.4623L98.6851 32.3775L96.9911 32.1594ZM106.507 33.5539C105.979 33.486 105.523 33.3708 105.14 33.2085C104.757 33.0369 104.445 32.832 104.202 32.5938C103.96 32.3556 103.787 32.0933 103.683 31.807C103.589 31.5126 103.563 31.2034 103.604 30.8794C103.61 30.8331 103.616 30.7914 103.62 30.7544C103.634 30.7186 103.643 30.6914 103.645 30.6729L105.311 30.8874C105.309 30.9059 105.307 30.9245 105.304 30.943C105.302 30.9615 105.299 30.98 105.297 30.9985C105.274 31.2496 105.327 31.4634 105.454 31.6399C105.583 31.807 105.764 31.9385 105.996 32.0343C106.229 32.1301 106.479 32.1953 106.748 32.2298C106.988 32.2608 107.218 32.2669 107.437 32.248C107.666 32.2211 107.858 32.161 108.011 32.0678C108.174 31.9665 108.268 31.8233 108.292 31.6382C108.323 31.3975 108.254 31.2004 108.086 31.047C107.917 30.8936 107.686 30.7555 107.391 30.6329C107.105 30.5114 106.797 30.3824 106.467 30.2457C106.172 30.1231 105.878 29.9912 105.586 29.85C105.294 29.7089 105.033 29.5435 104.803 29.354C104.583 29.1656 104.41 28.9363 104.285 28.6661C104.169 28.3971 104.134 28.0775 104.182 27.7072C104.229 27.3462 104.348 27.0416 104.54 26.7934C104.732 26.5452 104.978 26.351 105.278 26.2109C105.58 26.0615 105.926 25.965 106.318 25.9213C106.709 25.8776 107.127 25.8843 107.571 25.9415C108.006 25.9976 108.394 26.0945 108.734 26.2323C109.083 26.3714 109.376 26.5455 109.612 26.7548C109.859 26.956 110.036 27.1905 110.143 27.4583C110.26 27.7181 110.299 27.996 110.261 28.2923C110.253 28.3571 110.24 28.4213 110.222 28.4849C110.214 28.5497 110.209 28.5867 110.208 28.596L108.556 28.3832L108.568 28.286C108.591 28.1101 108.554 27.9549 108.459 27.8202C108.374 27.6775 108.234 27.556 108.04 27.4558C107.855 27.3567 107.614 27.2881 107.318 27.2499C107.096 27.2213 106.899 27.2148 106.728 27.2304C106.556 27.246 106.411 27.279 106.292 27.3295C106.181 27.3812 106.093 27.4451 106.027 27.5213C105.961 27.5974 105.921 27.6864 105.908 27.7882C105.885 27.9641 105.937 28.1119 106.063 28.2316C106.188 28.3513 106.362 28.4631 106.584 28.567C106.815 28.672 107.064 28.784 107.331 28.9031C107.653 29.0386 107.983 29.1799 108.321 29.327C108.661 29.4649 108.97 29.6269 109.247 29.8132C109.533 30.0006 109.752 30.2405 109.902 30.5328C110.053 30.825 110.099 31.1934 110.042 31.6377C109.987 32.0635 109.857 32.4184 109.651 32.7025C109.456 32.9784 109.198 33.1899 108.878 33.3369C108.568 33.4758 108.209 33.5613 107.8 33.5934C107.401 33.6266 106.969 33.6135 106.507 33.5539ZM113.102 34.4031C112.649 34.3447 112.304 34.2109 112.067 34.0016C111.832 33.7831 111.676 33.5278 111.601 33.2358C111.536 32.9358 111.523 32.6376 111.561 32.3414L112.108 28.0925L111.233 27.9798L111.412 26.5913L112.328 26.7093L112.897 24.7075L114.244 24.8809L113.981 26.922L115.244 27.0847L115.066 28.4732L113.802 28.3106L113.276 32.3929C113.251 32.5873 113.283 32.7466 113.37 32.8708C113.459 32.9857 113.605 33.0563 113.809 33.0825L114.461 33.1665L114.311 34.3329C114.214 34.358 114.094 34.3755 113.952 34.3854C113.817 34.4057 113.675 34.4156 113.524 34.4151C113.373 34.4238 113.232 34.4198 113.102 34.4031ZM117.857 35.0153C117.154 34.9247 116.604 34.6611 116.209 34.2243C115.824 33.7795 115.691 33.0943 115.81 32.1686L116.445 27.2393L118.139 27.4574L117.544 32.0812C117.51 32.3404 117.51 32.5615 117.543 32.7445C117.586 32.9195 117.656 33.0697 117.753 33.1951C117.86 33.3124 117.994 33.4049 118.155 33.4727C118.316 33.5404 118.498 33.5874 118.701 33.6136C119.007 33.6529 119.289 33.614 119.549 33.4969C119.818 33.381 120.039 33.2023 120.211 32.961C120.394 32.7116 120.507 32.4203 120.549 32.0871L121.096 27.8382L122.79 28.0563L121.85 35.36L120.448 35.1794L120.434 34.1896L120.337 34.177C120.142 34.3778 119.917 34.5512 119.663 34.6972C119.419 34.8353 119.143 34.9315 118.835 34.9859C118.535 35.0508 118.209 35.0606 117.857 35.0153ZM126.175 36.0862C125.582 36.0099 125.086 35.8095 124.685 35.4851C124.285 35.1606 124.001 34.7005 123.833 34.1049C123.674 33.5104 123.652 32.7688 123.766 31.8802C123.88 31.0008 124.092 30.2988 124.404 29.7744C124.718 29.2407 125.105 28.8671 125.565 28.6534C126.025 28.4398 126.524 28.3676 127.061 28.4367C127.394 28.4796 127.695 28.556 127.963 28.6658C128.231 28.7756 128.462 28.9229 128.654 29.1077C128.848 29.2832 129.005 29.4916 129.124 29.7328L129.208 29.7435L129.669 26.1611L131.363 26.3792L130.07 36.4183L128.668 36.2378L128.654 35.2479L128.557 35.2354C128.277 35.5851 127.925 35.8316 127.502 35.9747C127.089 36.1098 126.647 36.147 126.175 36.0862ZM126.89 34.6961C127.279 34.7462 127.605 34.6988 127.868 34.5539C128.132 34.409 128.34 34.1771 128.494 33.8581C128.658 33.5404 128.77 33.1408 128.832 32.6594L128.855 32.4789C128.902 32.1179 128.911 31.7898 128.883 31.4944C128.856 31.1991 128.785 30.9453 128.671 30.7331C128.566 30.522 128.414 30.3518 128.214 30.2226C128.024 30.0946 127.785 30.0121 127.498 29.9751C127.082 29.9215 126.738 29.9619 126.466 30.0963C126.205 30.2227 125.997 30.45 125.842 30.7782C125.697 31.0983 125.592 31.5176 125.525 32.036L125.5 32.2304C125.434 32.7395 125.431 33.1673 125.49 33.5136C125.558 33.8612 125.702 34.1338 125.921 34.3314C126.151 34.5209 126.474 34.6425 126.89 34.6961ZM132.519 39.3027C132.177 39.2586 131.903 39.195 131.697 39.1121C131.49 39.0384 131.373 38.9951 131.347 38.9823L131.502 37.7743L132.28 37.8744C132.474 37.8994 132.675 37.8735 132.883 37.7967C133.09 37.7199 133.284 37.6037 133.464 37.4481C133.644 37.2925 133.785 37.113 133.886 36.9096L131.98 29.2394L133.757 29.4682L134.667 33.1425C134.712 33.3082 134.751 33.5156 134.785 33.7646C134.828 34.0149 134.87 34.2743 134.911 34.5431C134.953 34.8025 134.983 35.0371 135.004 35.2467L135.073 35.2556C135.128 35.1215 135.19 34.9695 135.259 34.7996C135.328 34.6297 135.397 34.4551 135.467 34.2759C135.547 34.098 135.625 33.9246 135.704 33.7559C135.782 33.5871 135.848 33.4404 135.901 33.3155L137.465 29.9455L139.186 30.1672L135.851 36.7814C135.662 37.1523 135.457 37.5023 135.235 37.8314C135.023 38.1618 134.785 38.4462 134.519 38.6849C134.262 38.9247 133.967 39.0985 133.633 39.206C133.307 39.3241 132.936 39.3563 132.519 39.3027Z" fill="white"/>
</svg>
