<svg width="19" height="19" viewBox="0 0 19 19" fill="none" xmlns="http://www.w3.org/2000/svg">
<path d="M9.80404 5.76716V8.90086L12.4079 10.463C12.539 10.5418 12.6335 10.6694 12.6706 10.8179C12.7076 10.9663 12.6842 11.1234 12.6054 11.2546C12.5266 11.3857 12.399 11.4802 12.2505 11.5173C12.1021 11.5543 11.945 11.5309 11.8139 11.4521L8.93032 9.72195C8.84498 9.67068 8.77436 9.59818 8.72535 9.51152C8.67633 9.42486 8.65059 9.32698 8.65062 9.22742V5.76716C8.65062 5.61421 8.71138 5.46752 8.81953 5.35937C8.92769 5.25121 9.07438 5.19045 9.22733 5.19045C9.38028 5.19045 9.52697 5.25121 9.63513 5.35937C9.74328 5.46752 9.80404 5.61421 9.80404 5.76716ZM9.22733 2.30691C8.31757 2.30464 7.41639 2.48283 6.57595 2.83115C5.7355 3.17948 4.97249 3.69103 4.33106 4.3362C3.80698 4.86678 3.34129 5.37716 2.88352 5.91134V4.61374C2.88352 4.46079 2.82276 4.3141 2.71461 4.20595C2.60645 4.0978 2.45977 4.03704 2.30681 4.03704C2.15386 4.03704 2.00717 4.0978 1.89902 4.20595C1.79086 4.3141 1.7301 4.46079 1.7301 4.61374V7.49729C1.7301 7.65025 1.79086 7.79693 1.89902 7.90509C2.00717 8.01324 2.15386 8.074 2.30681 8.074H5.19036C5.34331 8.074 5.49 8.01324 5.59816 7.90509C5.70631 7.79693 5.76707 7.65025 5.76707 7.49729C5.76707 7.34434 5.70631 7.19765 5.59816 7.0895C5.49 6.98134 5.34331 6.92058 5.19036 6.92058H3.53232C4.04775 6.3136 4.56103 5.74193 5.14639 5.14936C5.94791 4.34785 6.96786 3.8003 8.07879 3.57515C9.18972 3.34999 10.3424 3.45721 11.3927 3.8834C12.4431 4.3096 13.3445 5.03587 13.9845 5.97147C14.6244 6.90707 14.9744 8.01051 14.9908 9.14391C15.0072 10.2773 14.6893 11.3904 14.0766 12.3441C13.464 13.2978 12.584 14.0499 11.5464 14.5063C10.5088 14.9627 9.35975 15.1032 8.24277 14.9103C7.12578 14.7174 6.09043 14.1995 5.26605 13.4215C5.21096 13.3695 5.14614 13.3288 5.07532 13.3018C5.00449 13.2747 4.92903 13.2619 4.85325 13.2641C4.77748 13.2662 4.70286 13.2833 4.63368 13.3142C4.56449 13.3452 4.50208 13.3895 4.45001 13.4446C4.39794 13.4997 4.35724 13.5645 4.33022 13.6353C4.3032 13.7062 4.29039 13.7816 4.29254 13.8574C4.29468 13.9332 4.31172 14.0078 4.3427 14.077C4.37368 14.1462 4.41798 14.2086 4.47308 14.2607C5.29449 15.0358 6.29314 15.5981 7.38186 15.8986C8.47058 16.199 9.61629 16.2284 10.719 15.9843C11.8217 15.7401 12.8479 15.2298 13.708 14.4978C14.5681 13.7658 15.236 12.8345 15.6534 11.785C16.0708 10.7355 16.225 9.59987 16.1025 8.47711C15.9801 7.35435 15.5847 6.27863 14.9509 5.34381C14.3171 4.409 13.4642 3.6435 12.4665 3.11414C11.4688 2.58478 10.3567 2.30764 9.22733 2.30691Z" fill="white"/>
</svg>
