<svg width="1920" height="244" viewBox="0 0 1920 244" fill="none" xmlns="http://www.w3.org/2000/svg">
<path fill-rule="evenodd" clip-rule="evenodd" d="M1905.37 83.9662C1825.5 83.9662 1768.69 138.615 1768.69 223.531C1768.69 308.447 1825.5 363.216 1905.37 363.216C1985.36 363.216 2042.06 308.447 2042.06 223.531C2042.06 138.615 1985.36 83.9662 1905.37 83.9662ZM1905.49 291.272C1871.98 291.272 1853.01 267.49 1853.01 223.531C1853.01 179.572 1871.98 155.911 1905.49 155.911C1939 155.911 1957.74 179.572 1957.74 223.531C1957.74 267.49 1939 291.272 1905.49 291.272ZM1803.44 118.277C1828.7 92.9192 1864.24 78.8262 1905.37 78.8262C1946.57 78.8262 1982.1 92.9182 2007.35 118.279C2032.61 143.643 2047.2 179.9 2047.2 223.531C2047.2 267.162 2032.61 303.448 2007.36 328.842C1982.11 354.232 1946.57 368.356 1905.37 368.356C1864.24 368.356 1828.7 354.231 1803.44 328.843C1778.17 303.45 1763.55 267.165 1763.55 223.531C1763.55 179.897 1778.17 143.64 1803.44 118.277ZM1870.73 270.723C1878.55 280.731 1890.07 286.132 1905.49 286.132C1920.91 286.132 1932.37 280.734 1940.12 270.736C1948.03 260.534 1952.6 244.886 1952.6 223.531C1952.6 202.176 1948.03 186.561 1940.13 176.391C1932.37 166.424 1920.92 161.051 1905.49 161.051C1890.06 161.051 1878.54 166.427 1870.73 176.405C1862.77 186.577 1858.15 202.189 1858.15 223.531C1858.15 244.873 1862.77 260.519 1870.73 270.723Z" fill="#333333"/>
<path fill-rule="evenodd" clip-rule="evenodd" d="M1697.84 363.218C1715.73 363.218 1736.15 360.095 1759.57 353.969V291.754C1757.8 292.192 1756.09 292.607 1754.43 292.999C1740.16 296.361 1729.66 297.999 1721.38 297.999C1698.8 297.999 1689.19 285.748 1689.19 257.763V156.513H1759.57V91.1741L1689.19 91.1741V30.1595L1605.59 30.1595V91.1741H1573.88V156.513H1605.59V257.643C1605.59 327.666 1636.94 363.218 1697.84 363.218ZM1600.45 161.653V257.643C1600.45 293.318 1608.43 321.136 1625.01 340.075C1641.71 359.139 1666.37 368.358 1697.84 368.358C1716.31 368.358 1737.18 365.138 1760.87 358.942L1764.71 357.938V285.182L1758.33 286.765C1741.47 290.95 1729.97 292.859 1721.38 292.859C1711.01 292.859 1704.74 290.083 1700.83 285.174C1696.7 279.986 1694.33 271.37 1694.33 257.763V161.653H1764.71V86.0341H1694.33V25.0195L1600.45 25.0195V86.0341H1568.74V161.653H1600.45Z" fill="#333333"/>
<path fill-rule="evenodd" clip-rule="evenodd" d="M1433.86 291.272C1400.47 291.272 1381.49 267.49 1381.49 223.531C1381.49 179.572 1400.47 155.911 1433.86 155.911C1461.24 155.911 1475.17 172.485 1480.1 198.188L1563.33 198.188C1563.12 196.461 1562.88 194.747 1562.62 193.048C1552.37 127.557 1502.93 83.9662 1433.86 83.9662C1353.99 83.9662 1297.18 138.615 1297.18 223.531C1297.18 308.447 1353.99 363.216 1433.86 363.216C1502.81 363.216 1552.36 319.516 1562.61 254.134C1562.88 252.435 1563.12 250.722 1563.33 248.994L1480.1 248.994C1475.17 274.697 1461.24 291.272 1433.86 291.272ZM1475.85 243.854L1569.15 243.854L1568.43 249.623C1559.71 320.385 1507.23 368.356 1433.86 368.356C1392.72 368.356 1357.18 354.231 1331.92 328.843C1306.65 303.45 1292.04 267.165 1292.04 223.531C1292.04 179.897 1306.65 143.64 1331.92 118.277C1357.19 92.9192 1392.72 78.8262 1433.86 78.8262C1507.35 78.8262 1559.71 126.676 1568.44 197.561L1569.14 203.328L1475.85 203.328L1475.05 199.156C1472.71 186.921 1468.33 177.462 1461.81 171.085C1455.4 164.816 1446.43 161.051 1433.86 161.051C1418.49 161.051 1407 166.423 1399.2 176.401C1391.25 186.575 1386.63 202.189 1386.63 223.531C1386.63 244.873 1391.25 260.521 1399.21 270.726C1407.01 280.736 1418.5 286.132 1433.86 286.132C1446.43 286.132 1455.4 282.367 1461.81 276.097C1468.33 269.721 1472.71 260.262 1475.05 248.027L1475.85 243.854Z" fill="#333333"/>
<path fill-rule="evenodd" clip-rule="evenodd" d="M1016.03 185.482C1015.96 187.178 1015.93 188.891 1015.93 190.622H1099.16C1099.16 163.237 1113.22 146.903 1144.56 146.903C1175.79 146.903 1193.09 166 1193.09 198.909V205.035L1121.5 205.035C1049.92 205.035 1008.12 234.821 1008.12 285.867C1008.12 332.228 1042.95 363.216 1095.2 363.216C1138.96 363.216 1172.77 341.537 1187.95 305.468C1190.01 300.556 1191.73 295.378 1193.09 289.951V356.01H1276.68V198.909C1276.68 126.244 1228.76 83.9662 1146.61 83.9662C1067.9 83.9662 1018.57 122.683 1016.03 185.482ZM1187.95 317.262V361.15H1281.82V198.909C1281.82 161.391 1269.41 131.14 1245.85 110.336C1222.39 89.6102 1188.51 78.8262 1146.61 78.8262C1105.38 78.8262 1071.44 89.237 1047.7 108.631C1023.84 128.124 1010.79 156.3 1010.79 190.622V195.762H1104.3V190.622C1104.3 177.754 1107.6 168.333 1113.76 162.109C1119.91 155.896 1129.74 152.042 1144.56 152.042C1159.11 152.042 1169.73 156.458 1176.76 164.056C1183.85 171.714 1187.95 183.309 1187.95 198.909V199.895L1121.5 199.895C1085.1 199.895 1055.56 207.454 1034.98 222.123C1014.18 236.951 1002.98 258.744 1002.98 285.867C1002.98 310.414 1012.24 331.186 1028.65 345.769C1045.01 360.304 1068.08 368.356 1095.2 368.356C1136.86 368.356 1170.23 349.406 1187.95 317.262ZM1132.79 250.195H1193.09V258.242C1193.09 284.185 1166.3 304.123 1131.23 304.123C1106.37 304.123 1092.08 294.034 1092.08 276.619C1092.08 259.323 1106.13 250.195 1132.79 250.195ZM1187.95 255.335H1132.79C1119.9 255.335 1110.88 257.567 1105.23 261.232C1099.93 264.677 1097.22 269.616 1097.22 276.619C1097.22 283.715 1100.03 288.996 1105.29 292.698C1110.78 296.564 1119.39 298.983 1131.23 298.983C1164.98 298.983 1187.95 280.034 1187.95 258.242V255.335Z" fill="#333333"/>
<path fill-rule="evenodd" clip-rule="evenodd" d="M932.15 363.218C950.046 363.218 970.464 360.095 993.885 353.969V291.754C992.119 292.192 990.406 292.607 988.745 292.998C974.475 296.361 963.974 297.999 955.691 297.999C933.11 297.999 923.502 285.748 923.502 257.763V156.513H993.885V91.1741L923.502 91.1741V30.1595L839.907 30.1595V91.1741H808.199V156.513H839.907V257.643C839.907 327.666 871.255 363.218 932.15 363.218ZM834.767 161.653V257.643C834.767 293.318 842.74 321.136 859.326 340.075C876.021 359.139 900.688 368.358 932.15 368.358C950.621 368.358 971.496 365.138 995.185 358.942L999.025 357.938V285.182L992.647 286.765C975.787 290.95 964.282 292.859 955.691 292.859C945.324 292.859 939.059 290.083 935.149 285.174C931.018 279.986 928.642 271.37 928.642 257.763V161.653H999.025V86.0341H928.642V25.0195L834.767 25.0195V86.0341H803.059V161.653H834.767Z" fill="#333333"/>
<path fill-rule="evenodd" clip-rule="evenodd" d="M619.431 219.207C619.431 177.77 636.246 155.911 666.753 155.911C695.94 155.911 709.992 176.089 709.992 217.286V356.01H793.587V199.269C793.587 122.881 765.362 83.9662 709.872 83.9662C667.306 83.9662 638.242 106.803 624.571 150.825C622.504 157.482 620.788 164.624 619.431 172.245V91.1726L535.836 91.1726V356.01H619.431V219.207ZM624.571 135.845V86.0326L530.696 86.0326V361.15H624.571V219.207C624.571 199.065 628.676 184.514 635.758 175.112C642.662 165.945 652.863 161.051 666.753 161.051C680.008 161.051 689.091 165.533 695.112 174.104C701.379 183.025 704.852 197.103 704.852 217.286V361.15L798.727 361.15V199.269C798.727 160.588 791.606 130.492 776.698 109.953C761.575 89.1182 738.964 78.8262 709.872 78.8262C684.237 78.8262 662.853 86.7813 646.56 102.672C637.525 111.483 630.2 122.593 624.571 135.845Z" fill="#333333"/>
<path fill-rule="evenodd" clip-rule="evenodd" d="M377.756 83.9662C297.884 83.9662 241.074 138.615 241.074 223.531C241.074 308.447 297.884 363.216 377.756 363.216C457.748 363.216 514.438 308.447 514.438 223.531C514.438 138.615 457.748 83.9662 377.756 83.9662ZM377.876 291.272C344.366 291.272 325.389 267.49 325.389 223.531C325.389 179.572 344.366 155.911 377.876 155.911C411.386 155.911 430.123 179.572 430.123 223.531C430.123 267.49 411.386 291.272 377.876 291.272ZM275.822 118.277C301.086 92.9192 336.623 78.8262 377.756 78.8262C418.948 78.8262 454.486 92.9182 479.736 118.279C504.991 143.643 519.578 179.9 519.578 223.531C519.578 267.162 504.991 303.448 479.739 328.842C454.489 354.232 418.951 368.356 377.756 368.356C336.619 368.356 301.082 354.231 275.819 328.843C250.553 303.45 235.934 267.165 235.934 223.531C235.934 179.897 250.553 143.64 275.822 118.277ZM343.118 270.723C350.933 280.731 362.454 286.132 377.876 286.132C393.295 286.132 404.75 280.734 412.504 270.736C420.417 260.534 424.983 244.886 424.983 223.531C424.983 202.176 420.417 186.561 412.508 176.391C404.758 166.424 393.304 161.051 377.876 161.051C362.446 161.051 350.925 166.427 343.114 176.405C335.15 186.577 330.529 202.189 330.529 223.531C330.529 244.873 335.15 260.519 343.118 270.723Z" fill="#333333"/>
<path fill-rule="evenodd" clip-rule="evenodd" d="M129.128 210.344L227.308 210.344L226.531 216.165C220.275 263.017 201.599 301.131 172.847 327.546C144.072 353.983 105.58 368.357 60.3715 368.357C9.80412 368.357 -33.8863 350.285 -64.9267 318.016C-95.9574 285.758 -114 239.677 -114 184.256C-114 128.836 -95.9574 82.7549 -64.9267 50.4965C-33.8863 18.2283 9.80412 0.15625 60.3715 0.15625C105.58 0.15625 144.072 14.5304 172.847 40.9665C201.599 67.3822 220.275 105.496 226.531 152.348L227.308 158.168L129.128 158.168L128.44 153.833C124.635 129.828 116.892 112.621 105.749 101.437C94.719 90.3659 79.8236 84.6627 60.4916 84.6627C36.0395 84.6627 17.6673 93.1097 5.24381 109.22C-7.34868 125.55 -14.36 150.439 -14.36 184.256C-14.36 218.012 -7.34949 242.903 5.24512 259.249C17.6712 275.377 36.045 283.85 60.4916 283.85C79.8236 283.85 94.719 278.147 105.749 267.076C116.892 255.892 124.635 238.685 128.44 214.68L129.128 210.344ZM220.693 220.624C206.893 309.332 146.872 363.217 60.3715 363.217C-38.2368 363.217 -108.86 292.834 -108.86 184.256C-108.86 75.6792 -38.2368 5.29622 60.3715 5.29622C146.872 5.29622 206.893 59.1805 220.693 147.889C220.958 149.589 221.205 151.302 221.436 153.029L133.517 153.029C125.71 103.784 101.328 79.5227 60.4916 79.5227C8.96548 79.5227 -19.5 115.435 -19.5 184.256C-19.5 252.958 8.96548 288.99 60.4916 288.99C101.328 288.99 125.71 264.729 133.517 215.484L221.436 215.484C221.205 217.21 220.958 218.924 220.693 220.624Z" fill="#333333"/>
</svg>
