<svg width="279" height="671" viewBox="0 0 279 671" fill="none" xmlns="http://www.w3.org/2000/svg">
<path d="M318.81 361.501L226.261 316.176L128.345 348.302L142.852 246.277L82.041 163.08L183.556 145.35L243.888 61.8057L292.121 152.873L390.22 184.436L318.514 258.449L318.81 361.501Z" fill="#74BDFF" fill-opacity="0.6"/>
<path d="M401.344 511.796L303.853 545.188L257.332 637.142L195.447 554.741L93.6185 538.913L152.863 454.594L136.45 352.857L234.95 383.146L326.635 336.098L328.266 439.137L401.344 511.796Z" fill="#74BDFF" fill-opacity="0.6"/>
<path d="M173.152 510.608L143.946 399.393L45.4131 340.121L142.16 277.977L168.082 165.951L257.081 238.759L371.634 228.794L329.892 335.936L374.768 441.804L259.971 435.213L173.152 510.608Z" fill="#74BDFF"/>
</svg>
