<svg width="19" height="19" viewBox="0 0 19 19" fill="none" xmlns="http://www.w3.org/2000/svg">
<path d="M15.4025 5.93576L11.3655 1.89879C11.3119 1.84525 11.2483 1.8028 11.1783 1.77385C11.1083 1.74491 11.0332 1.73004 10.9575 1.7301H4.03696C3.73106 1.7301 3.43768 1.85162 3.22137 2.06793C3.00507 2.28424 2.88354 2.57762 2.88354 2.88352V15.5711C2.88354 15.877 3.00507 16.1704 3.22137 16.3867C3.43768 16.603 3.73106 16.7246 4.03696 16.7246H14.4177C14.7236 16.7246 15.017 16.603 15.2333 16.3867C15.4496 16.1704 15.5712 15.877 15.5712 15.5711V6.34378C15.5712 6.26802 15.5564 6.193 15.5274 6.12299C15.4985 6.05298 15.456 5.98936 15.4025 5.93576ZM11.5342 3.69885L13.6024 5.76707H11.5342V3.69885ZM14.4177 15.5711H4.03696V2.88352H10.3808V6.34378C10.3808 6.49673 10.4415 6.64342 10.5497 6.75158C10.6578 6.85973 10.8045 6.92049 10.9575 6.92049H14.4177V15.5711Z" fill="#333333"/>
</svg>
