<svg width="37" height="37" viewBox="0 0 37 37" fill="none" xmlns="http://www.w3.org/2000/svg">
<mask id="mask0_870_6657" style="mask-type:alpha" maskUnits="userSpaceOnUse" x="0" y="0" width="37" height="37">
<circle cx="18.5" cy="18.5" r="18.5" fill="#D9D9D9"/>
</mask>
<g mask="url(#mask0_870_6657)">
<ellipse cx="18.4045" cy="18.4547" rx="18.4045" ry="18.4547" fill="url(#paint0_linear_870_6657)"/>
<path d="M12.7661 3.46033V17.631H10.349V14.4031C9.83798 16.5962 8.4706 17.9194 6.59216 17.9194C4.02313 17.9194 2.19995 15.6118 2.19995 12.3519C2.19995 9.09196 4.01853 6.78894 6.59216 6.78894C8.4706 6.78894 9.83798 8.11215 10.349 10.3053V3.46033H12.7661ZM7.45772 8.87219C5.61151 8.87219 4.62626 10.0809 4.62626 12.3473C4.62626 14.6137 5.61151 15.827 7.45772 15.827C9.30392 15.827 10.3444 14.5405 10.3444 12.3473C10.3444 10.1542 9.2763 8.87219 7.45772 8.87219Z" fill="white"/>
<path d="M16.5507 5.90986H14.0553V3.46033H16.5507V5.90986ZM16.5092 17.631H14.0921V7.07281H16.5092V17.631Z" fill="white"/>
<path d="M20.2567 17.6308H17.8396V7.07263H20.2567V10.0945C20.7217 7.99292 22.0016 6.78418 23.8294 6.78418C25.6572 6.78418 26.9187 8.10281 27.2133 10.447C27.6093 8.13486 28.926 6.78418 30.8597 6.78418C33.065 6.78418 34.3173 8.55151 34.3173 11.61V17.6308H31.9002V11.8527C31.9002 9.89303 31.1866 8.91321 29.7363 8.91321C28.1894 8.91321 27.287 10.035 27.287 12.0083V17.6354H24.8699V11.8572C24.8699 9.8976 24.1563 8.91779 22.706 8.91779C21.1591 8.91779 20.2567 10.0395 20.2567 12.0129V17.64V17.6308Z" fill="white"/>
<path d="M7.54836 33.112H3.45081V28.8356H7.54836V33.112Z" fill="white"/>
<path d="M17.0199 18.684C21.8357 18.684 24.7086 21.2525 24.7086 25.593V35.0386H21.0622V30.8629C20.3164 33.7245 17.9453 35.469 14.6949 35.469C11.4445 35.469 9.05042 33.5689 9.05042 30.7164C9.05042 27.864 11.4813 25.9593 15.5006 25.9593H21.0622V25.593C21.0622 23.1893 19.5015 21.7058 16.9463 21.7058C14.3911 21.7058 13.1618 22.9191 13.1618 24.8055H9.52463C9.52463 21.0419 12.4021 18.684 17.0199 18.684ZM15.7124 28.505C13.7281 28.505 12.683 29.1826 12.683 30.4783C12.683 31.8382 13.8432 32.5936 15.9426 32.5936C18.9214 32.5936 21.0622 31.069 21.0622 28.9628V28.5096H15.7124V28.505Z" fill="white"/>
<path d="M30.2843 35.0385H26.6379V19.1143H30.2843V24.4208C30.9473 21.1288 32.8027 19.1143 36.0669 19.1143H36.9095V22.5436H35.7032C31.578 22.5436 30.2843 24.1186 30.2843 27.4518V35.0339V35.0385Z" fill="white"/>
<path d="M5.4544 20.7616L6.08975 22.1123L7.40189 21.3889L7.11644 22.854L8.60353 23.0371L7.50778 24.0582L8.60353 25.0746L7.11644 25.2577L7.40189 26.7229L6.08975 25.9995L5.4544 27.3547L4.81905 25.9995L3.50691 26.7229L3.79235 25.2577L2.30066 25.0746L3.39641 24.0582L2.30066 23.0371L3.79235 22.854L3.50691 21.3889L4.81905 22.1123L5.4544 20.7616Z" fill="white"/>
</g>
<defs>
<linearGradient id="paint0_linear_870_6657" x1="0" y1="18.4547" x2="36.809" y2="18.4547" gradientUnits="userSpaceOnUse">
<stop stop-color="#E46517"/>
<stop offset="0.04" stop-color="#E3651B"/>
<stop offset="0.3" stop-color="#E3653B"/>
<stop offset="0.55" stop-color="#E36652"/>
<stop offset="0.79" stop-color="#E36660"/>
<stop offset="1" stop-color="#E36765"/>
</linearGradient>
</defs>
</svg>
