<svg width="1083" height="110" viewBox="0 0 1083 110" fill="none" xmlns="http://www.w3.org/2000/svg">
<path d="M90.64 16.8V76H67.84V54.32L57.28 76H36.88L25.6 54.08V76H2.8V16.8H28.4L47.12 55.12L65.76 16.8H90.64ZM163.678 32.4L136.558 85.6C135.278 88.4267 132.824 90.5333 129.198 91.92C125.624 93.3067 121.944 94.16 118.158 94.48C114.424 94.8 110.424 94.96 106.158 94.96V78.72C109.998 78.72 112.478 78.5333 113.598 78.16C114.718 77.7867 115.118 77.2 114.798 76.4L92.2375 32.4H114.718L127.998 61.44L141.198 32.4H163.678ZM207.527 40.24C212.007 35.3333 218.941 32.4 228.328 31.44V46.72H217.127C214.141 46.72 211.821 47.8933 210.167 50.24C208.514 52.5867 207.687 55.6267 207.687 59.36V76H186.487V32.4H206.007L207.527 40.24ZM260.857 30.56C266.83 30.56 272.19 31.5733 276.937 33.6C281.684 35.6267 285.417 38.4533 288.137 42.08C290.857 45.6533 292.217 49.68 292.217 54.16C292.217 58.5867 290.857 62.6133 288.137 66.24C285.417 69.8133 281.657 72.6133 276.857 74.64C272.11 76.6667 266.777 77.68 260.857 77.68C255.15 77.68 249.79 76.6667 244.777 74.64C239.764 72.56 235.764 69.7333 232.777 66.16C229.79 62.5333 228.297 58.5333 228.297 54.16C228.297 49.7333 229.79 45.7333 232.777 42.16C235.764 38.5333 239.737 35.7067 244.697 33.68C249.71 31.6 255.097 30.56 260.857 30.56ZM260.857 64.8C262.67 64.8 264.35 64.3733 265.897 63.52C267.497 62.6667 268.777 61.44 269.737 59.84C270.697 58.24 271.177 56.3467 271.177 54.16C271.177 51.9733 270.697 50.08 269.737 48.48C268.777 46.88 267.497 45.6533 265.897 44.8C264.35 43.9467 262.67 43.52 260.857 43.52C259.097 43.52 257.337 43.9467 255.577 44.8C253.87 45.6533 252.457 46.9067 251.337 48.56C250.27 50.16 249.737 52.0267 249.737 54.16C249.737 56.2933 250.27 58.1867 251.337 59.84C252.457 61.44 253.87 62.6667 255.577 63.52C257.337 64.3733 259.097 64.8 260.857 64.8ZM313.784 76H292.584V16.8H313.784V76ZM377.439 56.4H335.839C336.213 59.44 337.279 61.8933 339.039 63.76C340.853 65.6267 343.306 66.56 346.399 66.56C348.853 66.56 351.119 66 353.199 64.88C355.279 63.76 356.319 61.6 356.319 58.4H377.439C377.439 65.2267 374.746 70.1333 369.359 73.12C364.026 76.1067 356.373 77.6 346.399 77.6C340.319 77.6 334.826 76.6133 329.919 74.64C325.013 72.6667 321.146 69.8933 318.319 66.32C315.546 62.6933 314.159 58.56 314.159 53.92C314.159 49.2267 315.573 45.0933 318.399 41.52C321.226 37.8933 325.093 35.12 329.999 33.2C334.906 31.2267 340.373 30.24 346.399 30.24C352.533 30.24 357.919 31.2 362.559 33.12C367.253 35.04 370.879 37.76 373.439 41.28C376.053 44.7467 377.386 48.8267 377.439 53.52V56.4ZM346.399 40.88C343.253 40.88 340.879 41.5467 339.279 42.88C337.733 44.16 336.693 46.0267 336.159 48.48H355.919C355.493 46.0267 354.533 44.16 353.039 42.88C351.599 41.5467 349.386 40.88 346.399 40.88ZM421.641 16.8H400.441V30.08H421.641V16.8ZM421.641 76H400.441V32.4H421.641V76ZM462.496 30.96C469.216 30.96 474.416 33.0933 478.096 37.36C481.829 41.5733 483.696 48.4533 483.696 58V76H462.496V58.24C462.496 54.8267 462.336 52.1867 462.016 50.32C461.749 48.4 461.002 46.8267 459.776 45.6C458.549 44.32 456.576 43.68 453.856 43.68C450.922 43.68 448.762 44.2667 447.376 45.44C446.042 46.56 445.216 48.08 444.896 50C444.576 51.8667 444.416 54.5333 444.416 58V76H423.216V32.4H444.416V37.6C448.416 33.1733 454.442 30.96 462.496 30.96ZM536.801 32.4H545.121V46.4H536.801V76H515.601V46.4H506.881V32.4H515.601V22.96L536.801 15.52V32.4ZM585.586 30.96C592.306 30.96 597.506 33.0933 601.186 37.36C604.92 41.5733 606.786 48.4533 606.786 58V76H585.586V58.24C585.586 54.8267 585.426 52.1867 585.106 50.32C584.84 48.4 584.093 46.8267 582.866 45.6C581.64 44.32 579.666 43.68 576.946 43.68C574.066 43.68 571.933 44.3467 570.546 45.68C569.16 46.96 568.306 48.56 567.986 50.48C567.666 52.3467 567.506 54.8533 567.506 58V76H546.306V16.8H567.506V37.52C571.506 33.1467 577.533 30.96 585.586 30.96ZM629.188 16.8H607.988V30.08H629.188V16.8ZM629.188 76H607.988V32.4H629.188V76ZM661.162 49.84C662.816 49.84 664.096 49.8133 665.002 49.76L670.042 49.68C676.389 49.68 681.536 50.5067 685.482 52.16C689.482 53.76 691.482 56.96 691.482 61.76C691.482 68.0533 688.416 72.32 682.282 74.56C676.149 76.7467 669.242 77.84 661.562 77.84C653.829 77.84 646.736 76.7467 640.282 74.56C633.882 72.32 630.682 68.0533 630.682 61.76H652.122C652.122 64.16 653.002 65.68 654.762 66.32C656.522 66.9067 658.789 67.2 661.562 67.2C667.429 67.2 670.362 65.4667 670.362 62C670.362 60.5067 669.482 59.5467 667.722 59.12C666.016 58.6933 663.856 58.48 661.242 58.48L655.002 58.56C647.909 58.56 642.069 57.7333 637.482 56.08C632.949 54.4267 630.682 50.9867 630.682 45.76C630.682 39.52 633.776 35.44 639.962 33.52C646.202 31.6 653.402 30.64 661.562 30.64C669.242 30.64 676.149 31.7333 682.282 33.92C688.416 36.1067 691.482 40.3467 691.482 46.64H670.362C670.362 44.9867 669.509 43.7333 667.802 42.88C666.096 42.0267 664.016 41.5733 661.562 41.52C658.949 41.52 656.709 41.84 654.842 42.48C653.029 43.12 652.122 44.1333 652.122 45.52C652.122 48.24 655.136 49.68 661.162 49.84ZM777.161 55.2C777.055 58.9867 776.095 62.5867 774.281 66C772.468 69.4133 769.961 72.1867 766.761 74.32C763.561 76.4 759.961 77.44 755.961 77.44C746.788 77.44 739.961 75.44 735.481 71.44V91.2H714.281V32.4H733.961L734.921 37.76C739.348 33.28 746.361 31.1733 755.961 31.44C760.068 31.44 763.695 32.4533 766.841 34.48C770.041 36.5067 772.548 39.28 774.361 42.8C776.175 46.32 777.108 50.2667 777.161 54.64V54.88V55.2ZM735.481 54.24C735.481 57.76 736.388 60.48 738.201 62.4C740.068 64.32 742.495 65.28 745.481 65.28C748.788 65.28 751.348 64.2933 753.161 62.32C754.975 60.2933 755.908 57.7867 755.961 54.8C755.908 51.3333 754.975 48.5867 753.161 46.56C751.401 44.48 748.841 43.44 745.481 43.44C742.655 43.44 740.281 44.48 738.361 46.56C736.441 48.5867 735.481 51.0667 735.481 54V54.24ZM799.112 40.24C803.592 35.3333 810.525 32.4 819.912 31.44V46.72H808.712C805.725 46.72 803.405 47.8933 801.752 50.24C800.099 52.5867 799.272 55.6267 799.272 59.36V76H778.072V32.4H797.592L799.112 40.24ZM852.441 30.56C858.415 30.56 863.775 31.5733 868.521 33.6C873.268 35.6267 877.001 38.4533 879.721 42.08C882.441 45.6533 883.801 49.68 883.801 54.16C883.801 58.5867 882.441 62.6133 879.721 66.24C877.001 69.8133 873.241 72.6133 868.441 74.64C863.695 76.6667 858.361 77.68 852.441 77.68C846.735 77.68 841.375 76.6667 836.361 74.64C831.348 72.56 827.348 69.7333 824.361 66.16C821.375 62.5333 819.881 58.5333 819.881 54.16C819.881 49.7333 821.375 45.7333 824.361 42.16C827.348 38.5333 831.321 35.7067 836.281 33.68C841.295 31.6 846.681 30.56 852.441 30.56ZM852.441 64.8C854.255 64.8 855.935 64.3733 857.481 63.52C859.081 62.6667 860.361 61.44 861.321 59.84C862.281 58.24 862.761 56.3467 862.761 54.16C862.761 51.9733 862.281 50.08 861.321 48.48C860.361 46.88 859.081 45.6533 857.481 44.8C855.935 43.9467 854.255 43.52 852.441 43.52C850.681 43.52 848.921 43.9467 847.161 44.8C845.455 45.6533 844.041 46.9067 842.921 48.56C841.855 50.16 841.321 52.0267 841.321 54.16C841.321 56.2933 841.855 58.1867 842.921 59.84C844.041 61.44 845.455 62.6667 847.161 63.52C848.921 64.3733 850.681 64.8 852.441 64.8ZM884.889 30V16.8H906.089V30H884.889ZM884.889 32.4H906.089V77.92C906.089 84.2667 903.582 88.5867 898.569 90.88C893.609 93.2267 888.009 94.4 881.769 94.4C879.689 94.4 877.822 94.2933 876.169 94.08V77.84C878.782 77.84 880.702 77.68 881.929 77.36C883.102 77.0933 883.875 76.6133 884.249 75.92C884.675 75.1733 884.889 74.0267 884.889 72.48V32.4ZM969.805 56.4H928.205C928.578 59.44 929.645 61.8933 931.405 63.76C933.218 65.6267 935.672 66.56 938.765 66.56C941.218 66.56 943.485 66 945.565 64.88C947.645 63.76 948.685 61.6 948.685 58.4H969.805C969.805 65.2267 967.112 70.1333 961.725 73.12C956.392 76.1067 948.738 77.6 938.765 77.6C932.685 77.6 927.192 76.6133 922.285 74.64C917.378 72.6667 913.512 69.8933 910.685 66.32C907.912 62.6933 906.525 58.56 906.525 53.92C906.525 49.2267 907.938 45.0933 910.765 41.52C913.592 37.8933 917.458 35.12 922.365 33.2C927.272 31.2267 932.738 30.24 938.765 30.24C944.898 30.24 950.285 31.2 954.925 33.12C959.618 35.04 963.245 37.76 965.805 41.28C968.418 44.7467 969.752 48.8267 969.805 53.52V56.4ZM938.765 40.88C935.618 40.88 933.245 41.5467 931.645 42.88C930.098 44.16 929.058 46.0267 928.525 48.48H948.285C947.858 46.0267 946.898 44.16 945.405 42.88C943.965 41.5467 941.752 40.88 938.765 40.88ZM969.222 54.56C969.222 50.08 970.582 46.0533 973.302 42.48C976.022 38.8533 979.729 36.0267 984.422 34C989.169 31.9733 994.395 30.96 1000.1 30.96C1005.49 30.96 1010.29 31.8133 1014.5 33.52C1018.77 35.1733 1022.18 37.4933 1024.74 40.48C1027.36 43.4667 1029.01 46.9067 1029.7 50.8H1008.5C1007.97 48.6133 1006.96 46.9333 1005.46 45.76C1003.97 44.5333 1002.18 43.92 1000.1 43.92C997.435 43.92 995.195 44.88 993.382 46.8C991.569 48.6667 990.662 51.2533 990.662 54.56C990.662 57.8667 991.569 60.48 993.382 62.4C995.195 64.2667 997.435 65.2 1000.1 65.2C1002.24 65.2 1004.02 64.6133 1005.46 63.44C1006.9 62.2667 1007.89 60.5867 1008.42 58.4H1029.62C1028.93 62.24 1027.28 65.6533 1024.66 68.64C1022.1 71.6267 1018.69 73.9733 1014.42 75.68C1010.21 77.3333 1005.44 78.16 1000.1 78.16C994.395 78.16 989.169 77.1467 984.422 75.12C979.729 73.04 976.022 70.2133 973.302 66.64C970.582 63.0133 969.222 58.9867 969.222 54.56ZM1059.59 32.4H1067.91V46.4H1059.59V76H1038.39V46.4H1029.67V32.4H1038.39V22.96L1059.59 15.52V32.4Z" fill="#333333"/>
<rect x="1002.83" y="56" width="80" height="30" rx="15" transform="rotate(7.33644 1002.83 56)" fill="#ED9AB1"/>
<path d="M1011.25 77.2491L1012.48 67.7237L1017.67 68.3923C1018.18 68.4579 1018.62 68.6135 1018.99 68.8591C1019.38 69.1059 1019.66 69.4201 1019.85 69.8017C1020.03 70.1832 1020.09 70.6101 1020.03 71.0822C1019.99 71.4432 1019.88 71.7629 1019.7 72.0412C1019.52 72.3196 1019.3 72.5451 1019.03 72.7177C1018.78 72.8823 1018.49 72.9965 1018.18 73.0602L1018.18 73.1157C1018.52 73.2351 1018.82 73.4191 1019.07 73.6677C1019.32 73.9071 1019.5 74.199 1019.62 74.5432C1019.73 74.8782 1019.76 75.254 1019.71 75.6706C1019.63 76.263 1019.44 76.7363 1019.12 77.0906C1018.81 77.446 1018.42 77.6923 1017.95 77.8295C1017.49 77.9586 1016.99 77.988 1016.44 77.9177L1011.25 77.2491ZM1013.25 75.9402L1016.41 76.346C1016.79 76.3949 1017.11 76.333 1017.38 76.1603C1017.65 75.9796 1017.82 75.6671 1017.88 75.2227C1017.91 74.9635 1017.89 74.7302 1017.81 74.5227C1017.74 74.3152 1017.6 74.1468 1017.4 74.0176C1017.21 73.8803 1016.95 73.7907 1016.63 73.749L1013.59 73.3575L1013.25 75.9402ZM1013.78 71.844L1016.7 72.2194C1016.97 72.2552 1017.21 72.2341 1017.41 72.1561C1017.62 72.0793 1017.78 71.9589 1017.9 71.7949C1018.02 71.6322 1018.1 71.4443 1018.12 71.2314C1018.18 70.8241 1018.1 70.509 1017.91 70.286C1017.72 70.0642 1017.45 69.9306 1017.1 69.8853L1014.08 69.4974L1013.78 71.844ZM1020.9 78.4916L1021.84 71.1879L1023.26 71.3703L1023.25 72.5406L1023.35 72.5532C1023.47 72.3337 1023.61 72.135 1023.76 71.9573C1023.93 71.7716 1024.12 71.6322 1024.35 71.5393C1024.58 71.4371 1024.85 71.4057 1025.15 71.445C1025.3 71.4641 1025.43 71.4952 1025.55 71.5385C1025.68 71.583 1025.77 71.6232 1025.83 71.6594L1025.63 73.2562L1025.11 73.19C1024.83 73.1531 1024.57 73.162 1024.33 73.2167C1024.1 73.2621 1023.9 73.358 1023.72 73.5044C1023.55 73.6519 1023.41 73.8459 1023.3 74.0863C1023.2 74.3267 1023.12 74.6136 1023.08 74.9468L1022.6 78.7097L1020.9 78.4916ZM1027.65 79.5299C1027.45 79.5036 1027.21 79.4455 1026.95 79.3554C1026.7 79.2757 1026.46 79.1504 1026.22 78.9793C1026 78.8095 1025.83 78.5802 1025.71 78.2915C1025.58 77.9935 1025.55 77.6224 1025.61 77.1781C1025.67 76.6782 1025.84 76.2806 1026.1 75.9852C1026.37 75.6805 1026.71 75.4613 1027.13 75.3274C1027.56 75.1854 1028.06 75.1132 1028.63 75.1106C1029.2 75.1 1029.82 75.1376 1030.49 75.2234L1030.57 74.6263C1030.6 74.4134 1030.59 74.2195 1030.54 74.0445C1030.5 73.8696 1030.4 73.7245 1030.23 73.6093C1030.08 73.486 1029.83 73.4023 1029.49 73.3582C1029.15 73.3141 1028.87 73.3212 1028.67 73.3795C1028.46 73.4377 1028.31 73.5223 1028.23 73.6331C1028.14 73.7439 1028.08 73.8641 1028.07 73.9937L1028.04 74.1881L1026.4 73.9771C1026.4 73.9297 1026.4 73.8828 1026.41 73.8365C1026.41 73.7902 1026.42 73.7347 1026.43 73.6699C1026.48 73.2533 1026.65 72.9084 1026.94 72.6351C1027.23 72.3618 1027.61 72.1751 1028.07 72.0749C1028.54 71.9655 1029.06 71.9483 1029.65 72.0234C1030.31 72.1092 1030.85 72.2721 1031.25 72.5121C1031.66 72.7532 1031.95 73.0588 1032.12 73.4287C1032.29 73.7986 1032.34 74.2289 1032.28 74.7195L1031.83 78.163C1031.81 78.3389 1031.85 78.4705 1031.94 78.5576C1032.03 78.6448 1032.14 78.6961 1032.26 78.7116L1032.7 78.7688L1032.55 79.9352C1032.45 79.9603 1032.32 79.9847 1032.13 80.0083C1031.95 80.0412 1031.73 80.041 1031.47 80.0076C1031.23 79.9766 1031.02 79.907 1030.83 79.7986C1030.66 79.7007 1030.51 79.5694 1030.4 79.4046C1030.29 79.2398 1030.22 79.052 1030.19 78.8412L1030.11 78.8305C1029.93 79.0046 1029.72 79.156 1029.47 79.2848C1029.24 79.4055 1028.97 79.4884 1028.67 79.5336C1028.37 79.58 1028.03 79.5787 1027.65 79.5299ZM1028.34 78.2075C1028.62 78.2432 1028.87 78.2331 1029.09 78.1772C1029.33 78.1225 1029.52 78.0301 1029.68 77.8998C1029.85 77.7708 1029.98 77.6046 1030.08 77.4012C1030.19 77.199 1030.27 76.973 1030.3 76.723L1030.34 76.3898C1029.83 76.3242 1029.36 76.2958 1028.91 76.3046C1028.48 76.3146 1028.12 76.3908 1027.84 76.5334C1027.57 76.6771 1027.41 76.9109 1027.37 77.2349C1027.34 77.4015 1027.36 77.5544 1027.42 77.6935C1027.49 77.8246 1027.6 77.9373 1027.74 78.0316C1027.9 78.1179 1028.1 78.1765 1028.34 78.2075ZM1033.51 80.1153L1034.45 72.8116L1035.87 72.9939L1035.88 73.9838L1035.98 73.9963C1036.17 73.7956 1036.39 73.6262 1036.64 73.4882C1036.89 73.3421 1037.17 73.2412 1037.47 73.1856C1037.78 73.1219 1038.11 73.1127 1038.46 73.158C1038.92 73.2176 1039.32 73.3534 1039.65 73.5653C1039.99 73.7784 1040.24 74.0832 1040.39 74.4797C1040.55 74.8762 1040.59 75.3845 1040.51 76.0047L1039.87 80.9341L1038.16 80.7142L1038.76 76.0903C1038.79 75.8311 1038.79 75.6141 1038.74 75.4391C1038.71 75.2561 1038.64 75.1059 1038.53 74.9886C1038.44 74.8632 1038.31 74.7666 1038.15 74.6989C1037.99 74.6311 1037.8 74.5842 1037.6 74.5579C1037.3 74.5186 1037.01 74.5569 1036.74 74.6728C1036.48 74.79 1036.26 74.9686 1036.08 75.2087C1035.91 75.45 1035.8 75.7419 1035.75 76.0844L1035.21 80.3334L1033.51 80.1153ZM1044.14 81.6531C1043.55 81.5768 1043.05 81.3764 1042.65 81.0519C1042.25 80.7275 1041.97 80.2674 1041.8 79.6718C1041.64 79.0773 1041.62 78.3357 1041.73 77.4471C1041.85 76.5676 1042.06 75.8657 1042.37 75.3413C1042.68 74.8076 1043.07 74.434 1043.53 74.2203C1043.99 74.0067 1044.49 73.9345 1045.03 74.0036C1045.36 74.0465 1045.66 74.1228 1045.93 74.2327C1046.2 74.3425 1046.43 74.4898 1046.62 74.6745C1046.81 74.8501 1046.97 75.0584 1047.09 75.2997L1047.17 75.3104L1047.63 71.728L1049.33 71.9461L1048.04 81.9852L1046.63 81.8047L1046.62 80.8148L1046.52 80.8023C1046.24 81.152 1045.89 81.3985 1045.47 81.5416C1045.06 81.6767 1044.61 81.7138 1044.14 81.6531ZM1044.86 80.263C1045.24 80.3131 1045.57 80.2657 1045.83 80.1208C1046.1 79.9759 1046.31 79.744 1046.46 79.425C1046.62 79.1073 1046.74 78.7077 1046.8 78.2263L1046.82 78.0458C1046.87 77.6848 1046.88 77.3566 1046.85 77.0613C1046.82 76.766 1046.75 76.5122 1046.64 76.3C1046.53 76.0889 1046.38 75.9187 1046.18 75.7895C1045.99 75.6614 1045.75 75.5789 1045.46 75.542C1045.05 75.4884 1044.7 75.5288 1044.43 75.6632C1044.17 75.7896 1043.96 76.0169 1043.81 76.3451C1043.66 76.6652 1043.56 77.0845 1043.49 77.6029L1043.47 77.7973C1043.4 78.3064 1043.4 78.7342 1043.46 79.0805C1043.52 79.4281 1043.67 79.7006 1043.89 79.8983C1044.12 80.0878 1044.44 80.2094 1044.86 80.263ZM1050.92 73.7888L1051.13 72.1781L1052.82 72.3962L1052.62 74.0069L1050.92 73.7888ZM1049.84 82.2173L1050.78 74.9135L1052.47 75.1316L1051.53 82.4354L1049.84 82.2173ZM1053.34 82.6677L1054.28 75.364L1055.69 75.5463L1055.71 76.5362L1055.8 76.5487C1056 76.348 1056.22 76.1786 1056.46 76.0406C1056.72 75.8945 1056.99 75.7936 1057.29 75.738C1057.6 75.6743 1057.93 75.6651 1058.28 75.7104C1058.75 75.77 1059.14 75.9058 1059.47 76.1177C1059.81 76.3308 1060.06 76.6356 1060.22 77.0321C1060.37 77.4286 1060.41 77.9369 1060.33 78.5572L1059.7 83.4865L1057.99 83.2666L1058.58 78.6427C1058.62 78.3835 1058.61 78.1665 1058.57 77.9915C1058.54 77.8085 1058.47 77.6583 1058.36 77.541C1058.26 77.4156 1058.13 77.319 1057.97 77.2513C1057.81 77.1835 1057.63 77.1366 1057.43 77.1103C1057.12 77.071 1056.83 77.1093 1056.56 77.2253C1056.3 77.3424 1056.08 77.521 1055.9 77.7611C1055.73 78.0024 1055.62 78.2944 1055.58 78.6369L1055.03 82.8858L1053.34 82.6677ZM1062.33 86.3944C1062 86.3527 1061.71 86.2485 1061.44 86.082C1061.17 85.9154 1060.96 85.6912 1060.82 85.4094C1060.67 85.1368 1060.63 84.8154 1060.67 84.4451C1060.73 84.0378 1060.88 83.7333 1061.14 83.5317C1061.42 83.322 1061.7 83.1755 1062.01 83.0921C1061.81 82.9536 1061.65 82.7828 1061.53 82.5798C1061.43 82.378 1061.39 82.1475 1061.43 81.8883C1061.47 81.5365 1061.64 81.2755 1061.92 81.1052C1062.21 80.9257 1062.52 80.825 1062.86 80.8031C1062.55 80.5461 1062.32 80.239 1062.18 79.8819C1062.05 79.5261 1062.01 79.1352 1062.06 78.7094C1062.13 78.2002 1062.3 77.7807 1062.59 77.4506C1062.89 77.1125 1063.29 76.872 1063.78 76.7292C1064.28 76.5863 1064.87 76.5578 1065.53 76.6436C1065.8 76.6782 1066.06 76.73 1066.3 76.7992C1066.55 76.8685 1066.77 76.9532 1066.96 77.0535C1067.31 76.9008 1067.56 76.7119 1067.71 76.4867C1067.86 76.2522 1067.96 76.0569 1067.98 75.9007L1069.64 76.1135C1069.6 76.4375 1069.49 76.7161 1069.33 76.9493C1069.18 77.1838 1068.98 77.37 1068.74 77.508C1068.5 77.6368 1068.21 77.718 1067.89 77.7515C1068.09 77.9849 1068.24 78.2529 1068.32 78.5553C1068.4 78.8578 1068.42 79.1803 1068.38 79.5228C1068.31 80.0319 1068.14 80.4561 1067.85 80.7954C1067.57 81.1359 1067.19 81.3782 1066.7 81.5222C1066.22 81.6675 1065.64 81.6972 1064.98 81.6114L1063.85 81.4666C1063.66 81.4416 1063.5 81.4636 1063.38 81.5326C1063.27 81.6028 1063.2 81.7119 1063.18 81.86C1063.16 81.9804 1063.2 82.0928 1063.28 82.1973C1063.37 82.303 1063.5 82.3671 1063.68 82.3898L1066.87 82.8009C1067.42 82.8713 1067.84 83.1096 1068.15 83.5159C1068.46 83.9141 1068.59 84.391 1068.51 84.9464C1068.46 85.3629 1068.3 85.7235 1068.04 86.0282C1067.78 86.334 1067.45 86.5591 1067.03 86.7035C1066.62 86.8478 1066.15 86.8866 1065.63 86.8198L1062.33 86.3944ZM1063.1 85.2511L1065.78 85.5961C1065.95 85.6188 1066.11 85.6061 1066.25 85.5579C1066.39 85.5203 1066.51 85.4507 1066.6 85.3491C1066.7 85.2488 1066.75 85.1292 1066.77 84.9903C1066.8 84.7496 1066.75 84.559 1066.61 84.4184C1066.47 84.279 1066.3 84.195 1066.07 84.1664L1063.28 83.807C1063.06 83.7784 1062.87 83.8194 1062.7 83.9299C1062.54 84.0497 1062.44 84.216 1062.41 84.429C1062.38 84.6419 1062.43 84.8221 1062.55 84.9695C1062.68 85.1275 1062.87 85.2213 1063.1 85.2511ZM1065.06 80.4083C1065.55 80.4715 1065.93 80.4075 1066.2 80.2163C1066.48 80.0171 1066.65 79.7138 1066.7 79.3065C1066.75 78.8992 1066.67 78.5684 1066.45 78.314C1066.23 78.0609 1065.88 77.9027 1065.39 77.8395C1064.9 77.7764 1064.52 77.8398 1064.24 78.0298C1063.97 78.2209 1063.81 78.5202 1063.76 78.9275C1063.72 79.1959 1063.74 79.4339 1063.82 79.6414C1063.9 79.8501 1064.05 80.0191 1064.25 80.1483C1064.46 80.2787 1064.73 80.3654 1065.06 80.4083Z" fill="white"/>
<rect x="647.831" y="8" width="58" height="30" rx="15" transform="rotate(7.33644 647.831 8)" fill="#ED9AB1"/>
<path d="M660.186 29.9252C659.353 29.8179 658.653 29.5913 658.086 29.2454C657.519 28.8995 657.108 28.4326 656.855 27.8447C656.611 27.2488 656.543 26.5389 656.649 25.715L657.421 19.7165L659.226 19.9489L658.461 25.8919C658.367 26.6232 658.485 27.203 658.816 27.6314C659.157 28.0518 659.679 28.3072 660.383 28.3978C661.086 28.4884 661.656 28.3736 662.093 28.0533C662.54 27.7251 662.81 27.1953 662.905 26.464L663.67 20.521L665.475 20.7534L664.702 26.7519C664.596 27.5758 664.346 28.2446 663.95 28.7583C663.556 29.2627 663.04 29.6104 662.404 29.8014C661.768 29.9924 661.029 30.0337 660.186 29.9252ZM665.396 30.4265L669.469 25.8694L666.942 20.9423L669.149 21.2265L670.85 24.678L670.92 24.687L673.44 21.7789L675.509 22.0453L671.817 26.1576L674.616 31.6136L672.422 31.3311L670.452 27.3369L670.368 27.3261L667.479 30.6947L665.396 30.4265ZM674.674 32.3128L678.992 21.8021L680.214 21.9594L675.896 32.4701L674.674 32.3128ZM683.889 32.9769C683.056 32.8697 682.356 32.6431 681.789 32.2971C681.222 31.9512 680.811 31.4843 680.557 30.8965C680.314 30.3005 680.246 29.5906 680.352 28.7668L681.124 22.7683L682.929 23.0007L682.164 28.9436C682.07 29.6749 682.188 30.2548 682.519 30.6832C682.86 31.1035 683.382 31.3589 684.086 31.4495C684.789 31.5401 685.359 31.4253 685.796 31.1051C686.243 30.7768 686.513 30.247 686.607 29.5157L687.372 23.5727L689.178 23.8051L688.405 29.8036C688.299 30.6275 688.048 31.2963 687.653 31.81C687.259 32.3144 686.743 32.6621 686.107 32.8531C685.471 33.0441 684.731 33.0854 683.889 32.9769ZM690.001 33.5945L691.227 24.0691L693.033 24.3015L691.806 33.8269L690.001 33.5945Z" fill="white"/>
</svg>
