<svg width="1093" height="110" viewBox="0 0 1093 110" fill="none" xmlns="http://www.w3.org/2000/svg">
<path d="M100.64 16.8V76H77.84V54.32L67.28 76H46.88L35.6 54.08V76H12.8V16.8H38.4L57.12 55.12L75.76 16.8H100.64ZM173.678 32.4L146.558 85.6C145.278 88.4267 142.824 90.5333 139.198 91.92C135.624 93.3067 131.944 94.16 128.158 94.48C124.424 94.8 120.424 94.96 116.158 94.96V78.72C119.998 78.72 122.478 78.5333 123.598 78.16C124.718 77.7867 125.118 77.2 124.798 76.4L102.238 32.4H124.718L137.998 61.44L151.198 32.4H173.678ZM217.527 40.24C222.007 35.3333 228.941 32.4 238.328 31.44V46.72H227.127C224.141 46.72 221.821 47.8933 220.167 50.24C218.514 52.5867 217.687 55.6267 217.687 59.36V76H196.487V32.4H216.007L217.527 40.24ZM270.857 30.56C276.83 30.56 282.19 31.5733 286.937 33.6C291.684 35.6267 295.417 38.4533 298.137 42.08C300.857 45.6533 302.217 49.68 302.217 54.16C302.217 58.5867 300.857 62.6133 298.137 66.24C295.417 69.8133 291.657 72.6133 286.857 74.64C282.11 76.6667 276.777 77.68 270.857 77.68C265.15 77.68 259.79 76.6667 254.777 74.64C249.764 72.56 245.764 69.7333 242.777 66.16C239.79 62.5333 238.297 58.5333 238.297 54.16C238.297 49.7333 239.79 45.7333 242.777 42.16C245.764 38.5333 249.737 35.7067 254.697 33.68C259.71 31.6 265.097 30.56 270.857 30.56ZM270.857 64.8C272.67 64.8 274.35 64.3733 275.897 63.52C277.497 62.6667 278.777 61.44 279.737 59.84C280.697 58.24 281.177 56.3467 281.177 54.16C281.177 51.9733 280.697 50.08 279.737 48.48C278.777 46.88 277.497 45.6533 275.897 44.8C274.35 43.9467 272.67 43.52 270.857 43.52C269.097 43.52 267.337 43.9467 265.577 44.8C263.87 45.6533 262.457 46.9067 261.337 48.56C260.27 50.16 259.737 52.0267 259.737 54.16C259.737 56.2933 260.27 58.1867 261.337 59.84C262.457 61.44 263.87 62.6667 265.577 63.52C267.337 64.3733 269.097 64.8 270.857 64.8ZM323.784 76H302.584V16.8H323.784V76ZM387.439 56.4H345.839C346.213 59.44 347.279 61.8933 349.039 63.76C350.853 65.6267 353.306 66.56 356.399 66.56C358.853 66.56 361.119 66 363.199 64.88C365.279 63.76 366.319 61.6 366.319 58.4H387.439C387.439 65.2267 384.746 70.1333 379.359 73.12C374.026 76.1067 366.373 77.6 356.399 77.6C350.319 77.6 344.826 76.6133 339.919 74.64C335.013 72.6667 331.146 69.8933 328.319 66.32C325.546 62.6933 324.159 58.56 324.159 53.92C324.159 49.2267 325.573 45.0933 328.399 41.52C331.226 37.8933 335.093 35.12 339.999 33.2C344.906 31.2267 350.373 30.24 356.399 30.24C362.533 30.24 367.919 31.2 372.559 33.12C377.253 35.04 380.879 37.76 383.439 41.28C386.053 44.7467 387.386 48.8267 387.439 53.52V56.4ZM356.399 40.88C353.253 40.88 350.879 41.5467 349.279 42.88C347.733 44.16 346.693 46.0267 346.159 48.48H365.919C365.493 46.0267 364.533 44.16 363.039 42.88C361.599 41.5467 359.386 40.88 356.399 40.88ZM431.641 16.8H410.441V30.08H431.641V16.8ZM431.641 76H410.441V32.4H431.641V76ZM472.496 30.96C479.216 30.96 484.416 33.0933 488.096 37.36C491.829 41.5733 493.696 48.4533 493.696 58V76H472.496V58.24C472.496 54.8267 472.336 52.1867 472.016 50.32C471.749 48.4 471.002 46.8267 469.776 45.6C468.549 44.32 466.576 43.68 463.856 43.68C460.922 43.68 458.762 44.2667 457.376 45.44C456.042 46.56 455.216 48.08 454.896 50C454.576 51.8667 454.416 54.5333 454.416 58V76H433.216V32.4H454.416V37.6C458.416 33.1733 464.442 30.96 472.496 30.96ZM546.801 32.4H555.121V46.4H546.801V76H525.601V46.4H516.881V32.4H525.601V22.96L546.801 15.52V32.4ZM595.586 30.96C602.306 30.96 607.506 33.0933 611.186 37.36C614.92 41.5733 616.786 48.4533 616.786 58V76H595.586V58.24C595.586 54.8267 595.426 52.1867 595.106 50.32C594.84 48.4 594.093 46.8267 592.866 45.6C591.64 44.32 589.666 43.68 586.946 43.68C584.066 43.68 581.933 44.3467 580.546 45.68C579.16 46.96 578.306 48.56 577.986 50.48C577.666 52.3467 577.506 54.8533 577.506 58V76H556.306V16.8H577.506V37.52C581.506 33.1467 587.533 30.96 595.586 30.96ZM639.188 16.8H617.988V30.08H639.188V16.8ZM639.188 76H617.988V32.4H639.188V76ZM671.162 49.84C672.816 49.84 674.096 49.8133 675.002 49.76L680.042 49.68C686.389 49.68 691.536 50.5067 695.482 52.16C699.482 53.76 701.482 56.96 701.482 61.76C701.482 68.0533 698.416 72.32 692.282 74.56C686.149 76.7467 679.242 77.84 671.562 77.84C663.829 77.84 656.736 76.7467 650.282 74.56C643.882 72.32 640.682 68.0533 640.682 61.76H662.122C662.122 64.16 663.002 65.68 664.762 66.32C666.522 66.9067 668.789 67.2 671.562 67.2C677.429 67.2 680.362 65.4667 680.362 62C680.362 60.5067 679.482 59.5467 677.722 59.12C676.016 58.6933 673.856 58.48 671.242 58.48L665.002 58.56C657.909 58.56 652.069 57.7333 647.482 56.08C642.949 54.4267 640.682 50.9867 640.682 45.76C640.682 39.52 643.776 35.44 649.962 33.52C656.202 31.6 663.402 30.64 671.562 30.64C679.242 30.64 686.149 31.7333 692.282 33.92C698.416 36.1067 701.482 40.3467 701.482 46.64H680.362C680.362 44.9867 679.509 43.7333 677.802 42.88C676.096 42.0267 674.016 41.5733 671.562 41.52C668.949 41.52 666.709 41.84 664.842 42.48C663.029 43.12 662.122 44.1333 662.122 45.52C662.122 48.24 665.136 49.68 671.162 49.84ZM787.161 55.2C787.055 58.9867 786.095 62.5867 784.281 66C782.468 69.4133 779.961 72.1867 776.761 74.32C773.561 76.4 769.961 77.44 765.961 77.44C756.788 77.44 749.961 75.44 745.481 71.44V91.2H724.281V32.4H743.961L744.921 37.76C749.348 33.28 756.361 31.1733 765.961 31.44C770.068 31.44 773.695 32.4533 776.841 34.48C780.041 36.5067 782.548 39.28 784.361 42.8C786.175 46.32 787.108 50.2667 787.161 54.64V54.88V55.2ZM745.481 54.24C745.481 57.76 746.388 60.48 748.201 62.4C750.068 64.32 752.495 65.28 755.481 65.28C758.788 65.28 761.348 64.2933 763.161 62.32C764.975 60.2933 765.908 57.7867 765.961 54.8C765.908 51.3333 764.975 48.5867 763.161 46.56C761.401 44.48 758.841 43.44 755.481 43.44C752.655 43.44 750.281 44.48 748.361 46.56C746.441 48.5867 745.481 51.0667 745.481 54V54.24ZM809.112 40.24C813.592 35.3333 820.525 32.4 829.912 31.44V46.72H818.712C815.725 46.72 813.405 47.8933 811.752 50.24C810.099 52.5867 809.272 55.6267 809.272 59.36V76H788.072V32.4H807.592L809.112 40.24ZM862.441 30.56C868.415 30.56 873.775 31.5733 878.521 33.6C883.268 35.6267 887.001 38.4533 889.721 42.08C892.441 45.6533 893.801 49.68 893.801 54.16C893.801 58.5867 892.441 62.6133 889.721 66.24C887.001 69.8133 883.241 72.6133 878.441 74.64C873.695 76.6667 868.361 77.68 862.441 77.68C856.735 77.68 851.375 76.6667 846.361 74.64C841.348 72.56 837.348 69.7333 834.361 66.16C831.375 62.5333 829.881 58.5333 829.881 54.16C829.881 49.7333 831.375 45.7333 834.361 42.16C837.348 38.5333 841.321 35.7067 846.281 33.68C851.295 31.6 856.681 30.56 862.441 30.56ZM862.441 64.8C864.255 64.8 865.935 64.3733 867.481 63.52C869.081 62.6667 870.361 61.44 871.321 59.84C872.281 58.24 872.761 56.3467 872.761 54.16C872.761 51.9733 872.281 50.08 871.321 48.48C870.361 46.88 869.081 45.6533 867.481 44.8C865.935 43.9467 864.255 43.52 862.441 43.52C860.681 43.52 858.921 43.9467 857.161 44.8C855.455 45.6533 854.041 46.9067 852.921 48.56C851.855 50.16 851.321 52.0267 851.321 54.16C851.321 56.2933 851.855 58.1867 852.921 59.84C854.041 61.44 855.455 62.6667 857.161 63.52C858.921 64.3733 860.681 64.8 862.441 64.8ZM894.889 30V16.8H916.089V30H894.889ZM894.889 32.4H916.089V77.92C916.089 84.2667 913.582 88.5867 908.569 90.88C903.609 93.2267 898.009 94.4 891.769 94.4C889.689 94.4 887.822 94.2933 886.169 94.08V77.84C888.782 77.84 890.702 77.68 891.929 77.36C893.102 77.0933 893.875 76.6133 894.249 75.92C894.675 75.1733 894.889 74.0267 894.889 72.48V32.4ZM979.805 56.4H938.205C938.578 59.44 939.645 61.8933 941.405 63.76C943.218 65.6267 945.672 66.56 948.765 66.56C951.218 66.56 953.485 66 955.565 64.88C957.645 63.76 958.685 61.6 958.685 58.4H979.805C979.805 65.2267 977.112 70.1333 971.725 73.12C966.392 76.1067 958.738 77.6 948.765 77.6C942.685 77.6 937.192 76.6133 932.285 74.64C927.378 72.6667 923.512 69.8933 920.685 66.32C917.912 62.6933 916.525 58.56 916.525 53.92C916.525 49.2267 917.938 45.0933 920.765 41.52C923.592 37.8933 927.458 35.12 932.365 33.2C937.272 31.2267 942.738 30.24 948.765 30.24C954.898 30.24 960.285 31.2 964.925 33.12C969.618 35.04 973.245 37.76 975.805 41.28C978.418 44.7467 979.752 48.8267 979.805 53.52V56.4ZM948.765 40.88C945.618 40.88 943.245 41.5467 941.645 42.88C940.098 44.16 939.058 46.0267 938.525 48.48H958.285C957.858 46.0267 956.898 44.16 955.405 42.88C953.965 41.5467 951.752 40.88 948.765 40.88ZM979.222 54.56C979.222 50.08 980.582 46.0533 983.302 42.48C986.022 38.8533 989.729 36.0267 994.422 34C999.169 31.9733 1004.4 30.96 1010.1 30.96C1015.49 30.96 1020.29 31.8133 1024.5 33.52C1028.77 35.1733 1032.18 37.4933 1034.74 40.48C1037.36 43.4667 1039.01 46.9067 1039.7 50.8H1018.5C1017.97 48.6133 1016.96 46.9333 1015.46 45.76C1013.97 44.5333 1012.18 43.92 1010.1 43.92C1007.44 43.92 1005.2 44.88 1003.38 46.8C1001.57 48.6667 1000.66 51.2533 1000.66 54.56C1000.66 57.8667 1001.57 60.48 1003.38 62.4C1005.2 64.2667 1007.44 65.2 1010.1 65.2C1012.24 65.2 1014.02 64.6133 1015.46 63.44C1016.9 62.2667 1017.89 60.5867 1018.42 58.4H1039.62C1038.93 62.24 1037.28 65.6533 1034.66 68.64C1032.1 71.6267 1028.69 73.9733 1024.42 75.68C1020.21 77.3333 1015.44 78.16 1010.1 78.16C1004.4 78.16 999.169 77.1467 994.422 75.12C989.729 73.04 986.022 70.2133 983.302 66.64C980.582 63.0133 979.222 58.9867 979.222 54.56ZM1069.59 32.4H1077.91V46.4H1069.59V76H1048.39V46.4H1039.67V32.4H1048.39V22.96L1069.59 15.52V32.4Z" fill="#333333"/>
<rect x="1012.83" y="56" width="80" height="30" rx="15" transform="rotate(7.33644 1012.83 56)" fill="#ED9AB1"/>
<path d="M1021.25 77.2491L1022.48 67.7237L1027.67 68.3923C1028.18 68.4579 1028.62 68.6135 1028.99 68.8591C1029.38 69.1059 1029.66 69.4201 1029.85 69.8017C1030.03 70.1832 1030.09 70.6101 1030.03 71.0822C1029.99 71.4432 1029.88 71.7629 1029.7 72.0412C1029.52 72.3196 1029.3 72.5451 1029.03 72.7177C1028.78 72.8823 1028.49 72.9965 1028.18 73.0602L1028.18 73.1157C1028.52 73.2351 1028.82 73.4191 1029.07 73.6677C1029.32 73.9071 1029.5 74.199 1029.62 74.5432C1029.73 74.8782 1029.76 75.254 1029.71 75.6706C1029.63 76.263 1029.44 76.7363 1029.12 77.0906C1028.81 77.446 1028.42 77.6923 1027.95 77.8295C1027.49 77.9586 1026.99 77.988 1026.44 77.9177L1021.25 77.2491ZM1023.25 75.9402L1026.41 76.346C1026.79 76.3949 1027.11 76.333 1027.38 76.1603C1027.65 75.9796 1027.82 75.6671 1027.88 75.2227C1027.91 74.9635 1027.89 74.7302 1027.81 74.5227C1027.74 74.3152 1027.6 74.1468 1027.4 74.0176C1027.21 73.8803 1026.95 73.7907 1026.63 73.749L1023.59 73.3575L1023.25 75.9402ZM1023.78 71.844L1026.7 72.2194C1026.97 72.2552 1027.21 72.2341 1027.41 72.1561C1027.62 72.0793 1027.78 71.9589 1027.9 71.7949C1028.02 71.6322 1028.1 71.4443 1028.12 71.2314C1028.18 70.8241 1028.1 70.509 1027.91 70.286C1027.72 70.0642 1027.45 69.9306 1027.1 69.8853L1024.08 69.4974L1023.78 71.844ZM1030.9 78.4916L1031.84 71.1879L1033.26 71.3703L1033.25 72.5406L1033.35 72.5532C1033.47 72.3337 1033.61 72.135 1033.76 71.9573C1033.93 71.7716 1034.12 71.6322 1034.35 71.5393C1034.58 71.4371 1034.85 71.4057 1035.15 71.445C1035.3 71.4641 1035.43 71.4952 1035.55 71.5385C1035.68 71.583 1035.77 71.6232 1035.83 71.6594L1035.63 73.2562L1035.11 73.19C1034.83 73.1531 1034.57 73.162 1034.33 73.2167C1034.1 73.2621 1033.9 73.358 1033.72 73.5044C1033.55 73.6519 1033.41 73.8459 1033.3 74.0863C1033.2 74.3267 1033.12 74.6136 1033.08 74.9468L1032.6 78.7097L1030.9 78.4916ZM1037.65 79.5299C1037.45 79.5036 1037.21 79.4455 1036.95 79.3554C1036.7 79.2757 1036.46 79.1504 1036.22 78.9793C1036 78.8095 1035.83 78.5802 1035.71 78.2915C1035.58 77.9935 1035.55 77.6224 1035.61 77.1781C1035.67 76.6782 1035.84 76.2806 1036.1 75.9852C1036.37 75.6805 1036.71 75.4613 1037.13 75.3274C1037.56 75.1854 1038.06 75.1132 1038.63 75.1106C1039.2 75.1 1039.82 75.1376 1040.49 75.2234L1040.57 74.6263C1040.6 74.4134 1040.59 74.2195 1040.54 74.0445C1040.5 73.8696 1040.4 73.7245 1040.23 73.6093C1040.08 73.486 1039.83 73.4023 1039.49 73.3582C1039.15 73.3141 1038.87 73.3212 1038.67 73.3795C1038.46 73.4377 1038.31 73.5223 1038.23 73.6331C1038.14 73.7439 1038.08 73.8641 1038.07 73.9937L1038.04 74.1881L1036.4 73.9771C1036.4 73.9297 1036.4 73.8828 1036.41 73.8365C1036.41 73.7902 1036.42 73.7347 1036.43 73.6699C1036.48 73.2533 1036.65 72.9084 1036.94 72.6351C1037.23 72.3618 1037.61 72.1751 1038.07 72.0749C1038.54 71.9655 1039.06 71.9483 1039.65 72.0234C1040.31 72.1092 1040.85 72.2721 1041.25 72.5121C1041.66 72.7532 1041.95 73.0588 1042.12 73.4287C1042.29 73.7986 1042.34 74.2289 1042.28 74.7195L1041.83 78.163C1041.81 78.3389 1041.85 78.4705 1041.94 78.5576C1042.03 78.6448 1042.14 78.6961 1042.26 78.7116L1042.7 78.7688L1042.55 79.9352C1042.45 79.9603 1042.32 79.9847 1042.13 80.0083C1041.95 80.0412 1041.73 80.041 1041.47 80.0076C1041.23 79.9766 1041.02 79.907 1040.83 79.7986C1040.66 79.7007 1040.51 79.5694 1040.4 79.4046C1040.29 79.2398 1040.22 79.052 1040.19 78.8412L1040.11 78.8305C1039.93 79.0046 1039.72 79.156 1039.47 79.2848C1039.24 79.4055 1038.97 79.4884 1038.67 79.5336C1038.37 79.58 1038.03 79.5787 1037.65 79.5299ZM1038.34 78.2075C1038.62 78.2432 1038.87 78.2331 1039.09 78.1772C1039.33 78.1225 1039.52 78.0301 1039.68 77.8998C1039.85 77.7708 1039.98 77.6046 1040.08 77.4012C1040.19 77.199 1040.27 76.973 1040.3 76.723L1040.34 76.3898C1039.83 76.3242 1039.36 76.2958 1038.91 76.3046C1038.48 76.3146 1038.12 76.3908 1037.84 76.5334C1037.57 76.6771 1037.41 76.9109 1037.37 77.2349C1037.34 77.4015 1037.36 77.5544 1037.42 77.6935C1037.49 77.8246 1037.6 77.9373 1037.74 78.0316C1037.9 78.1179 1038.1 78.1765 1038.34 78.2075ZM1043.51 80.1153L1044.45 72.8116L1045.87 72.9939L1045.88 73.9838L1045.98 73.9963C1046.17 73.7956 1046.39 73.6262 1046.64 73.4882C1046.89 73.3421 1047.17 73.2412 1047.47 73.1856C1047.78 73.1219 1048.11 73.1127 1048.46 73.158C1048.92 73.2176 1049.32 73.3534 1049.65 73.5653C1049.99 73.7784 1050.24 74.0832 1050.39 74.4797C1050.55 74.8762 1050.59 75.3845 1050.51 76.0047L1049.87 80.9341L1048.16 80.7142L1048.76 76.0903C1048.79 75.8311 1048.79 75.6141 1048.74 75.4391C1048.71 75.2561 1048.64 75.1059 1048.53 74.9886C1048.44 74.8632 1048.31 74.7666 1048.15 74.6989C1047.99 74.6311 1047.8 74.5842 1047.6 74.5579C1047.3 74.5186 1047.01 74.5569 1046.74 74.6728C1046.48 74.79 1046.26 74.9686 1046.08 75.2087C1045.91 75.45 1045.8 75.7419 1045.75 76.0844L1045.21 80.3334L1043.51 80.1153ZM1054.14 81.6531C1053.55 81.5768 1053.05 81.3764 1052.65 81.0519C1052.25 80.7275 1051.97 80.2674 1051.8 79.6718C1051.64 79.0773 1051.62 78.3357 1051.73 77.4471C1051.85 76.5676 1052.06 75.8657 1052.37 75.3413C1052.68 74.8076 1053.07 74.434 1053.53 74.2203C1053.99 74.0067 1054.49 73.9345 1055.03 74.0036C1055.36 74.0465 1055.66 74.1228 1055.93 74.2327C1056.2 74.3425 1056.43 74.4898 1056.62 74.6745C1056.81 74.8501 1056.97 75.0584 1057.09 75.2997L1057.17 75.3104L1057.63 71.728L1059.33 71.9461L1058.04 81.9852L1056.63 81.8047L1056.62 80.8148L1056.52 80.8023C1056.24 81.152 1055.89 81.3985 1055.47 81.5416C1055.06 81.6767 1054.61 81.7138 1054.14 81.6531ZM1054.86 80.263C1055.24 80.3131 1055.57 80.2657 1055.83 80.1208C1056.1 79.9759 1056.31 79.744 1056.46 79.425C1056.62 79.1073 1056.74 78.7077 1056.8 78.2263L1056.82 78.0458C1056.87 77.6848 1056.88 77.3566 1056.85 77.0613C1056.82 76.766 1056.75 76.5122 1056.64 76.3C1056.53 76.0889 1056.38 75.9187 1056.18 75.7895C1055.99 75.6614 1055.75 75.5789 1055.46 75.542C1055.05 75.4884 1054.7 75.5288 1054.43 75.6632C1054.17 75.7896 1053.96 76.0169 1053.81 76.3451C1053.66 76.6652 1053.56 77.0845 1053.49 77.6029L1053.47 77.7973C1053.4 78.3064 1053.4 78.7342 1053.46 79.0805C1053.52 79.4281 1053.67 79.7006 1053.89 79.8983C1054.12 80.0878 1054.44 80.2094 1054.86 80.263ZM1060.92 73.7888L1061.13 72.1781L1062.82 72.3962L1062.62 74.0069L1060.92 73.7888ZM1059.84 82.2173L1060.78 74.9135L1062.47 75.1316L1061.53 82.4354L1059.84 82.2173ZM1063.34 82.6677L1064.28 75.364L1065.69 75.5463L1065.71 76.5362L1065.8 76.5487C1066 76.348 1066.22 76.1786 1066.46 76.0406C1066.72 75.8945 1066.99 75.7936 1067.29 75.738C1067.6 75.6743 1067.93 75.6651 1068.28 75.7104C1068.75 75.77 1069.14 75.9058 1069.47 76.1177C1069.81 76.3308 1070.06 76.6356 1070.22 77.0321C1070.37 77.4286 1070.41 77.9369 1070.33 78.5572L1069.7 83.4865L1067.99 83.2666L1068.58 78.6427C1068.62 78.3835 1068.61 78.1665 1068.57 77.9915C1068.54 77.8085 1068.47 77.6583 1068.36 77.541C1068.26 77.4156 1068.13 77.319 1067.97 77.2513C1067.81 77.1835 1067.63 77.1366 1067.43 77.1103C1067.12 77.071 1066.83 77.1093 1066.56 77.2253C1066.3 77.3424 1066.08 77.521 1065.9 77.7611C1065.73 78.0024 1065.62 78.2944 1065.58 78.6369L1065.03 82.8858L1063.34 82.6677ZM1072.33 86.3944C1072 86.3527 1071.71 86.2485 1071.44 86.082C1071.17 85.9154 1070.96 85.6912 1070.82 85.4094C1070.67 85.1368 1070.63 84.8154 1070.67 84.4451C1070.73 84.0378 1070.88 83.7333 1071.14 83.5317C1071.42 83.322 1071.7 83.1755 1072.01 83.0921C1071.81 82.9536 1071.65 82.7828 1071.53 82.5798C1071.43 82.378 1071.39 82.1475 1071.43 81.8883C1071.47 81.5365 1071.64 81.2755 1071.92 81.1052C1072.21 80.9257 1072.52 80.825 1072.86 80.8031C1072.55 80.5461 1072.32 80.239 1072.18 79.8819C1072.05 79.5261 1072.01 79.1352 1072.06 78.7094C1072.13 78.2002 1072.3 77.7807 1072.59 77.4506C1072.89 77.1125 1073.29 76.872 1073.78 76.7292C1074.28 76.5863 1074.87 76.5578 1075.53 76.6436C1075.8 76.6782 1076.06 76.73 1076.3 76.7992C1076.55 76.8685 1076.77 76.9532 1076.96 77.0535C1077.31 76.9008 1077.56 76.7119 1077.71 76.4867C1077.86 76.2522 1077.96 76.0569 1077.98 75.9007L1079.64 76.1135C1079.6 76.4375 1079.49 76.7161 1079.33 76.9493C1079.18 77.1838 1078.98 77.37 1078.74 77.508C1078.5 77.6368 1078.21 77.718 1077.89 77.7515C1078.09 77.9849 1078.24 78.2529 1078.32 78.5553C1078.4 78.8578 1078.42 79.1803 1078.38 79.5228C1078.31 80.0319 1078.14 80.4561 1077.85 80.7954C1077.57 81.1359 1077.19 81.3782 1076.7 81.5222C1076.22 81.6675 1075.64 81.6972 1074.98 81.6114L1073.85 81.4666C1073.66 81.4416 1073.5 81.4636 1073.38 81.5326C1073.27 81.6028 1073.2 81.7119 1073.18 81.86C1073.16 81.9804 1073.2 82.0928 1073.28 82.1973C1073.37 82.303 1073.5 82.3671 1073.68 82.3898L1076.87 82.8009C1077.42 82.8713 1077.84 83.1096 1078.15 83.5159C1078.46 83.9141 1078.59 84.391 1078.51 84.9464C1078.46 85.3629 1078.3 85.7235 1078.04 86.0282C1077.78 86.334 1077.45 86.5591 1077.03 86.7035C1076.62 86.8478 1076.15 86.8866 1075.63 86.8198L1072.33 86.3944ZM1073.1 85.2511L1075.78 85.5961C1075.95 85.6188 1076.11 85.6061 1076.25 85.5579C1076.39 85.5203 1076.51 85.4507 1076.6 85.3491C1076.7 85.2488 1076.75 85.1292 1076.77 84.9903C1076.8 84.7496 1076.75 84.559 1076.61 84.4184C1076.47 84.279 1076.3 84.195 1076.07 84.1664L1073.28 83.807C1073.06 83.7784 1072.87 83.8194 1072.7 83.9299C1072.54 84.0497 1072.44 84.216 1072.41 84.429C1072.38 84.6419 1072.43 84.8221 1072.55 84.9695C1072.68 85.1275 1072.87 85.2213 1073.1 85.2511ZM1075.06 80.4083C1075.55 80.4715 1075.93 80.4075 1076.2 80.2163C1076.48 80.0171 1076.65 79.7138 1076.7 79.3065C1076.75 78.8992 1076.67 78.5684 1076.45 78.314C1076.23 78.0609 1075.88 77.9027 1075.39 77.8395C1074.9 77.7764 1074.52 77.8398 1074.24 78.0298C1073.97 78.2209 1073.81 78.5202 1073.76 78.9275C1073.72 79.1959 1073.74 79.4339 1073.82 79.6414C1073.9 79.8501 1074.05 80.0191 1074.25 80.1483C1074.46 80.2787 1074.73 80.3654 1075.06 80.4083Z" fill="white"/>
<rect x="657.831" y="8" width="58" height="30" rx="15" transform="rotate(7.33644 657.831 8)" fill="#ED9AB1"/>
<path d="M670.186 29.9252C669.353 29.8179 668.653 29.5913 668.086 29.2454C667.519 28.8995 667.108 28.4326 666.855 27.8447C666.611 27.2488 666.543 26.5389 666.649 25.715L667.421 19.7165L669.226 19.9489L668.461 25.8919C668.367 26.6232 668.485 27.203 668.816 27.6314C669.157 28.0518 669.679 28.3072 670.383 28.3978C671.086 28.4884 671.656 28.3736 672.093 28.0533C672.54 27.7251 672.81 27.1953 672.905 26.464L673.67 20.521L675.475 20.7534L674.702 26.7519C674.596 27.5758 674.346 28.2446 673.95 28.7583C673.556 29.2627 673.04 29.6104 672.404 29.8014C671.768 29.9924 671.029 30.0337 670.186 29.9252ZM675.396 30.4265L679.469 25.8694L676.942 20.9423L679.149 21.2265L680.85 24.678L680.92 24.687L683.44 21.7789L685.509 22.0453L681.817 26.1576L684.616 31.6136L682.422 31.3311L680.452 27.3369L680.368 27.3261L677.479 30.6947L675.396 30.4265ZM684.674 32.3128L688.992 21.8021L690.214 21.9594L685.896 32.4701L684.674 32.3128ZM693.889 32.9769C693.056 32.8697 692.356 32.6431 691.789 32.2971C691.222 31.9512 690.811 31.4843 690.557 30.8965C690.314 30.3005 690.246 29.5906 690.352 28.7668L691.124 22.7683L692.929 23.0007L692.164 28.9436C692.07 29.6749 692.188 30.2548 692.519 30.6832C692.86 31.1035 693.382 31.3589 694.086 31.4495C694.789 31.5401 695.359 31.4253 695.796 31.1051C696.243 30.7768 696.513 30.247 696.607 29.5157L697.372 23.5727L699.178 23.8051L698.405 29.8036C698.299 30.6275 698.048 31.2963 697.653 31.81C697.259 32.3144 696.743 32.6621 696.107 32.8531C695.471 33.0441 694.731 33.0854 693.889 32.9769ZM700.001 33.5945L701.227 24.0691L703.033 24.3015L701.806 33.8269L700.001 33.5945Z" fill="white"/>
<rect y="68.0679" width="87" height="30" rx="15" transform="rotate(-8.63873 0 68.0679)" fill="#ED9AB1"/>
<path d="M13.9425 86.1791L12.5 76.6841L16.3063 76.1058C17.266 75.96 18.1131 76.0059 18.8478 76.2436C19.5825 76.4813 20.1877 76.9227 20.6634 77.5679C21.1376 78.2039 21.4574 79.0663 21.6229 80.1552C21.7869 81.2348 21.7376 82.1533 21.4751 82.9106C21.2125 83.668 20.7658 84.2693 20.1348 84.7144C19.5038 85.1596 18.7085 85.455 17.7489 85.6008L13.9425 86.1791ZM15.5085 84.3694L17.5155 84.0645C17.9584 83.9972 18.3407 83.873 18.6625 83.692C18.9843 83.5109 19.2416 83.2783 19.4344 82.9941C19.6259 82.7007 19.7528 82.3557 19.8153 81.9591C19.8764 81.5534 19.8684 81.0967 19.7913 80.5892L19.7471 80.2985C19.6686 79.7818 19.5406 79.3434 19.3632 78.9833C19.1844 78.614 18.9607 78.3222 18.6921 78.1082C18.4222 77.8848 18.1067 77.7345 17.7457 77.6572C17.3846 77.5799 16.9826 77.5749 16.5397 77.6422L14.5328 77.9471L15.5085 84.3694ZM27.0136 84.3632C26.2385 84.481 25.5723 84.4453 25.0149 84.2562C24.4561 84.0579 24.0047 83.6969 23.6609 83.1733C23.317 82.6497 23.0791 81.9542 22.9474 81.0868C22.8142 80.2102 22.8347 79.4754 23.009 78.8825C23.1818 78.2804 23.5063 77.8063 23.9824 77.4602C24.4571 77.1049 25.082 76.8683 25.8571 76.7506C26.5583 76.644 27.1646 76.6888 27.6759 76.8849C28.1949 77.0704 28.6158 77.4171 28.9384 77.925C29.2611 78.433 29.4883 79.1207 29.62 79.9881L29.6957 80.4864L24.7406 81.2392C24.8277 81.6885 24.9551 82.0609 25.1228 82.3565C25.289 82.6427 25.5086 82.8454 25.7815 82.9644C26.0623 83.0728 26.4104 83.0954 26.8256 83.0323C27.0378 83.0001 27.232 82.9423 27.4081 82.8589C27.5843 82.7755 27.7331 82.6679 27.8547 82.5361C27.9749 82.3952 28.0586 82.2314 28.1058 82.0449C28.1622 81.8569 28.1729 81.6476 28.1378 81.4169L29.7988 81.1646C29.8689 81.6259 29.8468 82.04 29.7326 82.4066C29.6276 82.7719 29.4443 83.0876 29.1826 83.354C28.9302 83.6189 28.6187 83.8361 28.2479 84.0057C27.8772 84.1754 27.4658 84.2945 27.0136 84.3632ZM24.5874 80.0446L27.7571 79.5631C27.7108 79.2586 27.6346 79.0058 27.5286 78.8048C27.4317 78.6024 27.3082 78.4418 27.158 78.323C27.017 78.2028 26.8547 78.1283 26.6709 78.0996C26.4858 78.0617 26.2825 78.0595 26.061 78.0932C25.7012 78.1478 25.4058 78.2541 25.1749 78.4119C24.9532 78.5683 24.7967 78.7809 24.7053 79.0496C24.614 79.3184 24.5747 79.6501 24.5874 80.0446ZM33.4875 83.2097L29.6823 76.3393L31.454 76.0702L33.1289 79.1718C33.2081 79.3202 33.3049 79.5226 33.4194 79.779C33.5417 80.0248 33.6661 80.2844 33.7926 80.5578C33.9177 80.822 34.0255 81.0652 34.1159 81.2875L34.1851 81.277C34.2082 81.0564 34.2356 80.802 34.2674 80.514C34.2992 80.2259 34.3316 79.9425 34.3648 79.6637C34.4072 79.3835 34.4474 79.1508 34.4853 78.9657L35.1496 75.5087L36.8659 75.2479L35.2591 82.9406L33.4875 83.2097ZM42.0983 82.0714C41.3232 82.1892 40.657 82.1535 40.0996 81.9644C39.5408 81.7661 39.0895 81.4051 38.7456 80.8815C38.4017 80.3579 38.1639 79.6624 38.0321 78.795C37.8989 77.9184 37.9194 77.1837 38.0937 76.5908C38.2665 75.9886 38.591 75.5145 39.0671 75.1684C39.5418 74.8131 40.1667 74.5765 40.9418 74.4588C41.6431 74.3522 42.2493 74.397 42.7606 74.5931C43.2797 74.7786 43.7005 75.1253 44.0231 75.6333C44.3458 76.1412 44.573 76.8289 44.7047 77.6963L44.7805 78.1946L39.8253 78.9474C39.9125 79.3967 40.0398 79.7692 40.2075 80.0647C40.3737 80.351 40.5933 80.5536 40.8663 80.6726C41.1471 80.781 41.4951 80.8037 41.9103 80.7406C42.1225 80.7083 42.3167 80.6505 42.4929 80.5671C42.669 80.4837 42.8179 80.3761 42.9394 80.2444C43.0596 80.1034 43.1433 79.9396 43.1905 79.7531C43.2469 79.5651 43.2576 79.3558 43.2226 79.1251L44.8835 78.8728C44.9536 79.3342 44.9315 79.7482 44.8173 80.1148C44.7123 80.4801 44.529 80.7959 44.2674 81.0622C44.0149 81.3271 43.7034 81.5444 43.3327 81.714C42.9619 81.8836 42.5505 82.0027 42.0983 82.0714ZM39.6721 77.7529L42.8418 77.2713C42.7955 76.9668 42.7194 76.714 42.6133 76.513C42.5165 76.3106 42.3929 76.15 42.2427 76.0312C42.1017 75.911 41.9394 75.8366 41.7556 75.8078C41.5705 75.7699 41.3672 75.7677 41.1457 75.8014C40.7859 75.856 40.4905 75.9623 40.2596 76.1201C40.0379 76.2765 39.8814 76.4891 39.79 76.7579C39.6987 77.0266 39.6594 77.3583 39.6721 77.7529ZM46.7036 81.2018L45.1833 71.1947L46.8719 70.9381L48.3922 80.9453L46.7036 81.2018ZM53.455 80.346C52.6615 80.4666 51.9768 80.4337 51.4009 80.2474C50.8237 80.0519 50.3585 79.6931 50.0054 79.1709C49.6523 78.6486 49.4098 77.9538 49.278 77.0865C49.1449 76.2098 49.17 75.4744 49.3535 74.8801C49.5356 74.2766 49.8739 73.8003 50.3684 73.4514C50.8615 73.0933 51.5049 72.854 52.2985 72.7334C53.1012 72.6114 53.7866 72.6489 54.3547 72.8458C54.9305 73.0321 55.395 73.3864 55.7481 73.9086C56.0998 74.4216 56.3423 75.1164 56.4754 75.993C56.6072 76.8603 56.5821 77.5958 56.4 78.1993C56.2179 78.8029 55.8803 79.2837 55.3872 79.6418C54.9019 79.9893 54.2578 80.2241 53.455 80.346ZM53.2447 78.9619C53.6877 78.8946 54.0303 78.7576 54.2727 78.5509C54.5228 78.3335 54.682 78.045 54.7501 77.6853C54.826 77.3151 54.8247 76.8716 54.7462 76.3548L54.7167 76.161C54.6382 75.6443 54.5084 75.225 54.3274 74.9033C54.1542 74.5708 53.9165 74.3426 53.6145 74.2186C53.3202 74.0839 52.9517 74.0502 52.5087 74.1175C52.0658 74.1848 51.7193 74.3271 51.4691 74.5445C51.2267 74.7513 51.0676 75.0398 50.9917 75.41C50.9236 75.7697 50.9288 76.2079 51.0073 76.7246L51.0367 76.9184C51.1152 77.4351 51.2411 77.8597 51.4143 78.1921C51.5954 78.5139 51.833 78.7421 52.1273 78.8768C52.4293 79.0008 52.8018 79.0292 53.2447 78.9619ZM58.827 81.8097L57.3571 72.1348L58.7551 71.9224L59.0407 72.8702L59.1376 72.8555C59.32 72.4407 59.591 72.1116 59.9505 71.8682C60.3086 71.6156 60.723 71.4535 61.1936 71.382C61.7934 71.2909 62.3258 71.3468 62.7909 71.55C63.2653 71.7517 63.6605 72.1164 63.9767 72.6443C64.3022 73.1707 64.5322 73.8768 64.6668 74.7626C64.7985 75.63 64.7872 76.3634 64.6328 76.9627C64.4784 77.562 64.2093 78.0277 63.8255 78.3598C63.4509 78.6905 62.9914 78.8972 62.447 78.9799C62.1148 79.0304 61.8047 79.0397 61.5167 79.008C61.2286 78.9762 60.9673 78.9026 60.7326 78.7872C60.4966 78.6626 60.2879 78.5008 60.1066 78.3017L60.0236 78.3144L60.5156 81.5532L58.827 81.8097ZM61.6034 77.6212C62.0186 77.5581 62.3343 77.4299 62.5503 77.2366C62.7743 77.0327 62.9117 76.7569 62.9628 76.4093C63.023 76.0603 63.0146 75.632 62.9375 75.1245L62.9081 74.9307C62.8295 74.414 62.7097 73.9979 62.5485 73.6826C62.3951 73.3566 62.1819 73.1341 61.909 73.015C61.6438 72.8854 61.3036 72.8521 60.8884 72.9152C60.5101 72.9727 60.2097 73.108 59.9872 73.3212C59.7739 73.533 59.6332 73.8187 59.5651 74.1783C59.5048 74.5273 59.5119 74.9463 59.5862 75.4354L59.6114 75.6015C59.6661 75.9614 59.7474 76.2794 59.8555 76.5557C59.9621 76.8227 60.0948 77.0432 60.2534 77.2174C60.4213 77.3901 60.6144 77.5118 60.8328 77.5825C61.0605 77.6518 61.3173 77.6647 61.6034 77.6212ZM69.8077 77.8616C69.0326 77.9794 68.3664 77.9437 67.809 77.7546C67.2502 77.5563 66.7988 77.1953 66.455 76.6717C66.1111 76.1481 65.8732 75.4526 65.7415 74.5852C65.6083 73.7086 65.6288 72.9738 65.8031 72.3809C65.9759 71.7788 66.3004 71.3047 66.7765 70.9586C67.2511 70.6033 67.876 70.3667 68.6511 70.249C69.3524 70.1424 69.9587 70.1872 70.47 70.3833C70.989 70.5688 71.4099 70.9155 71.7325 71.4235C72.0551 71.9314 72.2823 72.6191 72.4141 73.4865L72.4898 73.9848L67.5347 74.7376C67.6218 75.1869 67.7492 75.5594 67.9168 75.8549C68.0831 76.1411 68.3027 76.3438 68.5756 76.4628C68.8564 76.5712 69.2044 76.5938 69.6197 76.5308C69.8319 76.4985 70.0261 76.4407 70.2022 76.3573C70.3784 76.2739 70.5272 76.1663 70.6488 76.0345C70.769 75.8936 70.8527 75.7298 70.8999 75.5433C70.9563 75.3553 70.967 75.146 70.9319 74.9153L72.5929 74.663C72.663 75.1244 72.6409 75.5384 72.5267 75.905C72.4217 76.2703 72.2384 76.586 71.9767 76.8524C71.7243 77.1173 71.4128 77.3345 71.042 77.5042C70.6713 77.6738 70.2599 77.7929 69.8077 77.8616ZM67.3815 73.543L70.5512 73.0615C70.5049 72.757 70.4287 72.5042 70.3227 72.3032C70.2258 72.1008 70.1023 71.9402 69.9521 71.8214C69.8111 71.7012 69.6487 71.6268 69.465 71.598C69.2799 71.5601 69.0766 71.5579 68.8551 71.5916C68.4953 71.6462 68.1999 71.7525 67.9689 71.9103C67.7473 72.0667 67.5907 72.2793 67.4994 72.548C67.4081 72.8168 67.3688 73.1485 67.3815 73.543ZM74.413 76.992L73.3069 69.7116L74.7187 69.4971L75.0316 70.6249L75.1285 70.6101C75.1858 70.3654 75.2643 70.1364 75.364 69.923C75.4716 69.6989 75.6224 69.5108 75.8164 69.3586C76.009 69.1972 76.2575 69.0934 76.562 69.0471C76.7097 69.0247 76.8456 69.0182 76.9697 69.0276C77.1031 69.0357 77.2042 69.0486 77.273 69.0665L77.5148 70.6583L77.0027 70.7361C76.7167 70.7795 76.4692 70.8596 76.2604 70.9763C76.0501 71.0838 75.8792 71.2324 75.7476 71.4224C75.6252 71.6109 75.546 71.8353 75.51 72.0957C75.474 72.3561 75.4813 72.6523 75.5318 72.9845L76.1016 76.7355L74.413 76.992Z" fill="white"/>
</svg>
