<svg width="1070" height="110" viewBox="0 0 1070 110" fill="none" xmlns="http://www.w3.org/2000/svg">
<path d="M90.64 16.8V76H67.84V54.32L57.28 76H36.88L25.6 54.08V76H2.8V16.8H28.4L47.12 55.12L65.76 16.8H90.64ZM163.678 32.4L136.558 85.6C135.278 88.4267 132.824 90.5333 129.198 91.92C125.624 93.3067 121.944 94.16 118.158 94.48C114.424 94.8 110.424 94.96 106.158 94.96V78.72C109.998 78.72 112.478 78.5333 113.598 78.16C114.718 77.7867 115.118 77.2 114.798 76.4L92.2375 32.4H114.718L127.998 61.44L141.198 32.4H163.678ZM207.527 40.24C212.007 35.3333 218.941 32.4 228.328 31.44V46.72H217.127C214.141 46.72 211.821 47.8933 210.167 50.24C208.514 52.5867 207.687 55.6267 207.687 59.36V76H186.487V32.4H206.007L207.527 40.24ZM260.857 30.56C266.83 30.56 272.19 31.5733 276.937 33.6C281.684 35.6267 285.417 38.4533 288.137 42.08C290.857 45.6533 292.217 49.68 292.217 54.16C292.217 58.5867 290.857 62.6133 288.137 66.24C285.417 69.8133 281.657 72.6133 276.857 74.64C272.11 76.6667 266.777 77.68 260.857 77.68C255.15 77.68 249.79 76.6667 244.777 74.64C239.764 72.56 235.764 69.7333 232.777 66.16C229.79 62.5333 228.297 58.5333 228.297 54.16C228.297 49.7333 229.79 45.7333 232.777 42.16C235.764 38.5333 239.737 35.7067 244.697 33.68C249.71 31.6 255.097 30.56 260.857 30.56ZM260.857 64.8C262.67 64.8 264.35 64.3733 265.897 63.52C267.497 62.6667 268.777 61.44 269.737 59.84C270.697 58.24 271.177 56.3467 271.177 54.16C271.177 51.9733 270.697 50.08 269.737 48.48C268.777 46.88 267.497 45.6533 265.897 44.8C264.35 43.9467 262.67 43.52 260.857 43.52C259.097 43.52 257.337 43.9467 255.577 44.8C253.87 45.6533 252.457 46.9067 251.337 48.56C250.27 50.16 249.737 52.0267 249.737 54.16C249.737 56.2933 250.27 58.1867 251.337 59.84C252.457 61.44 253.87 62.6667 255.577 63.52C257.337 64.3733 259.097 64.8 260.857 64.8ZM313.784 76H292.584V16.8H313.784V76ZM377.439 56.4H335.839C336.213 59.44 337.279 61.8933 339.039 63.76C340.853 65.6267 343.306 66.56 346.399 66.56C348.853 66.56 351.119 66 353.199 64.88C355.279 63.76 356.319 61.6 356.319 58.4H377.439C377.439 65.2267 374.746 70.1333 369.359 73.12C364.026 76.1067 356.373 77.6 346.399 77.6C340.319 77.6 334.826 76.6133 329.919 74.64C325.013 72.6667 321.146 69.8933 318.319 66.32C315.546 62.6933 314.159 58.56 314.159 53.92C314.159 49.2267 315.573 45.0933 318.399 41.52C321.226 37.8933 325.093 35.12 329.999 33.2C334.906 31.2267 340.373 30.24 346.399 30.24C352.533 30.24 357.919 31.2 362.559 33.12C367.253 35.04 370.879 37.76 373.439 41.28C376.053 44.7467 377.386 48.8267 377.439 53.52V56.4ZM346.399 40.88C343.253 40.88 340.879 41.5467 339.279 42.88C337.733 44.16 336.693 46.0267 336.159 48.48H355.919C355.493 46.0267 354.533 44.16 353.039 42.88C351.599 41.5467 349.386 40.88 346.399 40.88ZM421.641 16.8H400.441V30.08H421.641V16.8ZM421.641 76H400.441V32.4H421.641V76ZM462.496 30.96C469.216 30.96 474.416 33.0933 478.096 37.36C481.829 41.5733 483.696 48.4533 483.696 58V76H462.496V58.24C462.496 54.8267 462.336 52.1867 462.016 50.32C461.749 48.4 461.002 46.8267 459.776 45.6C458.549 44.32 456.576 43.68 453.856 43.68C450.922 43.68 448.762 44.2667 447.376 45.44C446.042 46.56 445.216 48.08 444.896 50C444.576 51.8667 444.416 54.5333 444.416 58V76H423.216V32.4H444.416V37.6C448.416 33.1733 454.442 30.96 462.496 30.96ZM536.801 32.4H545.121V46.4H536.801V76H515.601V46.4H506.881V32.4H515.601V22.96L536.801 15.52V32.4ZM585.586 30.96C592.306 30.96 597.506 33.0933 601.186 37.36C604.92 41.5733 606.786 48.4533 606.786 58V76H585.586V58.24C585.586 54.8267 585.426 52.1867 585.106 50.32C584.84 48.4 584.093 46.8267 582.866 45.6C581.64 44.32 579.666 43.68 576.946 43.68C574.066 43.68 571.933 44.3467 570.546 45.68C569.16 46.96 568.306 48.56 567.986 50.48C567.666 52.3467 567.506 54.8533 567.506 58V76H546.306V16.8H567.506V37.52C571.506 33.1467 577.533 30.96 585.586 30.96ZM629.188 16.8H607.988V30.08H629.188V16.8ZM629.188 76H607.988V32.4H629.188V76ZM661.162 49.84C662.816 49.84 664.096 49.8133 665.002 49.76L670.042 49.68C676.389 49.68 681.536 50.5067 685.482 52.16C689.482 53.76 691.482 56.96 691.482 61.76C691.482 68.0533 688.416 72.32 682.282 74.56C676.149 76.7467 669.242 77.84 661.562 77.84C653.829 77.84 646.736 76.7467 640.282 74.56C633.882 72.32 630.682 68.0533 630.682 61.76H652.122C652.122 64.16 653.002 65.68 654.762 66.32C656.522 66.9067 658.789 67.2 661.562 67.2C667.429 67.2 670.362 65.4667 670.362 62C670.362 60.5067 669.482 59.5467 667.722 59.12C666.016 58.6933 663.856 58.48 661.242 58.48L655.002 58.56C647.909 58.56 642.069 57.7333 637.482 56.08C632.949 54.4267 630.682 50.9867 630.682 45.76C630.682 39.52 633.776 35.44 639.962 33.52C646.202 31.6 653.402 30.64 661.562 30.64C669.242 30.64 676.149 31.7333 682.282 33.92C688.416 36.1067 691.482 40.3467 691.482 46.64H670.362C670.362 44.9867 669.509 43.7333 667.802 42.88C666.096 42.0267 664.016 41.5733 661.562 41.52C658.949 41.52 656.709 41.84 654.842 42.48C653.029 43.12 652.122 44.1333 652.122 45.52C652.122 48.24 655.136 49.68 661.162 49.84ZM777.161 55.2C777.055 58.9867 776.095 62.5867 774.281 66C772.468 69.4133 769.961 72.1867 766.761 74.32C763.561 76.4 759.961 77.44 755.961 77.44C746.788 77.44 739.961 75.44 735.481 71.44V91.2H714.281V32.4H733.961L734.921 37.76C739.348 33.28 746.361 31.1733 755.961 31.44C760.068 31.44 763.695 32.4533 766.841 34.48C770.041 36.5067 772.548 39.28 774.361 42.8C776.175 46.32 777.108 50.2667 777.161 54.64V54.88V55.2ZM735.481 54.24C735.481 57.76 736.388 60.48 738.201 62.4C740.068 64.32 742.495 65.28 745.481 65.28C748.788 65.28 751.348 64.2933 753.161 62.32C754.975 60.2933 755.908 57.7867 755.961 54.8C755.908 51.3333 754.975 48.5867 753.161 46.56C751.401 44.48 748.841 43.44 745.481 43.44C742.655 43.44 740.281 44.48 738.361 46.56C736.441 48.5867 735.481 51.0667 735.481 54V54.24ZM799.112 40.24C803.592 35.3333 810.525 32.4 819.912 31.44V46.72H808.712C805.725 46.72 803.405 47.8933 801.752 50.24C800.099 52.5867 799.272 55.6267 799.272 59.36V76H778.072V32.4H797.592L799.112 40.24ZM852.441 30.56C858.415 30.56 863.775 31.5733 868.521 33.6C873.268 35.6267 877.001 38.4533 879.721 42.08C882.441 45.6533 883.801 49.68 883.801 54.16C883.801 58.5867 882.441 62.6133 879.721 66.24C877.001 69.8133 873.241 72.6133 868.441 74.64C863.695 76.6667 858.361 77.68 852.441 77.68C846.735 77.68 841.375 76.6667 836.361 74.64C831.348 72.56 827.348 69.7333 824.361 66.16C821.375 62.5333 819.881 58.5333 819.881 54.16C819.881 49.7333 821.375 45.7333 824.361 42.16C827.348 38.5333 831.321 35.7067 836.281 33.68C841.295 31.6 846.681 30.56 852.441 30.56ZM852.441 64.8C854.255 64.8 855.935 64.3733 857.481 63.52C859.081 62.6667 860.361 61.44 861.321 59.84C862.281 58.24 862.761 56.3467 862.761 54.16C862.761 51.9733 862.281 50.08 861.321 48.48C860.361 46.88 859.081 45.6533 857.481 44.8C855.935 43.9467 854.255 43.52 852.441 43.52C850.681 43.52 848.921 43.9467 847.161 44.8C845.455 45.6533 844.041 46.9067 842.921 48.56C841.855 50.16 841.321 52.0267 841.321 54.16C841.321 56.2933 841.855 58.1867 842.921 59.84C844.041 61.44 845.455 62.6667 847.161 63.52C848.921 64.3733 850.681 64.8 852.441 64.8ZM884.889 30V16.8H906.089V30H884.889ZM884.889 32.4H906.089V77.92C906.089 84.2667 903.582 88.5867 898.569 90.88C893.609 93.2267 888.009 94.4 881.769 94.4C879.689 94.4 877.822 94.2933 876.169 94.08V77.84C878.782 77.84 880.702 77.68 881.929 77.36C883.102 77.0933 883.875 76.6133 884.249 75.92C884.675 75.1733 884.889 74.0267 884.889 72.48V32.4ZM969.805 56.4H928.205C928.578 59.44 929.645 61.8933 931.405 63.76C933.218 65.6267 935.672 66.56 938.765 66.56C941.218 66.56 943.485 66 945.565 64.88C947.645 63.76 948.685 61.6 948.685 58.4H969.805C969.805 65.2267 967.112 70.1333 961.725 73.12C956.392 76.1067 948.738 77.6 938.765 77.6C932.685 77.6 927.192 76.6133 922.285 74.64C917.378 72.6667 913.512 69.8933 910.685 66.32C907.912 62.6933 906.525 58.56 906.525 53.92C906.525 49.2267 907.938 45.0933 910.765 41.52C913.592 37.8933 917.458 35.12 922.365 33.2C927.272 31.2267 932.738 30.24 938.765 30.24C944.898 30.24 950.285 31.2 954.925 33.12C959.618 35.04 963.245 37.76 965.805 41.28C968.418 44.7467 969.752 48.8267 969.805 53.52V56.4ZM938.765 40.88C935.618 40.88 933.245 41.5467 931.645 42.88C930.098 44.16 929.058 46.0267 928.525 48.48H948.285C947.858 46.0267 946.898 44.16 945.405 42.88C943.965 41.5467 941.752 40.88 938.765 40.88ZM969.222 54.56C969.222 50.08 970.582 46.0533 973.302 42.48C976.022 38.8533 979.729 36.0267 984.422 34C989.169 31.9733 994.395 30.96 1000.1 30.96C1005.49 30.96 1010.29 31.8133 1014.5 33.52C1018.77 35.1733 1022.18 37.4933 1024.74 40.48C1027.36 43.4667 1029.01 46.9067 1029.7 50.8H1008.5C1007.97 48.6133 1006.96 46.9333 1005.46 45.76C1003.97 44.5333 1002.18 43.92 1000.1 43.92C997.435 43.92 995.195 44.88 993.382 46.8C991.569 48.6667 990.662 51.2533 990.662 54.56C990.662 57.8667 991.569 60.48 993.382 62.4C995.195 64.2667 997.435 65.2 1000.1 65.2C1002.24 65.2 1004.02 64.6133 1005.46 63.44C1006.9 62.2667 1007.89 60.5867 1008.42 58.4H1029.62C1028.93 62.24 1027.28 65.6533 1024.66 68.64C1022.1 71.6267 1018.69 73.9733 1014.42 75.68C1010.21 77.3333 1005.44 78.16 1000.1 78.16C994.395 78.16 989.169 77.1467 984.422 75.12C979.729 73.04 976.022 70.2133 973.302 66.64C970.582 63.0133 969.222 58.9867 969.222 54.56ZM1059.59 32.4H1067.91V46.4H1059.59V76H1038.39V46.4H1029.67V32.4H1038.39V22.96L1059.59 15.52V32.4Z" fill="#333333"/>
<rect x="647.831" y="8" width="58" height="30" rx="15" transform="rotate(7.33644 647.831 8)" fill="#ED9AB1"/>
<path d="M660.186 29.9252C659.353 29.8179 658.653 29.5913 658.086 29.2454C657.519 28.8995 657.108 28.4326 656.855 27.8447C656.611 27.2488 656.543 26.5389 656.649 25.715L657.421 19.7165L659.226 19.9489L658.461 25.8919C658.367 26.6232 658.485 27.203 658.816 27.6314C659.157 28.0518 659.679 28.3072 660.383 28.3978C661.086 28.4884 661.656 28.3736 662.093 28.0533C662.54 27.7251 662.81 27.1953 662.905 26.464L663.67 20.521L665.475 20.7534L664.702 26.7519C664.596 27.5758 664.346 28.2446 663.95 28.7583C663.556 29.2627 663.04 29.6104 662.404 29.8014C661.768 29.9924 661.029 30.0337 660.186 29.9252ZM665.396 30.4265L669.469 25.8694L666.942 20.9423L669.149 21.2265L670.85 24.678L670.92 24.687L673.44 21.7789L675.509 22.0453L671.817 26.1576L674.616 31.6136L672.422 31.3311L670.452 27.3369L670.368 27.3261L667.479 30.6947L665.396 30.4265ZM674.674 32.3128L678.992 21.8021L680.214 21.9594L675.896 32.4701L674.674 32.3128ZM683.889 32.9769C683.056 32.8697 682.356 32.6431 681.789 32.2971C681.222 31.9512 680.811 31.4843 680.557 30.8965C680.314 30.3005 680.246 29.5906 680.352 28.7668L681.124 22.7683L682.929 23.0007L682.164 28.9436C682.07 29.6749 682.188 30.2548 682.519 30.6832C682.86 31.1035 683.382 31.3589 684.086 31.4495C684.789 31.5401 685.359 31.4253 685.796 31.1051C686.243 30.7768 686.513 30.247 686.607 29.5157L687.372 23.5727L689.178 23.8051L688.405 29.8036C688.299 30.6275 688.048 31.2963 687.653 31.81C687.259 32.3144 686.743 32.6621 686.107 32.8531C685.471 33.0441 684.731 33.0854 683.889 32.9769ZM690.001 33.5945L691.227 24.0691L693.033 24.3015L691.806 33.8269L690.001 33.5945Z" fill="white"/>
</svg>
