<svg width="2655" height="5050" viewBox="0 0 2655 5050" fill="none" xmlns="http://www.w3.org/2000/svg">
<path d="M2259.31 591.848C2192.03 550.119 2076.01 560.434 2076.01 560.434C2030.55 562.481 1964.28 570.713 1891.89 601.18C1850.5 618.603 1841.48 629.037 1722.57 703.191C1600.55 779.243 1567.97 796.359 1519.54 809.399C1473.42 821.812 1431.89 832.363 1383.28 816.616C1332.8 800.277 1271.67 754.493 1261.65 684.522C1252.87 623.265 1287.86 575.442 1296.58 564.243C1352.59 492.598 1462.92 478.203 1530.58 487.475C1547.22 489.771 1563.84 493.843 1565.23 490.085C1568.29 481.946 1502.54 437.678 1426.55 422.596C1399.77 417.282 1307.89 400.532 1218.05 455.746C1141.22 502.927 1112.35 574.139 1103.22 597.595C1095.23 618.096 1077.91 664.182 1083.97 724.426C1091.94 803.911 1135.38 856.208 1157.31 881.88C1177.53 905.526 1233.89 964.729 1326.28 987.319C1377.56 999.857 1418.98 996.003 1447.92 993.043C1521.58 985.531 1574.25 960.397 1616.29 939.872C1674.32 911.523 1714.94 881.556 1796.16 821.622C1813.5 808.817 1856.33 777.39 1917.46 736.473C1924.65 731.649 1932.11 726.836 1941.24 721.01C2035.19 661.194 2084.09 640.793 2109.08 631.208C2156.38 613.124 2216.95 596.263 2246.44 600.162C2249.33 600.518 2266.08 603.014 2267.19 599.509C2267.95 597.179 2261.56 593.224 2259.37 591.866L2259.31 591.848Z" fill="#74BDFF"/>
<path d="M2458.18 737.881C2458.44 727.058 2392.82 717.618 2387.72 716.906C2348.67 711.44 2284.18 703.044 2198.9 723.013C2121.42 741.199 2069.33 772.865 2014.54 806.148C1958.77 840.015 1908.95 879.116 1862.03 915.919C1842.23 931.458 1826.87 944.077 1787 975.142C1738.66 1012.87 1714.48 1031.71 1700.86 1041.32C1627.59 1093.05 1563.64 1120.92 1524 1137.92C1468.27 1161.81 1441.02 1167.79 1426.6 1170.57C1386.73 1178.25 1355.1 1177.38 1337.06 1176.82C1284.32 1175.08 1239.79 1162.94 1239.79 1162.94C1211.14 1155.42 1193.79 1147.6 1190.9 1152.32C1186.95 1158.82 1214.08 1181.93 1224.07 1190.42C1257.69 1219.1 1290.12 1235.72 1309.33 1244.57C1354.69 1265.54 1392.96 1273.19 1407.94 1275.87C1437.49 1281.14 1466.17 1286.2 1502.26 1281.03C1558.82 1272.87 1581.96 1246.92 1595.83 1258.18C1610.6 1270.15 1586.17 1300.69 1590.85 1349.49C1597.5 1418.49 1656.63 1463.65 1667.47 1471.89C1715.01 1508.18 1764.51 1512.45 1793.36 1514.88C1844.53 1519.28 1883.41 1508.24 1894.99 1504.72C1951.08 1487.64 1985.76 1455.91 2010.47 1433.25C2052.38 1394.85 2074.34 1356.47 2091.55 1326.57C2105.28 1302.7 2116.07 1283.74 2123.72 1255.91C2137.54 1205.95 2135.34 1149.38 2122.84 1146.5C2112.64 1144.14 2104.31 1179.61 2066.97 1230.57C2052.27 1250.65 2023.22 1286.55 1981.11 1317.69C1938.45 1349.23 1894.33 1381.82 1838.05 1376.14C1795.82 1371.88 1741.48 1345.54 1731.35 1301.92C1724.78 1273.69 1737.94 1248.27 1757.28 1218.19C1785.22 1174.86 1812.08 1151.87 1859.84 1108.29C1941.14 1034.11 1925.56 1043.84 1970.74 1004.97C2022.61 960.354 2063.56 929.948 2098.33 904.231C2153.23 863.679 2181.07 846.431 2192.2 839.683C2237.48 812.217 2268.28 798.506 2278.38 794.076C2292.57 787.903 2303.49 783.753 2309.17 781.609C2395.34 749.287 2457.78 748.26 2458.06 737.743L2458.18 737.881Z" fill="#74BDFF"/>
<path d="M1280.26 3912.65C1279.94 3991.82 1349.47 4085.26 1349.47 4085.26C1375.02 4122.92 1416.74 4175.07 1480.6 4220.79C1517.11 4246.92 1530.73 4249.15 1656.17 4311.62C1784.85 4375.75 1816.5 4394.55 1852.96 4428.98C1887.69 4461.77 1918.42 4491.63 1930.46 4541.28C1942.98 4592.85 1935.98 4668.9 1881.62 4714.08C1834.03 4753.64 1774.96 4748.87 1760.86 4747.3C1670.49 4737.1 1600.45 4650.64 1572.92 4588.14C1566.16 4572.76 1560.93 4556.47 1557 4557.26C1548.46 4558.91 1545.18 4638.11 1572.12 4710.74C1581.62 4736.34 1615.46 4823.39 1709.54 4871.02C1789.97 4911.77 1865.75 4899.07 1890.52 4894.57C1912.17 4890.64 1960.5 4881.26 2008.65 4844.56C2072.2 4796.15 2094 4731.75 2104.39 4699.62C2113.95 4670.02 2134.87 4591 2105.74 4500.46C2089.57 4450.21 2064.6 4416.94 2046.92 4393.83C2001.95 4335.01 1952.96 4303.3 1913.46 4278.23C1858.92 4243.64 1812.12 4224.73 1718.53 4186.91C1698.54 4178.85 1649.34 4158.81 1582.47 4128.16C1574.6 4124.56 1566.59 4120.73 1556.84 4116C1456.69 4067.28 1413.71 4036.3 1392.45 4020.03C1352.28 3989.2 1306.2 3946.43 1294.08 3919.26C1292.87 3916.62 1286.22 3901.04 1282.66 3901.93C1280.27 3902.5 1280.25 3910.02 1280.24 3912.59L1280.26 3912.65Z" fill="#74BDFF"/>
<path d="M1300.53 3666.76C1291.17 3672.2 1317.49 3733.05 1319.56 3737.77C1335.35 3773.9 1361.97 3833.24 1423.63 3895.43C1479.7 3951.92 1533.95 3979.71 1590.99 4008.96C1649.05 4038.74 1708.45 4060.72 1764.38 4081.42C1787.98 4090.15 1806.78 4096.63 1854.12 4114.33C1911.57 4135.75 1940.28 4146.49 1955.6 4153.07C2038.05 4188.4 2095.27 4228.28 2130.51 4253.16C2180.04 4288.12 2199.41 4308.21 2209.32 4319.04C2236.74 4348.98 2252.57 4376.39 2261.54 4392.05C2287.67 4437.89 2300.64 4482.19 2300.64 4482.19C2309.24 4510.53 2311.66 4529.41 2317.2 4529.4C2324.8 4529.36 2330.29 4494.14 2332.29 4481.18C2339.12 4437.52 2336.3 4401.19 2333.78 4380.2C2327.89 4330.57 2314.37 4293.96 2308.81 4279.79C2297.82 4251.86 2287.12 4224.78 2263.82 4196.74C2227.25 4152.82 2193.03 4146.7 2195.36 4128.99C2197.82 4110.13 2236.63 4114.96 2275.75 4085.41C2331.06 4043.62 2338.56 3969.6 2339.91 3956.05C2345.93 3896.55 2323.65 3852.14 2310.61 3826.29C2287.56 3780.39 2257.8 3753.04 2248.74 3745.02C2204.82 3706.18 2159.62 3693.25 2127.38 3684.06C2072.73 3668.46 2028.53 3669.86 1994.05 3670.85C1966.52 3671.65 1944.71 3672.38 1917 3680.45C1867.2 3694.82 1820.16 3726.32 1824.25 3738.48C1827.58 3748.41 1862.16 3736.94 1925.13 3742.06C1949.93 3744.06 1995.73 3750.02 2044.31 3769.59C2093.52 3789.42 2144.39 3809.94 2169.01 3860.86C2187.5 3899.07 2193.52 3959.15 2161.65 3990.63C2141.04 4011.01 2112.5 4013.11 2076.74 4012.38C2025.2 4011.26 1991.55 4000.42 1929.41 3982.55C1823.64 3952.13 1840.09 3960.31 1783.32 3942.17C1718.15 3921.35 1670.8 3902.38 1630.68 3886.23C1567.39 3860.69 1538.11 3846 1526.54 3840.05C1479.43 3815.85 1451.62 3796.8 1442.56 3790.51C1429.87 3781.66 1420.61 3774.53 1415.81 3770.8C1343.16 3714.32 1309.58 3661.66 1300.48 3666.94L1300.53 3666.76Z" fill="#74BDFF"/>
<path d="M2016.41 2788.06C1995.19 2671.77 1867.54 2553.67 1867.54 2553.67C1819.73 2505.4 1744.22 2440.29 1637.96 2390.68C1577.21 2362.32 1556.62 2362.78 1355.4 2305.45C1148.96 2246.57 1097.37 2227.65 1034.41 2187.11C974.464 2148.49 921.177 2113.09 889.91 2043.51C857.419 1971.26 846.856 1857.71 914.268 1776.51C973.279 1705.42 1061.28 1696.24 1082.41 1694.67C1217.84 1684.9 1344.31 1792.61 1401.84 1876.8C1415.97 1897.52 1428.11 1920 1433.66 1917.77C1445.74 1913 1428.87 1795.86 1369.43 1696.64C1348.48 1661.67 1274.97 1543.18 1123.83 1499.04C994.634 1461.26 886.881 1500.66 851.763 1514.04C821.067 1525.74 752.7 1552.75 692.08 1619.81C612.073 1708.26 597.711 1808.75 591.266 1858.75C585.341 1904.82 576.274 2026.52 643.836 2151.43C681.331 2220.76 727.096 2262.75 759.367 2291.82C841.486 2365.84 922.075 2398.96 986.917 2424.93C1076.44 2460.77 1150.3 2475.7 1298.03 2505.57C1329.57 2511.93 1407.27 2527.86 1513.82 2554.54C1526.36 2557.66 1539.16 2561.09 1554.76 2565.37C1715.09 2609.43 1786.67 2643.13 1822.32 2661.19C1889.73 2695.43 1969.08 2745.59 1994.31 2782.14C1996.81 2785.69 2010.83 2806.74 2015.82 2804.45C2019.16 2802.96 2017.14 2791.92 2016.45 2788.14L2016.41 2788.06Z" fill="#74BDFF"/>
<path d="M2054 3154.51C2066.24 3143.96 2010.95 3061.86 2006.62 3055.5C1973.55 3006.79 1918.23 2926.99 1810.69 2852.6C1712.93 2785.05 1625.69 2759.12 1533.95 2731.81C1440.59 2704.01 1347.38 2688.03 1259.63 2672.96C1222.6 2666.61 1193.23 2662.25 1118.91 2649.24C1028.71 2633.53 983.628 2625.64 959.346 2620.18C828.665 2590.91 733.752 2548.04 675.213 2521.19C592.939 2483.43 559.011 2459.26 541.495 2446.08C493.05 2409.64 462.318 2373.75 444.865 2353.23C393.945 2293.1 362.774 2231.64 362.774 2231.64C342.394 2192.4 333.668 2165.35 325.545 2166.89C314.396 2169.02 315.993 2222.22 316.601 2241.78C318.536 2307.73 332.634 2360.28 342.082 2390.4C364.319 2461.63 394.181 2511.66 406.229 2530.93C430.011 2568.92 453.125 2605.73 495.01 2640.51C560.715 2694.95 612.62 2694.55 614.053 2721.19C615.607 2749.54 557.316 2753.09 507.989 2807.17C438.269 2883.66 447.524 2994.36 449.262 3014.61C456.72 3103.59 501.585 3162.66 527.799 3197.03C574.202 3258.09 625.373 3290.08 640.868 3299.37C715.975 3344.34 785.848 3350.94 835.684 3355.59C920.178 3363.52 984.661 3349.37 1035 3338.46C1075.19 3329.75 1106.99 3322.7 1145.46 3303.28C1214.61 3268.53 1275.03 3209.42 1265.69 3192.69C1258.09 3179.04 1210.47 3205.35 1116.65 3215.07C1079.69 3218.93 1010.85 3222.73 934.193 3207.31C856.531 3191.69 776.251 3175.5 726.157 3107.51C688.56 3056.49 663.272 2969.95 701.415 2915.04C726.086 2879.48 767.406 2868.57 820.08 2859.86C896.034 2847.37 948.397 2854.07 1044.5 2863.28C1208.06 2878.95 1181.68 2871.45 1269.97 2882.52C1371.33 2895.24 1446.01 2910.1 1509.32 2922.83C1609.21 2942.97 1656.2 2956.52 1674.82 2962.07C1750.6 2984.68 1796.63 3005.04 1811.65 3011.78C1832.7 3021.3 1848.24 3029.23 1856.31 3033.38C1978.41 3096.37 2042.11 3164.47 2054.03 3154.24L2054 3154.51Z" fill="#74BDFF"/>
</svg>
