<svg width="734" height="950" viewBox="0 0 734 950" fill="none" xmlns="http://www.w3.org/2000/svg">
<path d="M574.631 150.539C557.517 139.925 528.008 142.549 528.008 142.549C516.446 143.069 499.589 145.163 481.177 152.912C470.65 157.344 468.353 159.998 438.11 178.859C407.073 198.203 398.786 202.557 386.468 205.873C374.737 209.031 364.174 211.714 351.811 207.709C338.971 203.553 323.422 191.908 320.872 174.111C318.638 158.53 327.539 146.366 329.756 143.517C344.003 125.294 372.067 121.633 389.276 123.991C393.509 124.575 397.736 125.611 398.09 124.655C398.868 122.585 382.144 111.325 362.816 107.489C356.004 106.137 332.635 101.877 309.782 115.921C290.241 127.921 282.898 146.034 280.575 152.001C278.543 157.215 274.138 168.937 275.679 184.26C277.705 204.478 288.756 217.779 294.334 224.309C299.476 230.324 313.812 245.382 337.312 251.128C350.355 254.317 360.89 253.337 368.251 252.584C386.988 250.673 400.383 244.28 411.077 239.06C425.837 231.849 436.167 224.227 456.828 208.983C461.237 205.725 472.132 197.732 487.681 187.325C489.509 186.097 491.406 184.873 493.729 183.391C517.624 168.177 530.062 162.988 536.419 160.55C548.451 155.95 563.856 151.662 571.357 152.653C572.092 152.744 576.353 153.379 576.635 152.487C576.829 151.895 575.203 150.889 574.647 150.543L574.631 150.539Z" fill="#74BDFF"/>
<path d="M625.215 187.683C625.281 184.93 608.59 182.529 607.292 182.348C597.359 180.957 580.957 178.822 559.266 183.901C539.558 188.526 526.31 196.581 512.374 205.047C498.189 213.661 485.515 223.606 473.581 232.967C468.545 236.919 464.637 240.129 454.498 248.031C442.202 257.626 436.052 262.419 432.586 264.862C413.95 278.022 397.686 285.11 387.602 289.434C373.427 295.509 366.496 297.032 362.829 297.737C352.688 299.691 344.642 299.469 340.054 299.328C326.639 298.886 315.312 295.797 315.312 295.797C308.026 293.885 303.612 291.895 302.878 293.097C301.872 294.749 308.774 300.628 311.315 302.788C319.866 310.083 328.115 314.31 333 316.559C344.539 321.894 354.271 323.841 358.082 324.522C365.6 325.861 372.892 327.15 382.072 325.835C396.459 323.759 402.343 317.158 405.872 320.023C409.63 323.067 403.415 330.836 404.607 343.248C406.298 360.798 421.338 372.284 424.094 374.38C436.186 383.61 448.776 384.696 456.114 385.314C469.131 386.433 479.02 383.626 481.965 382.731C496.232 378.386 505.053 370.315 511.338 364.552C521.998 354.786 527.582 345.024 531.96 337.418C535.453 331.347 538.198 326.524 540.143 319.444C543.659 306.739 543.099 292.349 539.92 291.617C537.326 291.016 535.205 300.037 525.708 312.999C521.97 318.108 514.58 327.239 503.87 335.159C493.019 343.182 481.797 351.471 467.482 350.026C456.74 348.942 442.919 342.244 440.343 331.148C438.672 323.967 442.018 317.501 446.939 309.852C454.044 298.831 460.877 292.983 473.025 281.897C493.703 263.029 489.74 265.504 501.232 255.617C514.426 244.269 524.84 236.535 533.685 229.994C547.649 219.68 554.731 215.293 557.561 213.576C569.08 206.59 576.913 203.103 579.481 201.976C583.089 200.406 585.868 199.35 587.314 198.805C609.23 190.584 625.114 190.322 625.183 187.647L625.215 187.683Z" fill="#74BDFF"/>
<path d="M516.554 576.769C527.522 583.16 546.071 580.995 546.071 580.995C553.348 580.467 563.934 578.855 575.402 573.653C581.958 570.678 583.359 568.966 602.089 556.556C621.312 543.829 626.458 540.942 634.163 538.638C641.5 536.445 648.11 534.571 655.969 536.88C664.133 539.276 674.132 546.345 676.048 557.515C677.726 567.295 672.328 575.114 670.98 576.948C662.318 588.678 644.698 591.471 633.813 590.284C631.135 589.989 628.454 589.41 628.248 590.018C627.793 591.336 638.527 598.141 650.773 600.224C655.088 600.957 669.888 603.237 684.045 593.991C696.15 586.09 700.463 574.549 701.824 570.749C703.014 567.428 705.586 559.965 704.35 550.336C702.722 537.632 695.528 529.441 691.9 525.423C688.556 521.723 679.261 512.482 664.353 509.269C656.079 507.486 649.457 508.286 644.832 508.888C633.058 510.417 624.728 514.678 618.08 518.153C608.904 522.952 602.527 527.935 589.773 537.899C587.05 540.028 580.324 545.254 570.707 552.081C569.576 552.886 568.402 553.69 566.963 554.665C552.17 564.666 544.422 568.151 540.459 569.798C532.957 572.905 523.324 575.875 518.58 575.38C518.116 575.335 515.42 575.009 515.257 575.576C515.146 575.953 516.188 576.558 516.544 576.766L516.554 576.769Z" fill="#74BDFF"/>
<path d="M484.035 554.241C484.041 555.977 494.601 557.2 495.422 557.292C501.705 557.996 512.077 559.057 525.658 555.48C537.996 552.224 546.204 546.919 554.839 541.342C563.628 535.668 571.442 529.182 578.8 523.076C581.905 520.498 584.311 518.408 590.564 513.253C598.145 506.993 601.937 503.866 604.079 502.267C615.594 493.651 625.72 488.903 631.999 486.004C640.826 481.929 645.167 480.85 647.466 480.342C653.821 478.935 658.896 478.935 661.789 478.945C670.25 478.99 677.441 480.741 677.441 480.741C682.066 481.819 684.882 482.997 685.323 482.226C685.928 481.168 681.477 477.583 679.839 476.266C674.324 471.817 669.052 469.297 665.936 467.964C658.572 464.803 652.405 463.744 649.992 463.381C645.232 462.668 640.614 461.982 634.852 462.97C625.823 464.528 622.229 468.789 619.956 467.045C617.535 465.192 621.317 460.189 620.35 452.388C618.981 441.358 609.304 434.382 607.531 433.109C599.752 427.502 591.799 427.036 587.165 426.774C578.943 426.295 572.76 428.235 570.92 428.85C562.005 431.835 556.587 437.074 552.726 440.814C546.178 447.153 542.829 453.402 540.202 458.27C538.106 462.156 536.46 465.243 535.357 469.738C533.362 477.805 533.964 486.863 535.98 487.269C537.625 487.603 538.805 481.881 544.565 473.549C546.832 470.265 551.33 464.383 557.941 459.207C564.64 453.963 571.568 448.545 580.613 449.207C587.401 449.704 596.226 453.685 598.042 460.633C599.219 465.128 597.223 469.261 594.255 474.167C589.968 481.234 585.764 485.038 578.302 492.234C565.599 504.482 568.053 502.854 560.983 509.283C552.866 516.662 546.438 521.716 540.978 525.992C532.357 532.733 527.971 535.62 526.217 536.751C519.08 541.353 514.205 543.686 512.606 544.441C510.359 545.493 508.626 546.206 507.725 546.575C494.057 552.135 484.053 552.575 484.056 554.262L484.035 554.241Z" fill="#74BDFF"/>
<path d="M512.847 709.151C507.451 679.573 474.981 649.535 474.981 649.535C462.821 637.258 443.614 620.695 416.589 608.077C401.136 600.864 395.898 600.981 344.718 586.4C292.209 571.423 279.086 566.611 263.074 556.298C247.826 546.476 234.272 537.471 226.319 519.773C218.055 501.395 215.368 472.516 232.514 451.862C247.524 433.779 269.907 431.445 275.282 431.045C309.728 428.559 341.898 455.956 356.529 477.369C360.124 482.641 363.213 488.358 364.625 487.791C367.697 486.579 363.404 456.784 348.286 431.545C342.958 422.65 324.261 392.513 285.818 381.285C252.956 371.677 225.549 381.697 216.616 385.102C208.809 388.078 191.419 394.946 176 412.003C155.65 434.502 151.997 460.062 150.358 472.779C148.851 484.497 146.545 515.453 163.729 547.224C173.266 564.857 184.907 575.537 193.115 582.932C214.002 601.758 234.5 610.182 250.993 616.789C273.763 625.904 292.551 629.703 330.125 637.3C338.149 638.918 357.912 642.969 385.011 649.755C388.202 650.55 391.457 651.422 395.426 652.51C436.207 663.717 454.413 672.288 463.481 676.882C480.627 685.592 500.809 698.349 507.226 707.646C507.863 708.55 511.429 713.903 512.698 713.322C513.549 712.943 513.033 710.135 512.858 709.173L512.847 709.151Z" fill="#74BDFF"/>
<path d="M522.41 802.361C525.524 799.676 511.459 778.794 510.358 777.175C501.946 764.787 487.876 744.49 460.522 725.568C435.657 708.387 413.468 701.791 390.134 694.846C366.386 687.773 342.679 683.709 320.36 679.876C310.939 678.261 303.471 677.151 284.566 673.843C261.624 669.847 250.157 667.84 243.98 666.451C210.741 659.006 186.6 648.104 171.71 641.272C150.784 631.669 142.154 625.522 137.699 622.169C125.377 612.901 117.56 603.771 113.121 598.551C100.169 583.258 92.2405 567.625 92.2405 567.625C87.0568 557.643 84.8373 550.763 82.771 551.155C79.9353 551.697 80.3414 565.228 80.4961 570.204C80.9883 586.979 84.5742 600.345 86.9773 608.006C92.6333 626.125 100.229 638.849 103.293 643.75C109.342 653.413 115.222 662.777 125.875 671.622C142.587 685.468 155.79 685.368 156.154 692.145C156.549 699.354 141.723 700.258 129.176 714.014C111.443 733.468 113.797 761.625 114.239 766.776C116.136 789.408 127.547 804.433 134.215 813.176C146.018 828.706 159.033 836.842 162.974 839.205C182.078 850.645 199.851 852.322 212.527 853.506C234.018 855.522 250.419 851.923 263.224 849.149C273.445 846.933 281.534 845.14 291.32 840.199C308.908 831.363 324.275 816.325 321.9 812.072C319.967 808.599 307.855 815.29 283.991 817.763C274.592 818.744 257.08 819.711 237.583 815.791C217.829 811.817 197.41 807.699 184.668 790.405C175.105 777.428 168.673 755.418 178.375 741.449C184.65 732.405 195.16 729.63 208.558 727.414C227.877 724.238 241.196 725.942 265.639 728.283C307.242 732.27 300.532 730.362 322.99 733.178C348.771 736.414 367.766 740.194 383.868 743.431C409.277 748.555 421.229 751.999 425.964 753.413C445.238 759.164 456.946 764.341 460.767 766.056C466.12 768.476 470.073 770.495 472.125 771.549C503.183 787.573 519.386 804.894 522.416 802.29L522.41 802.361Z" fill="#74BDFF"/>
</svg>
