<svg width="19" height="19" viewBox="0 0 19 19" fill="none" xmlns="http://www.w3.org/2000/svg">
<path d="M16.6467 15.2828C15.5488 13.3847 13.8569 12.0237 11.8824 11.3785C12.8591 10.797 13.6179 9.91108 14.0423 8.85665C14.4667 7.80222 14.5333 6.63762 14.2318 5.5417C13.9303 4.44577 13.2774 3.47912 12.3733 2.79019C11.4692 2.10126 10.364 1.72815 9.22736 1.72815C8.09072 1.72815 6.9855 2.10126 6.08143 2.79019C5.17736 3.47912 4.52443 4.44577 4.22292 5.5417C3.92141 6.63762 3.98797 7.80222 4.4124 8.85665C4.83683 9.91108 5.59565 10.797 6.57233 11.3785C4.59782 12.0229 2.9059 13.384 1.80799 15.2828C1.76773 15.3484 1.74102 15.4215 1.72945 15.4976C1.71788 15.5738 1.72167 15.6515 1.74061 15.7261C1.75954 15.8007 1.79324 15.8708 1.8397 15.9323C1.88617 15.9937 1.94447 16.0452 2.01116 16.0837C2.07784 16.1222 2.15157 16.147 2.22799 16.1565C2.3044 16.1661 2.38196 16.1603 2.45608 16.1394C2.53021 16.1185 2.5994 16.0829 2.65957 16.0349C2.71974 15.9868 2.76967 15.9272 2.80642 15.8595C4.16457 13.5123 6.56513 12.1109 9.22736 12.1109C11.8896 12.1109 14.2902 13.5123 15.6483 15.8595C15.6851 15.9272 15.735 15.9868 15.7952 16.0349C15.8553 16.0829 15.9245 16.1185 15.9986 16.1394C16.0728 16.1603 16.1503 16.1661 16.2267 16.1565C16.3032 16.147 16.3769 16.1222 16.4436 16.0837C16.5103 16.0452 16.5686 15.9937 16.615 15.9323C16.6615 15.8708 16.6952 15.8007 16.7141 15.7261C16.7331 15.6515 16.7368 15.5738 16.7253 15.4976C16.7137 15.4215 16.687 15.3484 16.6467 15.2828ZM5.19039 6.9205C5.19039 6.12206 5.42716 5.34156 5.87075 4.67768C6.31433 4.0138 6.94482 3.49637 7.68248 3.19083C8.42014 2.88528 9.23184 2.80533 10.0149 2.9611C10.798 3.11687 11.5173 3.50135 12.0819 4.06593C12.6465 4.63051 13.031 5.34983 13.1868 6.13293C13.3425 6.91602 13.2626 7.72772 12.957 8.46538C12.6515 9.20304 12.1341 9.83353 11.4702 10.2771C10.8063 10.7207 10.0258 10.9575 9.22736 10.9575C8.15704 10.9563 7.13089 10.5306 6.37406 9.7738C5.61723 9.01697 5.19154 7.99082 5.19039 6.9205Z" fill="#333333"/>
</svg>
