<svg width="363" height="110" viewBox="0 0 363 110" fill="none" xmlns="http://www.w3.org/2000/svg">
<path d="M134.68 50.08L152.6 16.8H175.4L143.48 76H120.68L111.8 47.52L102.52 76H79.72L48.6 16.8H71.4L88.84 50.08L100.6 16.8H123.4L134.68 50.08ZM212.696 30.96C219.416 30.96 224.616 33.0933 228.296 37.36C232.029 41.5733 233.896 48.4533 233.896 58V76H212.696V58.24C212.696 54.8267 212.536 52.1867 212.216 50.32C211.949 48.4 211.202 46.8267 209.976 45.6C208.749 44.32 206.776 43.68 204.056 43.68C201.176 43.68 199.042 44.3467 197.656 45.68C196.269 46.96 195.416 48.56 195.096 50.48C194.776 52.3467 194.616 54.8533 194.616 58V76H173.416V16.8H194.616V37.52C198.616 33.1467 204.642 30.96 212.696 30.96ZM298.112 32.4L270.992 85.6C269.712 88.4267 267.259 90.5333 263.632 91.92C260.059 93.3067 256.379 94.16 252.592 94.48C248.859 94.8 244.859 94.96 240.592 94.96V78.72C244.432 78.72 246.912 78.5333 248.032 78.16C249.152 77.7867 249.552 77.2 249.232 76.4L226.672 32.4H249.152L262.432 61.44L275.632 32.4H298.112ZM328.377 15.04C333.764 15.04 338.857 15.4667 343.657 16.32C348.457 17.12 352.724 19.0133 356.457 22C360.244 24.9333 362.137 29.3067 362.137 35.12C362.137 40.0267 360.804 43.6 358.137 45.84C355.471 48.08 352.697 49.4133 349.817 49.84C346.937 50.2667 343.897 50.4533 340.697 50.4C337.871 50.4533 336.057 51.0667 335.257 52.24C334.511 53.4133 334.137 54.8267 334.137 56.48H315.657C315.657 53.6533 315.844 51.2 316.217 49.12C316.591 47.04 317.631 45.12 319.337 43.36C321.044 41.6 323.737 40.6667 327.417 40.56C330.244 40.56 333.337 40.16 336.697 39.36C340.057 38.56 341.737 37.0667 341.737 34.88C341.737 33.0133 340.431 31.6533 337.817 30.8C335.257 29.9467 332.111 29.52 328.377 29.52C324.857 29.6267 321.871 30.24 319.417 31.36C316.964 32.48 315.737 34.16 315.737 36.4H295.737C295.737 27.9733 299.071 22.32 305.737 19.44C312.457 16.5067 320.004 15.04 328.377 15.04ZM315.737 76L315.657 60H334.297L334.377 76H315.737Z" fill="#333333"/>
<rect x="3.83086" y="55" width="149" height="30" rx="15" transform="rotate(7.33644 3.83086 55)" fill="#ED9AB1"/>
<path d="M16.1862 76.9252C15.3531 76.8179 14.653 76.5913 14.0859 76.2454C13.5187 75.8995 13.1083 75.4326 12.8546 74.8447C12.6114 74.2488 12.5428 73.5389 12.6489 72.715L13.4212 66.7165L15.2263 66.9489L14.4612 72.8919C14.367 73.6232 14.4853 74.203 14.8159 74.6314C15.1571 75.0518 15.6794 75.3072 16.3829 75.3978C17.0864 75.4884 17.6564 75.3736 18.0929 75.0533C18.5398 74.7251 18.8103 74.1953 18.9045 73.464L19.6696 67.521L21.4747 67.7534L20.7024 73.7519C20.5964 74.5758 20.3456 75.2446 19.9501 75.7583C19.5558 76.2627 19.0405 76.6104 18.4042 76.8014C17.768 76.9924 17.0286 77.0337 16.1862 76.9252ZM21.3957 77.4265L25.469 72.8694L22.9415 67.9423L25.1493 68.2265L26.8505 71.678L26.9199 71.687L29.4399 68.7789L31.5088 69.0453L27.8174 73.1576L30.6156 78.6136L28.4217 78.3311L26.4517 74.3369L26.3684 74.3261L23.4785 77.6947L21.3957 77.4265ZM30.6745 79.3128L34.992 68.8021L36.2139 68.9594L31.8964 79.4701L30.6745 79.3128ZM39.889 79.9769C39.0559 79.8697 38.3558 79.6431 37.7886 79.2971C37.2215 78.9512 36.8111 78.4843 36.5574 77.8965C36.3142 77.3005 36.2456 76.5906 36.3517 75.7668L37.124 69.7683L38.9291 70.0007L38.164 75.9436C38.0698 76.6749 38.1881 77.2548 38.5187 77.6832C38.8598 78.1035 39.3822 78.3589 40.0857 78.4495C40.7892 78.5401 41.3592 78.4253 41.7957 78.1051C42.2426 77.7768 42.5131 77.247 42.6073 76.5157L43.3724 70.5727L45.1775 70.8051L44.4052 76.8036C44.2992 77.6275 44.0484 78.2963 43.6529 78.81C43.2586 79.3144 42.7433 79.6621 42.107 79.8531C41.4707 80.0441 40.7314 80.0854 39.889 79.9769ZM46.0011 80.5945L47.2275 71.0691L49.0326 71.3015L47.8062 80.8269L46.0011 80.5945ZM56.8716 82.1634C55.8997 82.0383 55.0886 81.7598 54.4384 81.3279C53.7975 80.8972 53.3384 80.297 53.0611 79.5272C52.7942 78.7495 52.7347 77.7866 52.8824 76.6388C53.0982 74.9633 53.6652 73.7753 54.5835 73.0748C55.5018 72.3744 56.6876 72.1177 58.1409 72.3048C58.9278 72.4061 59.6186 72.6315 60.2135 72.981C60.8177 73.3317 61.2698 73.8039 61.5697 74.3978C61.8801 74.9835 61.9817 75.693 61.8744 76.5261L60.0277 76.2883C60.0873 75.8255 60.0355 75.4236 59.8724 75.0826C59.7197 74.7336 59.4782 74.4531 59.1479 74.2412C58.8176 74.0293 58.4256 73.8942 57.972 73.8358C57.3426 73.7547 56.8035 73.8123 56.3547 74.0087C55.9072 74.1957 55.5506 74.5168 55.285 74.9719C55.0286 75.4283 54.8545 76.0128 54.7627 76.7256L54.7234 77.0311C54.6305 77.7531 54.6502 78.3673 54.7826 78.8737C54.9243 79.3813 55.1833 79.7817 55.5596 80.0748C55.9452 80.3691 56.4573 80.5574 57.0961 80.6396C57.5774 80.7016 58.0087 80.6771 58.39 80.5662C58.7725 80.4461 59.0812 80.2412 59.3161 79.9515C59.5615 79.6537 59.7139 79.2734 59.7735 78.8105L61.5509 79.0394C61.4436 79.8725 61.1697 80.5383 60.7291 81.0368C60.2897 81.526 59.7333 81.8637 59.06 82.0499C58.3972 82.2281 57.6677 82.2659 56.8716 82.1634ZM64.4073 83.1336C64.2036 83.1074 63.9711 83.0492 63.7098 82.9591C63.4566 82.8795 63.214 82.7541 62.9819 82.5831C62.7591 82.4133 62.5863 82.184 62.4635 81.8953C62.3419 81.5973 62.3097 81.2262 62.3669 80.7818C62.4312 80.282 62.5954 79.8843 62.8592 79.5889C63.1243 79.2843 63.4678 79.065 63.8897 78.9311C64.322 78.7892 64.8206 78.7169 65.3856 78.7144C65.961 78.7038 66.5819 78.7414 67.2484 78.8272L67.3253 78.2301C67.3527 78.0172 67.3448 77.8233 67.3014 77.6483C67.2581 77.4733 67.1544 77.3282 66.9905 77.213C66.8369 77.0897 66.5889 77.0061 66.2464 76.962C65.9039 76.9179 65.6301 76.9249 65.425 76.9832C65.2199 77.0415 65.0725 77.1261 64.983 77.2369C64.8934 77.3477 64.8403 77.4679 64.8236 77.5975L64.7986 77.7919L63.1601 77.5809C63.1568 77.5334 63.1582 77.4866 63.1641 77.4403C63.1701 77.394 63.1772 77.3384 63.1856 77.2736C63.2392 76.8571 63.4106 76.5122 63.6999 76.2389C63.9892 75.9656 64.3661 75.7788 64.8307 75.6787C65.2965 75.5692 65.821 75.5521 66.4042 75.6272C67.0707 75.713 67.6049 75.8759 68.0069 76.1158C68.4181 76.357 68.7081 76.6625 68.877 77.0324C69.0458 77.4024 69.0986 77.8326 69.0354 78.3232L68.5921 81.7668C68.5694 81.9427 68.6042 82.0742 68.6965 82.1614C68.7888 82.2486 68.8951 82.2999 69.0155 82.3154L69.4598 82.3726L69.3096 83.539C69.2123 83.5641 69.0727 83.5884 68.8909 83.6121C68.7078 83.645 68.4867 83.6447 68.2275 83.6114C67.9869 83.5804 67.7747 83.5107 67.591 83.4024C67.4154 83.3045 67.2723 83.1731 67.1618 83.0083C67.0513 82.8435 66.9814 82.6557 66.952 82.4449L66.8687 82.4342C66.6863 82.6084 66.4739 82.7598 66.2315 82.8886C65.9995 83.0093 65.7301 83.0922 65.4231 83.1374C65.1254 83.1837 64.7868 83.1825 64.4073 83.1336ZM65.0998 81.8112C65.3775 81.847 65.6282 81.8369 65.8518 81.781C66.0847 81.7263 66.2801 81.6338 66.438 81.5036C66.6052 81.3746 66.7395 81.2084 66.841 81.005C66.9517 80.8028 67.0232 80.5767 67.0554 80.3268L67.0983 79.9935C66.5891 79.928 66.1129 79.8996 65.6695 79.9084C65.2353 79.9184 64.8773 79.9946 64.5955 80.1371C64.3229 80.2808 64.1657 80.5147 64.124 80.8387C64.1026 81.0053 64.1205 81.1582 64.1779 81.2973C64.2457 81.4284 64.3535 81.5411 64.5014 81.6354C64.6596 81.7216 64.8591 81.7802 65.0998 81.8112ZM73.0949 84.2521C72.5672 84.1842 72.1115 84.0691 71.7278 83.9068C71.3452 83.7352 71.0328 83.5303 70.7906 83.292C70.5484 83.0538 70.3751 82.7916 70.2708 82.5052C70.177 82.2108 70.1509 81.9016 70.1926 81.5777C70.1986 81.5314 70.2039 81.4897 70.2087 81.4527C70.2227 81.4168 70.2309 81.3897 70.2333 81.3712L71.8996 81.5857C71.8972 81.6042 71.8948 81.6227 71.8924 81.6412C71.89 81.6597 71.8877 81.6783 71.8853 81.6968C71.8623 81.9479 71.9148 82.1617 72.0427 82.3381C72.1717 82.5053 72.3524 82.6368 72.5847 82.7326C72.8171 82.8284 73.0675 82.8935 73.3359 82.9281C73.5766 82.9591 73.8064 82.9651 74.0252 82.9463C74.2546 82.9193 74.4458 82.8593 74.5989 82.766C74.7625 82.6648 74.8563 82.5216 74.8801 82.3364C74.9111 82.0958 74.8424 81.8987 74.6739 81.7453C74.5055 81.5918 74.2738 81.4538 73.9791 81.3311C73.6936 81.2097 73.3856 81.0806 73.055 80.944C72.7602 80.8213 72.4667 80.6894 72.1743 80.5483C71.8819 80.4071 71.6209 80.2418 71.3912 80.0522C71.1708 79.8639 70.998 79.6346 70.8728 79.3644C70.7569 79.0954 70.7228 78.7757 70.7704 78.4055C70.8169 78.0444 70.9361 77.7398 71.128 77.4917C71.32 77.2435 71.5661 77.0493 71.8665 76.9092C72.168 76.7598 72.5145 76.6632 72.906 76.6195C73.2974 76.5758 73.7153 76.5826 74.1596 76.6398C74.5947 76.6958 74.9822 76.7928 75.322 76.9306C75.6711 77.0697 75.9639 77.2438 76.2005 77.4531C76.4475 77.6543 76.6243 77.8888 76.731 78.1566C76.8481 78.4163 76.8876 78.6943 76.8495 78.9905C76.8411 79.0553 76.8282 79.1195 76.8106 79.1831C76.8022 79.2479 76.7975 79.285 76.7963 79.2942L75.1439 79.0815L75.1564 78.9843C75.1791 78.8084 75.1426 78.6531 75.047 78.5185C74.9619 78.3758 74.8222 78.2543 74.6281 78.154C74.4433 78.0549 74.2027 77.9863 73.9065 77.9482C73.6843 77.9196 73.4875 77.9131 73.3162 77.9286C73.1448 77.9442 72.9994 77.9773 72.8799 78.0277C72.7698 78.0794 72.6815 78.1434 72.6153 78.2195C72.549 78.2957 72.5093 78.3847 72.4962 78.4865C72.4736 78.6624 72.5251 78.8102 72.6509 78.9299C72.7766 79.0496 72.9504 79.1614 73.1723 79.2652C73.4034 79.3703 73.6525 79.4823 73.9195 79.6014C74.2408 79.7369 74.5708 79.8781 74.9095 80.0253C75.2493 80.1631 75.5578 80.3252 75.835 80.5114C76.1214 80.6989 76.3399 80.9387 76.4904 81.231C76.641 81.5233 76.6877 81.8916 76.6305 82.3359C76.5757 82.7618 76.4453 83.1167 76.2393 83.4007C76.0438 83.6767 75.786 83.8882 75.466 84.0352C75.1564 84.1741 74.7972 84.2596 74.3884 84.2917C73.9889 84.3249 73.5577 84.3117 73.0949 84.2521ZM80.8987 85.2569C80.1211 85.1568 79.4904 84.9391 79.0066 84.6039C78.5239 84.2595 78.1894 83.7882 78.0029 83.1902C77.8164 82.5921 77.7791 81.858 77.8912 80.9879C78.0044 80.1085 78.2264 79.4078 78.5571 78.8857C78.889 78.3544 79.3314 77.9879 79.8843 77.7862C80.4385 77.5752 81.1043 77.5198 81.8819 77.6199C82.5854 77.7105 83.156 77.9204 83.5935 78.2496C84.0415 78.5708 84.3507 79.02 84.521 79.5971C84.6914 80.1743 84.7206 80.8979 84.6085 81.7681L84.5442 82.2679L79.5732 81.6279C79.5333 82.0839 79.5533 82.477 79.6331 82.8072C79.7141 83.1282 79.8695 83.3835 80.0991 83.573C80.3393 83.7545 80.6676 83.872 81.0842 83.9257C81.2971 83.9531 81.4997 83.9509 81.692 83.9192C81.8843 83.8875 82.057 83.8251 82.2101 83.7319C82.3645 83.6294 82.49 83.495 82.5867 83.3287C82.6927 83.1635 82.7605 82.9652 82.7903 82.7338L84.4566 82.9483C84.397 83.4112 84.2618 83.8031 84.0511 84.1242C83.8497 84.4464 83.5865 84.6995 83.2617 84.8836C82.9461 85.0688 82.5868 85.1919 82.1837 85.2529C81.7806 85.314 81.3523 85.3153 80.8987 85.2569ZM79.7547 80.4374L82.9345 80.8467C82.9738 80.5413 82.9702 80.2773 82.9235 80.0549C82.8861 79.8336 82.8116 79.6452 82.6999 79.4897C82.5974 79.3353 82.4618 79.2191 82.2931 79.1409C82.1255 79.0534 81.9307 78.9954 81.7085 78.9668C81.3475 78.9203 81.0343 78.9412 80.7688 79.0293C80.5127 79.1187 80.3037 79.28 80.1419 79.5132C79.9801 79.7465 79.8511 80.0545 79.7547 80.4374ZM91.5729 86.6312C90.7769 86.5287 90.1276 86.3087 89.6253 85.9711C89.1242 85.6242 88.7757 85.1512 88.58 84.552C88.3842 83.9527 88.3423 83.218 88.4544 82.3479C88.5676 81.4685 88.7942 80.7684 89.1342 80.2475C89.4753 79.7174 89.9316 79.3527 90.5031 79.1534C91.0757 78.9448 91.7601 78.8917 92.5562 78.9942C93.3616 79.0979 94.0102 79.3226 94.5021 79.6682C95.0044 80.0058 95.3535 80.4742 95.5492 81.0734C95.7461 81.6634 95.788 82.3981 95.6748 83.2775C95.5627 84.1477 95.3362 84.8478 94.995 85.3779C94.6539 85.908 94.1969 86.2774 93.6243 86.4859C93.0621 86.6865 92.3783 86.7349 91.5729 86.6312ZM91.7517 85.2427C92.1961 85.2999 92.5632 85.2624 92.8531 85.1304C93.1534 84.9902 93.3858 84.7567 93.5503 84.4297C93.7251 84.0946 93.846 83.6679 93.9127 83.1495L93.9377 82.9551C94.0045 82.4367 93.9951 81.9979 93.9096 81.6387C93.8345 81.2714 93.6689 80.9866 93.4126 80.7842C93.1668 80.5738 92.8218 80.44 92.3774 80.3828C91.9331 80.3256 91.5608 80.367 91.2604 80.5071C90.9705 80.6392 90.7381 80.8728 90.5632 81.2079C90.3988 81.5349 90.2832 81.9576 90.2164 82.476L90.1914 82.6704C90.1247 83.1887 90.1288 83.6316 90.2039 83.9988C90.2894 84.358 90.455 84.6428 90.7008 84.8533C90.9571 85.0557 91.3074 85.1854 91.7517 85.2427ZM96.991 87.1594L97.7526 81.2442L96.6973 81.1083L96.8761 79.7198L97.9314 79.8557L98.0512 78.9253C98.0929 78.6014 98.1831 78.3024 98.3219 78.0286C98.4711 77.7467 98.6919 77.5304 98.9842 77.3798C99.2765 77.2293 99.6633 77.185 100.145 77.2469C100.283 77.2648 100.421 77.2919 100.558 77.3283C100.703 77.3659 100.839 77.4116 100.963 77.4653C101.089 77.5097 101.196 77.5564 101.284 77.6054L101.132 78.7856L100.438 78.6963C100.234 78.67 100.07 78.7053 99.9444 78.8021C99.8295 78.8908 99.7589 79.037 99.7327 79.2406L99.6254 80.0738L100.945 80.2436L100.766 81.6321L99.4466 81.4623L98.6851 87.3775L96.991 87.1594ZM106.507 88.5539C105.979 88.486 105.523 88.3708 105.139 88.2085C104.757 88.0369 104.445 87.832 104.202 87.5938C103.96 87.3556 103.787 87.0933 103.683 86.807C103.589 86.5126 103.563 86.2034 103.604 85.8794C103.61 85.8331 103.616 85.7914 103.62 85.7544C103.634 85.7186 103.643 85.6914 103.645 85.6729L105.311 85.8874C105.309 85.9059 105.307 85.9245 105.304 85.943C105.302 85.9615 105.299 85.98 105.297 85.9985C105.274 86.2496 105.327 86.4634 105.454 86.6399C105.583 86.807 105.764 86.9385 105.996 87.0343C106.229 87.1301 106.479 87.1953 106.748 87.2298C106.988 87.2608 107.218 87.2669 107.437 87.248C107.666 87.2211 107.858 87.161 108.011 87.0678C108.174 86.9665 108.268 86.8233 108.292 86.6382C108.323 86.3975 108.254 86.2004 108.086 86.047C107.917 85.8936 107.686 85.7555 107.391 85.6329C107.105 85.5114 106.797 85.3824 106.467 85.2457C106.172 85.1231 105.878 84.9912 105.586 84.85C105.294 84.7089 105.033 84.5435 104.803 84.354C104.583 84.1656 104.41 83.9363 104.285 83.6661C104.169 83.3971 104.134 83.0775 104.182 82.7072C104.229 82.3462 104.348 82.0416 104.54 81.7934C104.732 81.5452 104.978 81.351 105.278 81.2109C105.58 81.0615 105.926 80.965 106.318 80.9213C106.709 80.8776 107.127 80.8843 107.571 80.9415C108.006 80.9976 108.394 81.0945 108.734 81.2323C109.083 81.3714 109.376 81.5455 109.612 81.7548C109.859 81.956 110.036 82.1905 110.143 82.4583C110.26 82.7181 110.299 82.996 110.261 83.2923C110.253 83.3571 110.24 83.4213 110.222 83.4849C110.214 83.5497 110.209 83.5867 110.208 83.596L108.556 83.3832L108.568 83.286C108.591 83.1101 108.554 82.9549 108.459 82.8202C108.374 82.6775 108.234 82.556 108.04 82.4558C107.855 82.3567 107.614 82.2881 107.318 82.2499C107.096 82.2213 106.899 82.2148 106.728 82.2304C106.556 82.246 106.411 82.279 106.292 82.3295C106.181 82.3812 106.093 82.4451 106.027 82.5213C105.961 82.5974 105.921 82.6864 105.908 82.7882C105.885 82.9641 105.937 83.1119 106.063 83.2316C106.188 83.3513 106.362 83.4631 106.584 83.567C106.815 83.672 107.064 83.784 107.331 83.9031C107.653 84.0386 107.983 84.1799 108.321 84.327C108.661 84.4649 108.97 84.6269 109.247 84.8132C109.533 85.0006 109.752 85.2405 109.902 85.5328C110.053 85.825 110.099 86.1934 110.042 86.6377C109.987 87.0635 109.857 87.4184 109.651 87.7025C109.456 87.9784 109.198 88.1899 108.878 88.3369C108.568 88.4758 108.209 88.5613 107.8 88.5934C107.401 88.6266 106.969 88.6135 106.507 88.5539ZM113.102 89.4031C112.649 89.3447 112.304 89.2109 112.067 89.0016C111.832 88.7831 111.676 88.5278 111.601 88.2358C111.536 87.9358 111.523 87.6376 111.561 87.3414L112.108 83.0925L111.233 82.9798L111.412 81.5913L112.328 81.7093L112.897 79.7075L114.244 79.8809L113.981 81.922L115.244 82.0847L115.066 83.4732L113.802 83.3106L113.276 87.3929C113.251 87.5873 113.283 87.7466 113.37 87.8708C113.459 87.9857 113.605 88.0563 113.809 88.0825L114.461 88.1665L114.311 89.3329C114.214 89.358 114.094 89.3755 113.952 89.3854C113.817 89.4057 113.675 89.4156 113.524 89.4151C113.373 89.4238 113.232 89.4198 113.102 89.4031ZM117.857 90.0153C117.154 89.9247 116.604 89.6611 116.209 89.2243C115.824 88.7795 115.691 88.0943 115.81 87.1686L116.445 82.2393L118.139 82.4574L117.544 87.0812C117.51 87.3404 117.51 87.5615 117.543 87.7445C117.586 87.9195 117.656 88.0697 117.753 88.1951C117.86 88.3124 117.994 88.4049 118.155 88.4727C118.316 88.5404 118.498 88.5874 118.701 88.6136C119.007 88.6529 119.289 88.614 119.549 88.4969C119.818 88.381 120.039 88.2023 120.211 87.961C120.394 87.7116 120.506 87.4203 120.549 87.0871L121.096 82.8382L122.79 83.0563L121.85 90.36L120.448 90.1794L120.434 89.1896L120.337 89.177C120.142 89.3778 119.917 89.5512 119.663 89.6972C119.419 89.8353 119.143 89.9315 118.835 89.9859C118.535 90.0508 118.209 90.0606 117.857 90.0153ZM126.175 91.0862C125.582 91.0099 125.086 90.8095 124.685 90.4851C124.285 90.1606 124.001 89.7005 123.833 89.1049C123.674 88.5104 123.652 87.7688 123.766 86.8802C123.879 86.0008 124.092 85.2988 124.404 84.7744C124.718 84.2407 125.105 83.8671 125.565 83.6534C126.025 83.4398 126.524 83.3676 127.061 83.4367C127.394 83.4796 127.695 83.556 127.963 83.6658C128.231 83.7756 128.462 83.9229 128.654 84.1077C128.848 84.2832 129.005 84.4916 129.124 84.7328L129.208 84.7435L129.669 81.1611L131.363 81.3792L130.07 91.4183L128.668 91.2378L128.654 90.2479L128.557 90.2354C128.277 90.5851 127.925 90.8316 127.502 90.9747C127.089 91.1098 126.647 91.147 126.175 91.0862ZM126.89 89.6961C127.279 89.7462 127.605 89.6988 127.868 89.5539C128.132 89.409 128.34 89.1771 128.494 88.8581C128.658 88.5404 128.77 88.1408 128.832 87.6594L128.855 87.4789C128.902 87.1179 128.911 86.7898 128.883 86.4944C128.856 86.1991 128.785 85.9453 128.671 85.7331C128.566 85.522 128.414 85.3518 128.214 85.2226C128.024 85.0946 127.785 85.0121 127.498 84.9751C127.082 84.9215 126.738 84.9619 126.466 85.0963C126.205 85.2227 125.997 85.45 125.842 85.7782C125.697 86.0983 125.592 86.5176 125.525 87.036L125.5 87.2304C125.434 87.7395 125.431 88.1673 125.49 88.5136C125.558 88.8612 125.702 89.1338 125.921 89.3314C126.151 89.5209 126.474 89.6425 126.89 89.6961ZM132.519 94.3027C132.177 94.2586 131.903 94.195 131.697 94.1121C131.49 94.0384 131.373 93.9951 131.347 93.9823L131.502 92.7743L132.28 92.8744C132.474 92.8994 132.675 92.8735 132.883 92.7967C133.09 92.7199 133.284 92.6037 133.464 92.4481C133.644 92.2925 133.785 92.113 133.886 91.9096L131.98 84.2394L133.757 84.4682L134.667 88.1425C134.712 88.3082 134.751 88.5156 134.785 88.7646C134.828 89.0149 134.87 89.2743 134.911 89.5431C134.952 89.8025 134.983 90.0371 135.004 90.2467L135.073 90.2556C135.128 90.1215 135.19 89.9695 135.259 89.7996C135.328 89.6297 135.397 89.4551 135.467 89.2759C135.547 89.098 135.625 88.9246 135.704 88.7559C135.782 88.5871 135.848 88.4404 135.901 88.3155L137.465 84.9455L139.186 85.1672L135.85 91.7814C135.662 92.1523 135.457 92.5023 135.235 92.8314C135.023 93.1618 134.785 93.4462 134.519 93.6849C134.262 93.9247 133.967 94.0985 133.633 94.206C133.307 94.3241 132.936 94.3563 132.519 94.3027Z" fill="white"/>
</svg>
