<svg width="395" height="116" viewBox="0 0 395 116" fill="none" xmlns="http://www.w3.org/2000/svg">
<path d="M134.68 56.08L152.6 22.8H175.4L143.48 82H120.68L111.8 53.52L102.52 82H79.72L48.6 22.8H71.4L88.84 56.08L100.6 22.8H123.4L134.68 56.08ZM212.696 36.96C219.416 36.96 224.616 39.0933 228.296 43.36C232.029 47.5733 233.896 54.4533 233.896 64V82H212.696V64.24C212.696 60.8267 212.536 58.1867 212.216 56.32C211.949 54.4 211.202 52.8267 209.976 51.6C208.749 50.32 206.776 49.68 204.056 49.68C201.176 49.68 199.042 50.3467 197.656 51.68C196.269 52.96 195.416 54.56 195.096 56.48C194.776 58.3467 194.616 60.8533 194.616 64V82H173.416V22.8H194.616V43.52C198.616 39.1467 204.642 36.96 212.696 36.96ZM298.112 38.4L270.992 91.6C269.712 94.4267 267.259 96.5333 263.632 97.92C260.059 99.3067 256.379 100.16 252.592 100.48C248.859 100.8 244.859 100.96 240.592 100.96V84.72C244.432 84.72 246.912 84.5333 248.032 84.16C249.152 83.7867 249.552 83.2 249.232 82.4L226.672 38.4H249.152L262.432 67.44L275.632 38.4H298.112ZM328.377 21.04C333.764 21.04 338.857 21.4667 343.657 22.32C348.457 23.12 352.724 25.0133 356.457 28C360.244 30.9333 362.137 35.3067 362.137 41.12C362.137 46.0267 360.804 49.6 358.137 51.84C355.471 54.08 352.697 55.4133 349.817 55.84C346.937 56.2667 343.897 56.4533 340.697 56.4C337.871 56.4533 336.057 57.0667 335.257 58.24C334.511 59.4133 334.137 60.8267 334.137 62.48H315.657C315.657 59.6533 315.844 57.2 316.217 55.12C316.591 53.04 317.631 51.12 319.337 49.36C321.044 47.6 323.737 46.6667 327.417 46.56C330.244 46.56 333.337 46.16 336.697 45.36C340.057 44.56 341.737 43.0667 341.737 40.88C341.737 39.0133 340.431 37.6533 337.817 36.8C335.257 35.9467 332.111 35.52 328.377 35.52C324.857 35.6267 321.871 36.24 319.417 37.36C316.964 38.48 315.737 40.16 315.737 42.4H295.737C295.737 33.9733 299.071 28.32 305.737 25.44C312.457 22.5067 320.004 21.04 328.377 21.04ZM315.737 82L315.657 66H334.297L334.377 82H315.737Z" fill="#333333"/>
<rect x="314.831" width="80" height="30" rx="15" transform="rotate(7.33644 314.831 0)" fill="#ED9AB1"/>
<path d="M323.25 21.2491L324.477 11.7237L329.67 12.3923C330.179 12.4579 330.62 12.6135 330.993 12.8591C331.375 13.1059 331.66 13.4201 331.846 13.8017C332.032 14.1832 332.095 14.6101 332.034 15.0822C331.987 15.4432 331.876 15.7629 331.699 16.0412C331.522 16.3196 331.3 16.5451 331.033 16.7177C330.776 16.8823 330.493 16.9965 330.184 17.0602L330.177 17.1157C330.519 17.2351 330.815 17.4191 331.066 17.6677C331.317 17.9071 331.501 18.199 331.616 18.5432C331.733 18.8782 331.765 19.254 331.711 19.6706C331.635 20.263 331.438 20.7363 331.119 21.0906C330.81 21.446 330.42 21.6923 329.951 21.8295C329.492 21.9586 328.99 21.988 328.444 21.9177L323.25 21.2491ZM325.254 19.9402L328.406 20.346C328.785 20.3949 329.109 20.333 329.376 20.1603C329.653 19.9796 329.82 19.6671 329.877 19.2227C329.911 18.9635 329.889 18.7302 329.812 18.5227C329.735 18.3152 329.597 18.1468 329.397 18.0176C329.208 17.8803 328.951 17.7907 328.627 17.749L325.586 17.3575L325.254 19.9402ZM325.781 15.844L328.697 16.2194C328.975 16.2552 329.213 16.2341 329.411 16.1561C329.619 16.0793 329.78 15.9589 329.895 15.7949C330.02 15.6322 330.096 15.4443 330.123 15.2314C330.176 14.8241 330.103 14.509 329.906 14.286C329.718 14.0642 329.448 13.9306 329.097 13.8853L326.083 13.4974L325.781 15.844ZM332.901 22.4916L333.842 15.1879L335.258 15.3703L335.249 16.5406L335.346 16.5532C335.468 16.3337 335.607 16.135 335.761 15.9573C335.926 15.7716 336.123 15.6322 336.352 15.5393C336.581 15.4371 336.849 15.4057 337.154 15.445C337.302 15.4641 337.435 15.4952 337.551 15.5385C337.677 15.583 337.771 15.6232 337.832 15.6594L337.627 17.2562L337.113 17.19C336.826 17.1531 336.566 17.162 336.333 17.2167C336.101 17.2621 335.896 17.358 335.717 17.5044C335.548 17.6519 335.41 17.8459 335.304 18.0863C335.197 18.3267 335.123 18.6136 335.08 18.9468L334.596 22.7097L332.901 22.4916ZM339.65 23.5299C339.446 23.5036 339.214 23.4455 338.952 23.3554C338.699 23.2757 338.456 23.1504 338.224 22.9793C338.002 22.8095 337.829 22.5802 337.706 22.2915C337.584 21.9935 337.552 21.6224 337.609 21.1781C337.674 20.6782 337.838 20.2806 338.102 19.9852C338.367 19.6805 338.71 19.4613 339.132 19.3274C339.564 19.1854 340.063 19.1132 340.628 19.1106C341.203 19.1 341.824 19.1376 342.491 19.2234L342.568 18.6263C342.595 18.4134 342.587 18.2195 342.544 18.0445C342.501 17.8696 342.397 17.7245 342.233 17.6093C342.079 17.486 341.831 17.4023 341.489 17.3582C341.146 17.3141 340.873 17.3212 340.667 17.3795C340.462 17.4377 340.315 17.5223 340.225 17.6331C340.136 17.7439 340.083 17.8641 340.066 17.9937L340.041 18.1881L338.403 17.9771C338.399 17.9297 338.401 17.8828 338.407 17.8365C338.412 17.7902 338.42 17.7347 338.428 17.6699C338.482 17.2533 338.653 16.9084 338.942 16.6351C339.232 16.3618 339.609 16.1751 340.073 16.0749C340.539 15.9655 341.063 15.9483 341.647 16.0234C342.313 16.1092 342.847 16.2721 343.249 16.5121C343.661 16.7532 343.951 17.0588 344.119 17.4287C344.288 17.7986 344.341 18.2289 344.278 18.7195L343.834 22.163C343.812 22.3389 343.847 22.4705 343.939 22.5576C344.031 22.6448 344.138 22.6961 344.258 22.7116L344.702 22.7688L344.552 23.9352C344.455 23.9603 344.315 23.9847 344.133 24.0083C343.95 24.0412 343.729 24.041 343.47 24.0076C343.229 23.9766 343.017 23.907 342.833 23.7986C342.658 23.7007 342.515 23.5694 342.404 23.4046C342.294 23.2398 342.224 23.052 342.194 22.8412L342.111 22.8305C341.929 23.0046 341.716 23.156 341.474 23.2848C341.242 23.4055 340.972 23.4884 340.666 23.5336C340.368 23.58 340.029 23.5787 339.65 23.5299ZM340.342 22.2075C340.62 22.2432 340.871 22.2331 341.094 22.1772C341.327 22.1225 341.523 22.0301 341.68 21.8998C341.848 21.7708 341.982 21.6046 342.083 21.4012C342.194 21.199 342.266 20.973 342.298 20.723L342.341 20.3898C341.832 20.3242 341.355 20.2958 340.912 20.3046C340.478 20.3146 340.12 20.3908 339.838 20.5334C339.565 20.6771 339.408 20.9109 339.366 21.2349C339.345 21.4015 339.363 21.5544 339.42 21.6935C339.488 21.8246 339.596 21.9373 339.744 22.0316C339.902 22.1179 340.102 22.1765 340.342 22.2075ZM345.512 24.1153L346.453 16.8116L347.869 16.9939L347.883 17.9838L347.98 17.9963C348.175 17.7956 348.394 17.6262 348.638 17.4882C348.892 17.3421 349.169 17.2412 349.468 17.1856C349.777 17.1219 350.107 17.1127 350.459 17.158C350.922 17.2176 351.319 17.3534 351.649 17.5653C351.988 17.7784 352.236 18.0832 352.392 18.4797C352.548 18.8762 352.586 19.3845 352.506 20.0047L351.872 24.9341L350.164 24.7142L350.759 20.0903C350.793 19.8311 350.788 19.6141 350.744 19.4391C350.711 19.2561 350.641 19.1059 350.534 18.9886C350.437 18.8632 350.309 18.7666 350.148 18.6989C349.987 18.6311 349.805 18.5842 349.601 18.5579C349.296 18.5186 349.009 18.5569 348.74 18.6728C348.48 18.79 348.259 18.9686 348.078 19.2087C347.906 19.45 347.797 19.7419 347.753 20.0844L347.206 24.3334L345.512 24.1153ZM356.141 25.6531C355.548 25.5768 355.052 25.3764 354.651 25.0519C354.251 24.7275 353.966 24.2674 353.798 23.6718C353.64 23.0773 353.618 22.3357 353.732 21.4471C353.845 20.5676 354.058 19.8657 354.37 19.3413C354.684 18.8076 355.07 18.434 355.531 18.2203C355.991 18.0067 356.49 17.9345 357.027 18.0036C357.36 18.0465 357.661 18.1228 357.929 18.2327C358.197 18.3425 358.427 18.4898 358.62 18.6745C358.814 18.8501 358.971 19.0584 359.09 19.2997L359.173 19.3104L359.635 15.728L361.329 15.9461L360.036 25.9852L358.634 25.8047L358.62 24.8148L358.523 24.8023C358.243 25.152 357.891 25.3985 357.468 25.5416C357.055 25.6767 356.613 25.7138 356.141 25.6531ZM356.856 24.263C357.245 24.3131 357.571 24.2657 357.834 24.1208C358.098 23.9759 358.306 23.744 358.46 23.425C358.623 23.1073 358.736 22.7077 358.798 22.2263L358.821 22.0458C358.868 21.6848 358.877 21.3566 358.849 21.0613C358.821 20.766 358.75 20.5122 358.637 20.3C358.532 20.0889 358.38 19.9187 358.18 19.7895C357.99 19.6614 357.751 19.5789 357.464 19.542C357.047 19.4884 356.703 19.5288 356.432 19.6632C356.171 19.7896 355.963 20.0169 355.808 20.3451C355.663 20.6652 355.557 21.0845 355.491 21.6029L355.465 21.7973C355.4 22.3064 355.397 22.7342 355.456 23.0805C355.524 23.4281 355.667 23.7006 355.887 23.8983C356.116 24.0878 356.439 24.2094 356.856 24.263ZM362.924 17.7888L363.131 16.1781L364.825 16.3962L364.618 18.0069L362.924 17.7888ZM361.838 26.2173L362.779 18.9135L364.473 19.1316L363.532 26.4354L361.838 26.2173ZM365.337 26.6677L366.277 19.364L367.694 19.5463L367.707 20.5362L367.804 20.5487C368 20.348 368.219 20.1786 368.463 20.0406C368.717 19.8945 368.993 19.7936 369.292 19.738C369.601 19.6743 369.932 19.6651 370.284 19.7104C370.747 19.77 371.143 19.9058 371.474 20.1177C371.813 20.3308 372.061 20.6356 372.217 21.0321C372.373 21.4286 372.411 21.9369 372.331 22.5572L371.696 27.4865L369.988 27.2666L370.584 22.6427C370.617 22.3835 370.612 22.1665 370.569 21.9915C370.536 21.8085 370.466 21.6583 370.359 21.541C370.262 21.4156 370.133 21.319 369.972 21.2513C369.812 21.1835 369.63 21.1366 369.426 21.1103C369.121 21.071 368.833 21.1093 368.564 21.2253C368.305 21.3424 368.084 21.521 367.902 21.7611C367.73 22.0024 367.622 22.2944 367.578 22.6369L367.031 26.8858L365.337 26.6677ZM374.328 30.3944C374.004 30.3527 373.707 30.2485 373.437 30.082C373.167 29.9154 372.96 29.6912 372.818 29.4094C372.674 29.1368 372.626 28.8154 372.674 28.4451C372.726 28.0378 372.883 27.7333 373.144 27.5317C373.416 27.322 373.703 27.1755 374.005 27.0921C373.807 26.9536 373.65 26.7828 373.535 26.5798C373.429 26.378 373.393 26.1475 373.426 25.8883C373.472 25.5365 373.637 25.2755 373.922 25.1052C374.209 24.9257 374.523 24.825 374.865 24.8031C374.55 24.5461 374.321 24.239 374.179 23.8819C374.046 23.5261 374.007 23.1352 374.062 22.7094C374.127 22.2002 374.303 21.7807 374.591 21.4506C374.888 21.1125 375.286 20.872 375.785 20.7292C376.283 20.5863 376.865 20.5578 377.532 20.6436C377.8 20.6782 378.057 20.73 378.302 20.7992C378.547 20.8685 378.767 20.9532 378.961 21.0535C379.31 20.9008 379.56 20.7119 379.712 20.4867C379.864 20.2522 379.955 20.0569 379.985 19.9007L381.637 20.1135C381.595 20.4375 381.494 20.7161 381.332 20.9493C381.179 21.1838 380.981 21.37 380.738 21.508C380.495 21.6368 380.212 21.718 379.888 21.7515C380.093 21.9849 380.237 22.2529 380.32 22.5553C380.404 22.8578 380.423 23.1803 380.379 23.5228C380.314 24.0319 380.137 24.4561 379.849 24.7954C379.569 25.1359 379.185 25.3782 378.696 25.5222C378.216 25.6675 377.643 25.6972 376.977 25.6114L375.852 25.4666C375.658 25.4416 375.5 25.4636 375.378 25.5326C375.265 25.6028 375.199 25.7119 375.18 25.86C375.165 25.9804 375.197 26.0928 375.278 26.1973C375.368 26.303 375.501 26.3671 375.677 26.3898L378.87 26.8009C379.417 26.8713 379.842 27.1096 380.148 27.5159C380.463 27.9141 380.585 28.391 380.514 28.9464C380.46 29.3629 380.301 29.7235 380.036 30.0282C379.78 30.334 379.445 30.5591 379.031 30.7035C378.618 30.8478 378.152 30.8866 377.633 30.8198L374.328 30.3944ZM375.097 29.2511L377.777 29.5961C377.952 29.6188 378.109 29.6061 378.247 29.5579C378.393 29.5203 378.51 29.4507 378.599 29.3491C378.696 29.2488 378.754 29.1292 378.772 28.9903C378.803 28.7496 378.748 28.559 378.606 28.4184C378.473 28.279 378.296 28.195 378.074 28.1664L375.283 27.807C375.06 27.7784 374.867 27.8194 374.702 27.9299C374.536 28.0497 374.439 28.216 374.412 28.429C374.385 28.6419 374.432 28.8221 374.554 28.9695C374.684 29.1275 374.865 29.2213 375.097 29.2511ZM377.061 24.4083C377.552 24.4715 377.932 24.4075 378.201 24.2163C378.481 24.0171 378.647 23.7138 378.699 23.3065C378.752 22.8992 378.667 22.5684 378.446 22.314C378.234 22.0609 377.883 21.9027 377.392 21.8395C376.901 21.7764 376.517 21.8398 376.238 22.0298C375.969 22.2209 375.808 22.5202 375.756 22.9275C375.721 23.1959 375.742 23.4339 375.819 23.6414C375.905 23.8501 376.048 24.0191 376.248 24.1483C376.457 24.2787 376.728 24.3654 377.061 24.4083Z" fill="white"/>
<rect x="3.83087" y="61" width="149" height="30" rx="15" transform="rotate(7.33644 3.83087 61)" fill="#ED9AB1"/>
<path d="M16.1863 82.9252C15.3531 82.8179 14.653 82.5913 14.0859 82.2454C13.5187 81.8995 13.1083 81.4326 12.8547 80.8447C12.6114 80.2488 12.5429 79.5389 12.6489 78.715L13.4212 72.7165L15.2263 72.9489L14.4612 78.8919C14.367 79.6232 14.4853 80.203 14.8159 80.6314C15.1571 81.0518 15.6794 81.3072 16.3829 81.3978C17.0864 81.4884 17.6564 81.3736 18.0929 81.0533C18.5398 80.7251 18.8103 80.1953 18.9045 79.464L19.6697 73.521L21.4748 73.7534L20.7024 79.7519C20.5964 80.5758 20.3456 81.2446 19.9501 81.7583C19.5558 82.2627 19.0405 82.6104 18.4042 82.8014C17.768 82.9924 17.0286 83.0337 16.1863 82.9252ZM21.3958 83.4265L25.469 78.8694L22.9415 73.9423L25.1493 74.2265L26.8505 77.678L26.9199 77.687L29.4399 74.7789L31.5088 75.0453L27.8174 79.1576L30.6157 84.6136L28.4218 84.3311L26.4517 80.3369L26.3684 80.3261L23.4786 83.6947L21.3958 83.4265ZM30.6745 85.3128L34.992 74.8021L36.2139 74.9594L31.8964 85.4701L30.6745 85.3128ZM39.8891 85.9769C39.0559 85.8697 38.3558 85.6431 37.7887 85.2971C37.2215 84.9512 36.8111 84.4843 36.5574 83.8965C36.3142 83.3005 36.2456 82.5906 36.3517 81.7668L37.124 75.7683L38.9291 76.0007L38.164 81.9436C38.0698 82.6749 38.1881 83.2548 38.5187 83.6832C38.8599 84.1035 39.3822 84.3589 40.0857 84.4495C40.7892 84.5401 41.3592 84.4253 41.7957 84.1051C42.2426 83.7768 42.5131 83.247 42.6073 82.5157L43.3724 76.5727L45.1775 76.8051L44.4052 82.8036C44.2992 83.6275 44.0484 84.2963 43.6529 84.81C43.2586 85.3144 42.7433 85.6621 42.107 85.8531C41.4708 86.0441 40.7314 86.0854 39.8891 85.9769ZM46.0011 86.5945L47.2275 77.0691L49.0326 77.3015L47.8062 86.8269L46.0011 86.5945ZM56.8716 88.1634C55.8997 88.0383 55.0886 87.7598 54.4384 87.3279C53.7975 86.8972 53.3384 86.297 53.0611 85.5272C52.7942 84.7495 52.7347 83.7866 52.8825 82.6388C53.0982 80.9633 53.6652 79.7753 54.5835 79.0748C55.5018 78.3744 56.6876 78.1177 58.1409 78.3048C58.9278 78.4061 59.6186 78.6315 60.2136 78.981C60.8177 79.3317 61.2698 79.8039 61.5697 80.3978C61.8802 80.9835 61.9817 81.693 61.8745 82.5261L60.0277 82.2883C60.0873 81.8255 60.0355 81.4236 59.8724 81.0826C59.7197 80.7336 59.4782 80.4531 59.1479 80.2412C58.8176 80.0293 58.4256 79.8942 57.9721 79.8358C57.3426 79.7547 56.8035 79.8123 56.3547 80.0087C55.9072 80.1957 55.5506 80.5168 55.285 80.9719C55.0286 81.4283 54.8545 82.0128 54.7628 82.7256L54.7234 83.0311C54.6305 83.7531 54.6502 84.3673 54.7826 84.8737C54.9243 85.3813 55.1833 85.7817 55.5596 86.0748C55.9452 86.3691 56.4573 86.5574 57.0961 86.6396C57.5774 86.7016 58.0087 86.6771 58.39 86.5662C58.7725 86.4461 59.0812 86.2412 59.3161 85.9515C59.5615 85.6537 59.714 85.2734 59.7735 84.8105L61.5509 85.0394C61.4436 85.8725 61.1697 86.5383 60.7291 87.0368C60.2897 87.526 59.7333 87.8637 59.0601 88.0499C58.3972 88.2281 57.6677 88.2659 56.8716 88.1634ZM64.4073 89.1336C64.2036 89.1074 63.9712 89.0492 63.7099 88.9591C63.4566 88.8795 63.214 88.7541 62.9819 88.5831C62.7591 88.4133 62.5863 88.184 62.4635 87.8953C62.3419 87.5973 62.3097 87.2262 62.3669 86.7818C62.4313 86.282 62.5954 85.8843 62.8593 85.5889C63.1243 85.2843 63.4678 85.065 63.8897 84.9311C64.322 84.7892 64.8207 84.7169 65.3856 84.7144C65.961 84.7038 66.582 84.7414 67.2485 84.8272L67.3253 84.2301C67.3527 84.0172 67.3448 83.8233 67.3014 83.6483C67.2581 83.4733 67.1544 83.3282 66.9905 83.213C66.837 83.0897 66.5889 83.0061 66.2464 82.962C65.9039 82.9179 65.6301 82.9249 65.425 82.9832C65.2199 83.0415 65.0725 83.1261 64.983 83.2369C64.8934 83.3477 64.8403 83.4679 64.8236 83.5975L64.7986 83.7919L63.1601 83.5809C63.1568 83.5334 63.1582 83.4866 63.1641 83.4403C63.1701 83.394 63.1772 83.3384 63.1856 83.2736C63.2392 82.8571 63.4107 82.5122 63.6999 82.2389C63.9892 81.9656 64.3661 81.7788 64.8307 81.6787C65.2965 81.5692 65.821 81.5521 66.4042 81.6272C67.0707 81.713 67.6049 81.8759 68.0069 82.1158C68.4181 82.357 68.7082 82.6625 68.877 83.0324C69.0458 83.4024 69.0986 83.8326 69.0354 84.3232L68.5921 87.7668C68.5694 87.9427 68.6043 88.0742 68.6966 88.1614C68.7888 88.2486 68.8952 88.2999 69.0155 88.3154L69.4598 88.3726L69.3097 89.539C69.2123 89.5641 69.0727 89.5884 68.8909 89.6121C68.7079 89.645 68.4868 89.6447 68.2276 89.6114C67.9869 89.5804 67.7747 89.5107 67.591 89.4024C67.4154 89.3045 67.2724 89.1731 67.1618 89.0083C67.0513 88.8435 66.9814 88.6557 66.9521 88.4449L66.8688 88.4342C66.6864 88.6084 66.4739 88.7598 66.2315 88.8886C65.9995 89.0093 65.7301 89.0922 65.4231 89.1374C65.1254 89.1837 64.7868 89.1825 64.4073 89.1336ZM65.0998 87.8112C65.3775 87.847 65.6282 87.8369 65.8518 87.781C66.0847 87.7263 66.2801 87.6338 66.4381 87.5036C66.6052 87.3746 66.7396 87.2084 66.841 87.005C66.9518 86.8028 67.0232 86.5767 67.0554 86.3268L67.0983 85.9935C66.5892 85.928 66.1129 85.8996 65.6695 85.9084C65.2353 85.9184 64.8773 85.9946 64.5955 86.1371C64.3229 86.2808 64.1657 86.5147 64.124 86.8387C64.1026 87.0053 64.1205 87.1582 64.1779 87.2973C64.2457 87.4284 64.3535 87.5411 64.5014 87.6354C64.6597 87.7216 64.8591 87.7802 65.0998 87.8112ZM73.0949 90.2521C72.5672 90.1842 72.1115 90.0691 71.7278 89.9068C71.3452 89.7352 71.0328 89.5303 70.7906 89.292C70.5484 89.0538 70.3751 88.7916 70.2708 88.5052C70.177 88.2108 70.1509 87.9016 70.1926 87.5777C70.1986 87.5314 70.204 87.4897 70.2087 87.4527C70.2228 87.4168 70.231 87.3897 70.2333 87.3712L71.8996 87.5857C71.8972 87.6042 71.8948 87.6227 71.8924 87.6412C71.8901 87.6597 71.8877 87.6783 71.8853 87.6968C71.8624 87.9479 71.9148 88.1617 72.0427 88.3381C72.1717 88.5053 72.3524 88.6368 72.5847 88.7326C72.8171 88.8284 73.0675 88.8935 73.3359 88.9281C73.5766 88.9591 73.8064 88.9651 74.0252 88.9463C74.2546 88.9193 74.4458 88.8593 74.599 88.766C74.7626 88.6648 74.8563 88.5216 74.8801 88.3364C74.9111 88.0958 74.8424 87.8987 74.6739 87.7453C74.5055 87.5918 74.2739 87.4538 73.9791 87.3311C73.6936 87.2097 73.3856 87.0806 73.055 86.944C72.7602 86.8213 72.4667 86.6894 72.1743 86.5483C71.8819 86.4071 71.6209 86.2418 71.3912 86.0522C71.1708 85.8639 70.998 85.6346 70.8728 85.3644C70.7569 85.0954 70.7228 84.7757 70.7704 84.4055C70.8169 84.0444 70.9361 83.7398 71.1281 83.4917C71.32 83.2435 71.5661 83.0493 71.8665 82.9092C72.168 82.7598 72.5145 82.6632 72.906 82.6195C73.2974 82.5758 73.7153 82.5826 74.1597 82.6398C74.5947 82.6958 74.9822 82.7928 75.322 82.9306C75.6711 83.0697 75.964 83.2438 76.2005 83.4531C76.4475 83.6543 76.6243 83.8888 76.731 84.1566C76.8481 84.4163 76.8876 84.6943 76.8495 84.9905C76.8412 85.0553 76.8282 85.1195 76.8106 85.1831C76.8022 85.2479 76.7975 85.285 76.7963 85.2942L75.1439 85.0815L75.1564 84.9843C75.1791 84.8084 75.1426 84.6531 75.047 84.5185C74.9619 84.3758 74.8222 84.2543 74.6281 84.154C74.4433 84.0549 74.2027 83.9863 73.9065 83.9482C73.6843 83.9196 73.4876 83.9131 73.3162 83.9286C73.1448 83.9442 72.9994 83.9773 72.8799 84.0277C72.7698 84.0794 72.6816 84.1434 72.6153 84.2195C72.549 84.2957 72.5093 84.3847 72.4962 84.4865C72.4736 84.6624 72.5251 84.8102 72.6509 84.9299C72.7766 85.0496 72.9504 85.1614 73.1723 85.2652C73.4035 85.3703 73.6525 85.4823 73.9195 85.6014C74.2408 85.7369 74.5708 85.8781 74.9095 86.0253C75.2493 86.1631 75.5578 86.3252 75.835 86.5114C76.1214 86.6989 76.3399 86.9387 76.4905 87.231C76.641 87.5233 76.6877 87.8916 76.6305 88.3359C76.5757 88.7618 76.4453 89.1167 76.2393 89.4007C76.0438 89.6767 75.7861 89.8882 75.466 90.0352C75.1564 90.1741 74.7972 90.2596 74.3884 90.2917C73.9889 90.3249 73.5577 90.3117 73.0949 90.2521ZM80.8987 91.2569C80.1211 91.1568 79.4904 90.9391 79.0066 90.6039C78.5239 90.2595 78.1894 89.7882 78.0029 89.1902C77.8164 88.5921 77.7792 87.858 77.8912 86.9879C78.0044 86.1085 78.2264 85.4078 78.5571 84.8857C78.889 84.3544 79.3314 83.9879 79.8843 83.7862C80.4385 83.5752 81.1044 83.5198 81.8819 83.6199C82.5855 83.7105 83.156 83.9204 83.5935 84.2496C84.0415 84.5708 84.3507 85.02 84.5211 85.5971C84.6914 86.1743 84.7206 86.8979 84.6086 87.7681L84.5442 88.2679L79.5732 87.6279C79.5333 88.0839 79.5533 88.477 79.6331 88.8072C79.7141 89.1282 79.8695 89.3835 80.0992 89.573C80.3393 89.7545 80.6676 89.872 81.0842 89.9257C81.2971 89.9531 81.4997 89.9509 81.692 89.9192C81.8843 89.8875 82.057 89.8251 82.2102 89.7319C82.3645 89.6294 82.49 89.495 82.5867 89.3287C82.6927 89.1635 82.7606 88.9652 82.7904 88.7338L84.4566 88.9483C84.397 89.4112 84.2619 89.8031 84.0511 90.1242C83.8497 90.4464 83.5865 90.6995 83.2617 90.8836C82.9461 91.0688 82.5868 91.1919 82.1837 91.2529C81.7806 91.314 81.3523 91.3153 80.8987 91.2569ZM79.7547 86.4374L82.9345 86.8467C82.9738 86.5413 82.9702 86.2773 82.9235 86.0549C82.8861 85.8336 82.8116 85.6452 82.6999 85.4897C82.5974 85.3353 82.4618 85.2191 82.2931 85.1409C82.1255 85.0534 81.9307 84.9954 81.7085 84.9668C81.3475 84.9203 81.0343 84.9412 80.7688 85.0293C80.5127 85.1187 80.3037 85.28 80.1419 85.5132C79.9801 85.7465 79.8511 86.0545 79.7547 86.4374ZM91.573 92.6312C90.7769 92.5287 90.1277 92.3087 89.6253 91.9711C89.1242 91.6242 88.7757 91.1512 88.58 90.552C88.3842 89.9527 88.3424 89.218 88.4544 88.3479C88.5676 87.4685 88.7942 86.7684 89.1342 86.2475C89.4753 85.7174 89.9316 85.3527 90.5031 85.1534C91.0757 84.9448 91.7601 84.8917 92.5562 84.9942C93.3616 85.0979 94.0102 85.3226 94.5021 85.6682C95.0044 86.0058 95.3535 86.4742 95.5492 87.0734C95.7462 87.6634 95.788 88.3981 95.6748 89.2775C95.5628 90.1477 95.3362 90.8478 94.995 91.3779C94.6539 91.908 94.197 92.2774 93.6243 92.4859C93.0621 92.6865 92.3783 92.7349 91.573 92.6312ZM91.7517 91.2427C92.1961 91.2999 92.5632 91.2624 92.8531 91.1304C93.1534 90.9902 93.3858 90.7567 93.5503 90.4297C93.7252 90.0946 93.846 89.6679 93.9127 89.1495L93.9377 88.9551C94.0045 88.4367 93.9951 87.9979 93.9096 87.6387C93.8346 87.2714 93.6689 86.9866 93.4127 86.7842C93.1668 86.5738 92.8218 86.44 92.3774 86.3828C91.9331 86.3256 91.5608 86.367 91.2604 86.5071C90.9705 86.6392 90.7381 86.8728 90.5632 87.2079C90.3988 87.5349 90.2832 87.9576 90.2165 88.476L90.1914 88.6704C90.1247 89.1887 90.1288 89.6316 90.2039 89.9988C90.2894 90.358 90.4551 90.6428 90.7009 90.8533C90.9571 91.0557 91.3074 91.1854 91.7517 91.2427ZM96.9911 93.1594L97.7526 87.2442L96.6973 87.1083L96.8761 85.7198L97.9314 85.8557L98.0512 84.9253C98.0929 84.6014 98.1831 84.3024 98.3219 84.0286C98.4711 83.7467 98.6919 83.5304 98.9842 83.3798C99.2765 83.2293 99.6633 83.185 100.145 83.2469C100.284 83.2648 100.421 83.2919 100.558 83.3283C100.703 83.3659 100.839 83.4116 100.963 83.4653C101.089 83.5097 101.196 83.5564 101.284 83.6054L101.132 84.7856L100.438 84.6963C100.234 84.67 100.07 84.7053 99.9444 84.8021C99.8295 84.8908 99.7589 85.037 99.7327 85.2406L99.6254 86.0738L100.945 86.2436L100.766 87.6321L99.4467 87.4623L98.6851 93.3775L96.9911 93.1594ZM106.507 94.5539C105.979 94.486 105.523 94.3708 105.14 94.2085C104.757 94.0369 104.445 93.832 104.202 93.5938C103.96 93.3556 103.787 93.0933 103.683 92.807C103.589 92.5126 103.563 92.2034 103.604 91.8794C103.61 91.8331 103.616 91.7914 103.62 91.7544C103.634 91.7186 103.643 91.6914 103.645 91.6729L105.311 91.8874C105.309 91.9059 105.307 91.9245 105.304 91.943C105.302 91.9615 105.299 91.98 105.297 91.9985C105.274 92.2496 105.327 92.4634 105.454 92.6399C105.583 92.807 105.764 92.9385 105.996 93.0343C106.229 93.1301 106.479 93.1953 106.748 93.2298C106.988 93.2608 107.218 93.2669 107.437 93.248C107.666 93.2211 107.858 93.161 108.011 93.0678C108.174 92.9665 108.268 92.8233 108.292 92.6382C108.323 92.3975 108.254 92.2004 108.086 92.047C107.917 91.8936 107.686 91.7555 107.391 91.6329C107.105 91.5114 106.797 91.3824 106.467 91.2457C106.172 91.1231 105.878 90.9912 105.586 90.85C105.294 90.7089 105.033 90.5435 104.803 90.354C104.583 90.1656 104.41 89.9363 104.285 89.6661C104.169 89.3971 104.134 89.0775 104.182 88.7072C104.229 88.3462 104.348 88.0416 104.54 87.7934C104.732 87.5452 104.978 87.351 105.278 87.2109C105.58 87.0615 105.926 86.965 106.318 86.9213C106.709 86.8776 107.127 86.8843 107.571 86.9415C108.006 86.9976 108.394 87.0945 108.734 87.2323C109.083 87.3714 109.376 87.5455 109.612 87.7548C109.859 87.956 110.036 88.1905 110.143 88.4583C110.26 88.7181 110.299 88.996 110.261 89.2923C110.253 89.3571 110.24 89.4213 110.222 89.4849C110.214 89.5497 110.209 89.5867 110.208 89.596L108.556 89.3832L108.568 89.286C108.591 89.1101 108.554 88.9549 108.459 88.8202C108.374 88.6775 108.234 88.556 108.04 88.4558C107.855 88.3567 107.614 88.2881 107.318 88.2499C107.096 88.2213 106.899 88.2148 106.728 88.2304C106.556 88.246 106.411 88.279 106.292 88.3295C106.181 88.3812 106.093 88.4451 106.027 88.5213C105.961 88.5974 105.921 88.6864 105.908 88.7882C105.885 88.9641 105.937 89.1119 106.063 89.2316C106.188 89.3513 106.362 89.4631 106.584 89.567C106.815 89.672 107.064 89.784 107.331 89.9031C107.653 90.0386 107.983 90.1799 108.321 90.327C108.661 90.4649 108.97 90.6269 109.247 90.8132C109.533 91.0006 109.752 91.2405 109.902 91.5328C110.053 91.825 110.099 92.1934 110.042 92.6377C109.987 93.0635 109.857 93.4184 109.651 93.7025C109.456 93.9784 109.198 94.1899 108.878 94.3369C108.568 94.4758 108.209 94.5613 107.8 94.5934C107.401 94.6266 106.969 94.6135 106.507 94.5539ZM113.102 95.4031C112.649 95.3447 112.304 95.2109 112.067 95.0016C111.832 94.7831 111.676 94.5278 111.601 94.2358C111.536 93.9358 111.523 93.6376 111.561 93.3414L112.108 89.0925L111.233 88.9798L111.412 87.5913L112.328 87.7093L112.897 85.7075L114.244 85.8809L113.981 87.922L115.244 88.0847L115.066 89.4732L113.802 89.3106L113.276 93.3929C113.251 93.5873 113.283 93.7466 113.37 93.8708C113.459 93.9857 113.605 94.0563 113.809 94.0825L114.461 94.1665L114.311 95.3329C114.214 95.358 114.094 95.3755 113.952 95.3854C113.817 95.4057 113.675 95.4156 113.524 95.4151C113.373 95.4238 113.232 95.4198 113.102 95.4031ZM117.857 96.0153C117.154 95.9247 116.604 95.6611 116.209 95.2243C115.824 94.7795 115.691 94.0943 115.81 93.1686L116.445 88.2393L118.139 88.4574L117.544 93.0812C117.51 93.3404 117.51 93.5615 117.543 93.7445C117.586 93.9195 117.656 94.0697 117.753 94.1951C117.86 94.3124 117.994 94.4049 118.155 94.4727C118.316 94.5404 118.498 94.5874 118.701 94.6136C119.007 94.6529 119.289 94.614 119.549 94.4969C119.818 94.381 120.039 94.2023 120.211 93.961C120.394 93.7116 120.507 93.4203 120.549 93.0871L121.096 88.8382L122.79 89.0563L121.85 96.36L120.448 96.1794L120.434 95.1896L120.337 95.177C120.142 95.3778 119.917 95.5512 119.663 95.6972C119.419 95.8353 119.143 95.9315 118.835 95.9859C118.535 96.0508 118.209 96.0606 117.857 96.0153ZM126.175 97.0862C125.582 97.0099 125.086 96.8095 124.685 96.4851C124.285 96.1606 124.001 95.7005 123.833 95.1049C123.674 94.5104 123.652 93.7688 123.766 92.8802C123.88 92.0008 124.092 91.2988 124.404 90.7744C124.718 90.2407 125.105 89.8671 125.565 89.6534C126.025 89.4398 126.524 89.3676 127.061 89.4367C127.394 89.4796 127.695 89.556 127.963 89.6658C128.231 89.7756 128.462 89.9229 128.654 90.1077C128.848 90.2832 129.005 90.4916 129.124 90.7328L129.208 90.7435L129.669 87.1611L131.363 87.3792L130.07 97.4183L128.668 97.2378L128.654 96.2479L128.557 96.2354C128.277 96.5851 127.925 96.8316 127.502 96.9747C127.089 97.1098 126.647 97.147 126.175 97.0862ZM126.89 95.6961C127.279 95.7462 127.605 95.6988 127.868 95.5539C128.132 95.409 128.34 95.1771 128.494 94.8581C128.658 94.5404 128.77 94.1408 128.832 93.6594L128.855 93.4789C128.902 93.1179 128.911 92.7898 128.883 92.4944C128.856 92.1991 128.785 91.9453 128.671 91.7331C128.566 91.522 128.414 91.3518 128.214 91.2226C128.024 91.0946 127.785 91.0121 127.498 90.9751C127.082 90.9215 126.738 90.9619 126.466 91.0963C126.205 91.2227 125.997 91.45 125.842 91.7782C125.697 92.0983 125.592 92.5176 125.525 93.036L125.5 93.2304C125.434 93.7395 125.431 94.1673 125.49 94.5136C125.558 94.8612 125.702 95.1338 125.921 95.3314C126.151 95.5209 126.474 95.6425 126.89 95.6961ZM132.519 100.303C132.177 100.259 131.903 100.195 131.697 100.112C131.49 100.038 131.373 99.9951 131.347 99.9823L131.502 98.7743L132.28 98.8744C132.474 98.8994 132.675 98.8735 132.883 98.7967C133.09 98.7199 133.284 98.6037 133.464 98.4481C133.644 98.2925 133.785 98.113 133.886 97.9096L131.98 90.2394L133.757 90.4682L134.667 94.1425C134.712 94.3082 134.751 94.5156 134.785 94.7646C134.828 95.0149 134.87 95.2743 134.911 95.5431C134.953 95.8025 134.983 96.0371 135.004 96.2467L135.073 96.2556C135.128 96.1215 135.19 95.9695 135.259 95.7996C135.328 95.6297 135.397 95.4551 135.467 95.2759C135.547 95.098 135.625 94.9246 135.704 94.7559C135.782 94.5871 135.848 94.4404 135.901 94.3155L137.465 90.9455L139.186 91.1672L135.851 97.7814C135.662 98.1523 135.457 98.5023 135.235 98.8314C135.023 99.1618 134.785 99.4462 134.519 99.6849C134.262 99.9247 133.967 100.098 133.633 100.206C133.307 100.324 132.936 100.356 132.519 100.303Z" fill="white"/>
</svg>
